<svg width="500" height="290" viewBox="0 0 500 290" fill="none" xmlns="http://www.w3.org/2000/svg">
<rect width="500" height="290" fill="white"/>
<line x1="49.5302" y1="237.768" x2="117.934" y2="49.829" stroke="black"/>
<line x1="118.25" y1="49.567" x2="447.34" y2="239.567" stroke="black"/>
<line x1="50.0027" y1="237.5" x2="447.997" y2="239.687" stroke="black"/>
<path d="M119.113 34.7383H120.062C119.945 35.9336 119.625 36.9414 119.102 37.7617C118.578 38.5742 117.875 39.1914 116.992 39.6133C116.117 40.0273 115.086 40.2344 113.898 40.2344C112.953 40.2344 112.094 40.0547 111.32 39.6953C110.555 39.3281 109.895 38.8125 109.34 38.1484C108.793 37.4766 108.371 36.6758 108.074 35.7461C107.777 34.8164 107.629 33.7891 107.629 32.6641V30.2734C107.629 29.1406 107.777 28.1133 108.074 27.1914C108.371 26.2617 108.793 25.4648 109.34 24.8008C109.895 24.1289 110.559 23.6133 111.332 23.2539C112.113 22.8867 112.984 22.7031 113.945 22.7031C115.109 22.7031 116.129 22.9102 117.004 23.3242C117.879 23.7383 118.578 24.3555 119.102 25.1758C119.625 25.9883 119.945 26.9922 120.062 28.1875H119.113C118.996 27.1953 118.727 26.3594 118.305 25.6797C117.891 24.9922 117.32 24.4688 116.594 24.1094C115.867 23.75 114.984 23.5703 113.945 23.5703C113.125 23.5703 112.387 23.7305 111.73 24.0508C111.074 24.3633 110.512 24.8164 110.043 25.4102C109.574 25.9961 109.211 26.6992 108.953 27.5195C108.703 28.332 108.578 29.2422 108.578 30.25V32.6641C108.578 33.6562 108.703 34.5664 108.953 35.3945C109.203 36.2148 109.559 36.9219 110.02 37.5156C110.48 38.1016 111.039 38.5586 111.695 38.8867C112.352 39.207 113.086 39.3672 113.898 39.3672C114.938 39.3672 115.824 39.2031 116.559 38.875C117.293 38.5391 117.871 38.0273 118.293 37.3398C118.723 36.6523 118.996 35.7852 119.113 34.7383Z" fill="black"/>
<path d="M465.039 241.656H459.93L459.906 240.801H464.184C465.137 240.801 465.941 240.672 466.598 240.414C467.254 240.156 467.75 239.77 468.086 239.254C468.422 238.73 468.59 238.078 468.59 237.297C468.59 236.516 468.418 235.867 468.074 235.352C467.73 234.836 467.215 234.449 466.527 234.191C465.848 233.934 464.996 233.805 463.973 233.805H460.223V250H459.273V232.938H463.973C464.84 232.938 465.617 233.023 466.305 233.195C466.992 233.367 467.574 233.637 468.051 234.004C468.535 234.363 468.906 234.82 469.164 235.375C469.422 235.93 469.551 236.586 469.551 237.344C469.551 238.047 469.41 238.68 469.129 239.242C468.848 239.805 468.441 240.266 467.91 240.625C467.387 240.977 466.746 241.191 465.988 241.27L465.039 241.656ZM464.922 250H459.73L460.141 249.133H464.922C465.836 249.133 466.617 248.98 467.266 248.676C467.922 248.363 468.426 247.922 468.777 247.352C469.137 246.773 469.316 246.082 469.316 245.277C469.316 244.629 469.16 244.031 468.848 243.484C468.535 242.93 468.062 242.488 467.43 242.16C466.797 241.824 466 241.656 465.039 241.656H462.18L462.203 240.801H466.316L466.445 241.105C467.188 241.191 467.844 241.43 468.414 241.82C468.992 242.211 469.445 242.707 469.773 243.309C470.102 243.902 470.266 244.551 470.266 245.254C470.266 246.277 470.039 247.141 469.586 247.844C469.133 248.547 468.504 249.082 467.699 249.449C466.902 249.816 465.977 250 464.922 250Z" fill="black"/>
<path d="M37.4531 235.664L31.3828 252H30.375L36.7852 234.938H37.5703L37.4531 235.664ZM43.1953 252L37.1367 235.664L37.0195 234.938H37.793L44.2148 252H43.1953ZM41.6953 246.152V247.031H32.9414V246.152H41.6953Z" fill="black"/>
<path d="M236.398 260.379C237.031 260.379 237.629 260.262 238.191 260.027C238.762 259.793 239.234 259.438 239.609 258.961C239.992 258.477 240.207 257.863 240.254 257.121H241.168C241.129 257.965 240.887 258.695 240.441 259.312C239.996 259.922 239.422 260.395 238.719 260.73C238.016 261.066 237.242 261.234 236.398 261.234C235.555 261.234 234.801 261.078 234.137 260.766C233.48 260.453 232.93 260.012 232.484 259.441C232.039 258.871 231.699 258.203 231.465 257.438C231.238 256.664 231.125 255.82 231.125 254.906V254.414C231.125 253.5 231.238 252.66 231.465 251.895C231.699 251.121 232.039 250.449 232.484 249.879C232.93 249.309 233.477 248.867 234.125 248.555C234.781 248.242 235.531 248.086 236.375 248.086C237.227 248.086 238.008 248.262 238.719 248.613C239.43 248.957 240.004 249.461 240.441 250.125C240.887 250.781 241.129 251.586 241.168 252.539H240.254C240.215 251.758 240.016 251.102 239.656 250.57C239.297 250.039 238.828 249.637 238.25 249.363C237.672 249.082 237.047 248.941 236.375 248.941C235.625 248.941 234.977 249.086 234.43 249.375C233.883 249.664 233.434 250.062 233.082 250.57C232.73 251.07 232.473 251.652 232.309 252.316C232.145 252.973 232.062 253.672 232.062 254.414V254.906C232.062 255.656 232.145 256.363 232.309 257.027C232.473 257.684 232.73 258.262 233.082 258.762C233.434 259.262 233.883 259.656 234.43 259.945C234.984 260.234 235.641 260.379 236.398 260.379Z" fill="black"/>
<path d="M66.9219 112H67.8594V127.539L67.8242 130H66.9219V112ZM76.8359 123.531V123.777C76.8359 124.738 76.7266 125.613 76.5078 126.402C76.2969 127.191 75.9844 127.871 75.5703 128.441C75.1641 129.012 74.6641 129.453 74.0703 129.766C73.4766 130.078 72.8008 130.234 72.043 130.234C71.3164 130.234 70.6641 130.125 70.0859 129.906C69.5156 129.688 69.0234 129.387 68.6094 129.004C68.1953 128.613 67.8594 128.164 67.6016 127.656C67.3516 127.141 67.1758 126.59 67.0742 126.004V121.633C67.207 120.969 67.4062 120.363 67.6719 119.816C67.9375 119.262 68.2734 118.781 68.6797 118.375C69.0859 117.961 69.5664 117.645 70.1211 117.426C70.6836 117.199 71.3164 117.086 72.0195 117.086C72.7852 117.086 73.4648 117.238 74.0586 117.543C74.6602 117.84 75.1641 118.27 75.5703 118.832C75.9844 119.387 76.2969 120.062 76.5078 120.859C76.7266 121.648 76.8359 122.539 76.8359 123.531ZM75.8867 123.777V123.531C75.8867 122.734 75.8086 121.996 75.6523 121.316C75.4961 120.637 75.2539 120.047 74.9258 119.547C74.6055 119.047 74.1953 118.656 73.6953 118.375C73.1953 118.094 72.6055 117.953 71.9258 117.953C71.1758 117.953 70.543 118.078 70.0273 118.328C69.5195 118.57 69.1016 118.887 68.7734 119.277C68.4531 119.668 68.1992 120.09 68.0117 120.543C67.832 120.988 67.6992 121.41 67.6133 121.809V125.945C67.7539 126.562 68 127.133 68.3516 127.656C68.7109 128.172 69.1875 128.586 69.7812 128.898C70.3828 129.211 71.1055 129.367 71.9492 129.367C72.6211 129.367 73.2031 129.227 73.6953 128.945C74.1953 128.664 74.6055 128.273 74.9258 127.773C75.2461 127.273 75.4844 126.684 75.6406 126.004C75.8047 125.324 75.8867 124.582 75.8867 123.777Z" fill="black"/>
<path d="M281.809 127.668V121.117C281.809 120.453 281.668 119.883 281.387 119.406C281.105 118.93 280.695 118.566 280.156 118.316C279.617 118.059 278.957 117.93 278.176 117.93C277.449 117.93 276.797 118.059 276.219 118.316C275.648 118.566 275.199 118.91 274.871 119.348C274.543 119.785 274.379 120.273 274.379 120.812L273.441 120.801C273.441 120.316 273.555 119.852 273.781 119.406C274.016 118.961 274.344 118.566 274.766 118.223C275.195 117.871 275.699 117.594 276.277 117.391C276.863 117.188 277.504 117.086 278.199 117.086C279.09 117.086 279.875 117.238 280.555 117.543C281.242 117.84 281.777 118.289 282.16 118.891C282.543 119.492 282.734 120.242 282.734 121.141V127.398C282.734 127.852 282.766 128.309 282.828 128.77C282.891 129.23 282.977 129.602 283.086 129.883V130H282.066C281.98 129.703 281.914 129.34 281.867 128.91C281.828 128.48 281.809 128.066 281.809 127.668ZM282.113 122.805L282.137 123.613H279.043C278.262 123.613 277.562 123.688 276.945 123.836C276.328 123.984 275.805 124.195 275.375 124.469C274.945 124.742 274.617 125.066 274.391 125.441C274.164 125.816 274.051 126.238 274.051 126.707C274.051 127.191 274.18 127.637 274.438 128.043C274.695 128.449 275.059 128.773 275.527 129.016C275.996 129.25 276.539 129.367 277.156 129.367C278 129.367 278.746 129.223 279.395 128.934C280.051 128.637 280.602 128.238 281.047 127.738C281.492 127.23 281.816 126.645 282.02 125.98L282.43 126.66C282.297 127.074 282.09 127.492 281.809 127.914C281.527 128.336 281.164 128.723 280.719 129.074C280.273 129.418 279.75 129.699 279.148 129.918C278.547 130.129 277.863 130.234 277.098 130.234C276.293 130.234 275.59 130.086 274.988 129.789C274.395 129.484 273.934 129.07 273.605 128.547C273.277 128.016 273.113 127.41 273.113 126.73C273.113 126.145 273.246 125.609 273.512 125.125C273.777 124.641 274.16 124.227 274.66 123.883C275.168 123.531 275.781 123.266 276.5 123.086C277.227 122.898 278.043 122.805 278.949 122.805H282.113ZM292.126 134.276V135H285.72V134.346L289.074 130.542C289.491 130.069 289.824 129.654 290.073 129.298C290.321 128.937 290.499 128.609 290.607 128.313C290.72 128.013 290.776 127.723 290.776 127.441C290.776 127.029 290.694 126.666 290.53 126.352C290.37 126.037 290.131 125.791 289.813 125.613C289.494 125.435 289.1 125.346 288.631 125.346C288.163 125.346 287.755 125.447 287.408 125.648C287.061 125.85 286.794 126.131 286.606 126.492C286.423 126.848 286.332 127.254 286.332 127.709H285.495C285.495 127.146 285.62 126.63 285.868 126.162C286.121 125.693 286.482 125.32 286.951 125.044C287.42 124.762 287.98 124.622 288.631 124.622C289.25 124.622 289.782 124.732 290.227 124.952C290.673 125.168 291.015 125.48 291.254 125.887C291.498 126.295 291.62 126.787 291.62 127.364C291.62 127.673 291.563 127.985 291.451 128.299C291.343 128.613 291.193 128.927 291.001 129.241C290.813 129.551 290.598 129.858 290.354 130.162C290.115 130.467 289.864 130.767 289.602 131.062L286.747 134.276H292.126Z" fill="black"/>
<path d="M140.809 51.668V45.1172C140.809 44.4531 140.668 43.8828 140.387 43.4062C140.105 42.9297 139.695 42.5664 139.156 42.3164C138.617 42.0586 137.957 41.9297 137.176 41.9297C136.449 41.9297 135.797 42.0586 135.219 42.3164C134.648 42.5664 134.199 42.9102 133.871 43.3477C133.543 43.7852 133.379 44.2734 133.379 44.8125L132.441 44.8008C132.441 44.3164 132.555 43.8516 132.781 43.4062C133.016 42.9609 133.344 42.5664 133.766 42.2227C134.195 41.8711 134.699 41.5938 135.277 41.3906C135.863 41.1875 136.504 41.0859 137.199 41.0859C138.09 41.0859 138.875 41.2383 139.555 41.543C140.242 41.8398 140.777 42.2891 141.16 42.8906C141.543 43.4922 141.734 44.2422 141.734 45.1406V51.3984C141.734 51.8516 141.766 52.3086 141.828 52.7695C141.891 53.2305 141.977 53.6016 142.086 53.8828V54H141.066C140.98 53.7031 140.914 53.3398 140.867 52.9102C140.828 52.4805 140.809 52.0664 140.809 51.668ZM141.113 46.8047L141.137 47.6133H138.043C137.262 47.6133 136.562 47.6875 135.945 47.8359C135.328 47.9844 134.805 48.1953 134.375 48.4688C133.945 48.7422 133.617 49.0664 133.391 49.4414C133.164 49.8164 133.051 50.2383 133.051 50.707C133.051 51.1914 133.18 51.6367 133.438 52.043C133.695 52.4492 134.059 52.7734 134.527 53.0156C134.996 53.25 135.539 53.3672 136.156 53.3672C137 53.3672 137.746 53.2227 138.395 52.9336C139.051 52.6367 139.602 52.2383 140.047 51.7383C140.492 51.2305 140.816 50.6445 141.02 49.9805L141.43 50.6602C141.297 51.0742 141.09 51.4922 140.809 51.9141C140.527 52.3359 140.164 52.7227 139.719 53.0742C139.273 53.418 138.75 53.6992 138.148 53.918C137.547 54.1289 136.863 54.2344 136.098 54.2344C135.293 54.2344 134.59 54.0859 133.988 53.7891C133.395 53.4844 132.934 53.0703 132.605 52.5469C132.277 52.0156 132.113 51.4102 132.113 50.7305C132.113 50.1445 132.246 49.6094 132.512 49.125C132.777 48.6406 133.16 48.2266 133.66 47.8828C134.168 47.5312 134.781 47.2656 135.5 47.0859C136.227 46.8984 137.043 46.8047 137.949 46.8047H141.113ZM148.63 48.7203V59H147.793V49.782L145.009 50.8156V50.0211L148.489 48.7203H148.63Z" fill="black"/>
<path d="M133.224 72.48C132.472 73.232 131.832 73.92 131.304 74.544C130.776 75.184 130.248 75.864 129.72 76.584C129.208 77.288 128.696 78.048 128.184 78.864C126.952 80.816 125.92 83.48 125.088 86.856L123.624 86.328C123.832 85.56 124.048 84.824 124.272 84.12C124.496 83.432 124.744 82.752 125.016 82.08C125.416 81.088 125.616 80.144 125.616 79.248C125.616 78.736 125.472 78.008 125.184 77.064C124.88 76.072 124.536 75.36 124.152 74.928C123.192 73.824 121.928 73.048 120.36 72.6L120.936 71.472C122.488 71.776 123.712 72.416 124.608 73.392C126.032 74.912 126.768 76.664 126.816 78.648C127.696 77.016 128.816 75.384 130.176 73.752C131.12 72.616 131.768 71.912 132.12 71.64L133.224 72.48Z" fill="black"/>
<path d="M386.328 223.464C386.376 224.84 386.008 225.944 385.224 226.776C384.36 227.72 383.12 228.192 381.504 228.192C380.064 228.192 378.928 227.784 378.096 226.968C378.064 228.888 378.088 230.896 378.168 232.992H376.632C376.648 232.768 376.656 231.824 376.656 230.16C376.656 228.512 376.656 226.112 376.656 222.96C376.656 219.072 376.712 216.856 376.824 216.312C377.016 215.336 377.488 214.584 378.24 214.056C378.896 213.592 379.712 213.344 380.688 213.312C381.808 213.296 382.752 213.64 383.52 214.344C384.256 215.032 384.6 215.928 384.552 217.032C384.504 218.248 384 219.176 383.04 219.816C383.808 219.896 384.504 220.224 385.128 220.8C385.88 221.536 386.28 222.424 386.328 223.464ZM384.84 223.272C384.776 222.552 384.496 221.992 384 221.592C383.504 221.176 382.896 220.968 382.176 220.968C381.408 220.968 380.6 221.168 379.752 221.568V220.176C381.944 219.84 383.056 218.888 383.088 217.32C383.104 216.552 382.88 215.936 382.416 215.472C381.968 215.008 381.392 214.792 380.688 214.824C379.232 214.872 378.4 215.672 378.192 217.224C378.064 218.072 378.04 220.728 378.12 225.192C378.984 226.12 380.104 226.6 381.48 226.632C382.024 226.632 382.512 226.552 382.944 226.392C383.392 226.216 383.76 225.984 384.048 225.696C384.352 225.392 384.568 225.032 384.696 224.616C384.84 224.2 384.888 223.752 384.84 223.272Z" fill="black"/>
<path d="M72.072 227.776L71.808 229.24C70.544 228.6 69.8 227.8 69.576 226.84C69.24 227.56 68.696 228.136 67.944 228.568C67.208 228.984 66.432 229.192 65.616 229.192C64.16 229.192 63 228.704 62.136 227.728C61.352 226.832 60.96 225.68 60.96 224.272C60.96 223.04 61.36 221.952 62.16 221.008C63.04 219.984 64.192 219.472 65.616 219.472C67.392 219.472 68.728 220.264 69.624 221.848C69.832 220.728 70.576 219.84 71.856 219.184L72 220.672C70.816 221.76 70.224 222.968 70.224 224.296C70.224 225.912 70.84 227.072 72.072 227.776ZM68.952 224.296C68.952 223.4 68.608 222.608 67.92 221.92C67.248 221.232 66.464 220.888 65.568 220.888C64.784 220.888 64.072 221.224 63.432 221.896C62.808 222.552 62.496 223.344 62.496 224.272C62.496 224.8 62.568 225.28 62.712 225.712C62.872 226.144 63.088 226.52 63.36 226.84C63.632 227.144 63.96 227.384 64.344 227.56C64.728 227.72 65.152 227.8 65.616 227.8C66.528 227.8 67.312 227.472 67.968 226.816C68.624 226.16 68.952 225.32 68.952 224.296Z" fill="black"/>
<path d="M119.871 132V150H118.945V132H119.871ZM119.695 142.688L119.238 142.148C119.309 141.477 119.473 140.836 119.73 140.227C119.996 139.617 120.344 139.078 120.773 138.609C121.211 138.141 121.719 137.77 122.297 137.496C122.883 137.223 123.527 137.086 124.23 137.086C124.863 137.086 125.43 137.176 125.93 137.355C126.43 137.527 126.852 137.801 127.195 138.176C127.547 138.551 127.812 139.035 127.992 139.629C128.172 140.215 128.262 140.93 128.262 141.773V150H127.336V141.773C127.336 140.773 127.199 140 126.926 139.453C126.652 138.898 126.27 138.508 125.777 138.281C125.293 138.055 124.727 137.941 124.078 137.941C123.328 137.941 122.68 138.109 122.133 138.445C121.594 138.773 121.148 139.191 120.797 139.699C120.445 140.199 120.176 140.719 119.988 141.258C119.809 141.797 119.711 142.273 119.695 142.688Z" fill="#999999"/>
<line x1="52.7387" y1="234.957" x2="149.395" y2="67.5429" stroke="#999999" stroke-dasharray="2 2"/>
<line x1="138.995" y1="84.9915" x2="156.315" y2="94.9915" stroke="#999999" stroke-dasharray="2 2"/>
<line x1="157.567" y1="96.0705" x2="167.567" y2="78.75" stroke="#999999" stroke-dasharray="2 2"/>
</svg>
