<svg width="500" height="290" viewBox="0 0 500 290" fill="none" xmlns="http://www.w3.org/2000/svg">
<rect width="500" height="290" fill="white"/>
<line x1="49.5302" y1="237.768" x2="117.934" y2="49.829" stroke="black"/>
<line x1="118.25" y1="49.567" x2="447.34" y2="239.567" stroke="black"/>
<line x1="50.0027" y1="237.5" x2="447.997" y2="239.687" stroke="black"/>
<path d="M119.113 34.7383H120.062C119.945 35.9336 119.625 36.9414 119.102 37.7617C118.578 38.5742 117.875 39.1914 116.992 39.6133C116.117 40.0273 115.086 40.2344 113.898 40.2344C112.953 40.2344 112.094 40.0547 111.32 39.6953C110.555 39.3281 109.895 38.8125 109.34 38.1484C108.793 37.4766 108.371 36.6758 108.074 35.7461C107.777 34.8164 107.629 33.7891 107.629 32.6641V30.2734C107.629 29.1406 107.777 28.1133 108.074 27.1914C108.371 26.2617 108.793 25.4648 109.34 24.8008C109.895 24.1289 110.559 23.6133 111.332 23.2539C112.113 22.8867 112.984 22.7031 113.945 22.7031C115.109 22.7031 116.129 22.9102 117.004 23.3242C117.879 23.7383 118.578 24.3555 119.102 25.1758C119.625 25.9883 119.945 26.9922 120.062 28.1875H119.113C118.996 27.1953 118.727 26.3594 118.305 25.6797C117.891 24.9922 117.32 24.4688 116.594 24.1094C115.867 23.75 114.984 23.5703 113.945 23.5703C113.125 23.5703 112.387 23.7305 111.73 24.0508C111.074 24.3633 110.512 24.8164 110.043 25.4102C109.574 25.9961 109.211 26.6992 108.953 27.5195C108.703 28.332 108.578 29.2422 108.578 30.25V32.6641C108.578 33.6562 108.703 34.5664 108.953 35.3945C109.203 36.2148 109.559 36.9219 110.02 37.5156C110.48 38.1016 111.039 38.5586 111.695 38.8867C112.352 39.207 113.086 39.3672 113.898 39.3672C114.938 39.3672 115.824 39.2031 116.559 38.875C117.293 38.5391 117.871 38.0273 118.293 37.3398C118.723 36.6523 118.996 35.7852 119.113 34.7383Z" fill="black"/>
<path d="M465.039 241.656H459.93L459.906 240.801H464.184C465.137 240.801 465.941 240.672 466.598 240.414C467.254 240.156 467.75 239.77 468.086 239.254C468.422 238.73 468.59 238.078 468.59 237.297C468.59 236.516 468.418 235.867 468.074 235.352C467.73 234.836 467.215 234.449 466.527 234.191C465.848 233.934 464.996 233.805 463.973 233.805H460.223V250H459.273V232.938H463.973C464.84 232.938 465.617 233.023 466.305 233.195C466.992 233.367 467.574 233.637 468.051 234.004C468.535 234.363 468.906 234.82 469.164 235.375C469.422 235.93 469.551 236.586 469.551 237.344C469.551 238.047 469.41 238.68 469.129 239.242C468.848 239.805 468.441 240.266 467.91 240.625C467.387 240.977 466.746 241.191 465.988 241.27L465.039 241.656ZM464.922 250H459.73L460.141 249.133H464.922C465.836 249.133 466.617 248.98 467.266 248.676C467.922 248.363 468.426 247.922 468.777 247.352C469.137 246.773 469.316 246.082 469.316 245.277C469.316 244.629 469.16 244.031 468.848 243.484C468.535 242.93 468.062 242.488 467.43 242.16C466.797 241.824 466 241.656 465.039 241.656H462.18L462.203 240.801H466.316L466.445 241.105C467.188 241.191 467.844 241.43 468.414 241.82C468.992 242.211 469.445 242.707 469.773 243.309C470.102 243.902 470.266 244.551 470.266 245.254C470.266 246.277 470.039 247.141 469.586 247.844C469.133 248.547 468.504 249.082 467.699 249.449C466.902 249.816 465.977 250 464.922 250Z" fill="black"/>
<path d="M37.4531 235.664L31.3828 252H30.375L36.7852 234.938H37.5703L37.4531 235.664ZM43.1953 252L37.1367 235.664L37.0195 234.938H37.793L44.2148 252H43.1953ZM41.6953 246.152V247.031H32.9414V246.152H41.6953Z" fill="black"/>
<path d="M236.398 260.379C237.031 260.379 237.629 260.262 238.191 260.027C238.762 259.793 239.234 259.438 239.609 258.961C239.992 258.477 240.207 257.863 240.254 257.121H241.168C241.129 257.965 240.887 258.695 240.441 259.312C239.996 259.922 239.422 260.395 238.719 260.73C238.016 261.066 237.242 261.234 236.398 261.234C235.555 261.234 234.801 261.078 234.137 260.766C233.48 260.453 232.93 260.012 232.484 259.441C232.039 258.871 231.699 258.203 231.465 257.438C231.238 256.664 231.125 255.82 231.125 254.906V254.414C231.125 253.5 231.238 252.66 231.465 251.895C231.699 251.121 232.039 250.449 232.484 249.879C232.93 249.309 233.477 248.867 234.125 248.555C234.781 248.242 235.531 248.086 236.375 248.086C237.227 248.086 238.008 248.262 238.719 248.613C239.43 248.957 240.004 249.461 240.441 250.125C240.887 250.781 241.129 251.586 241.168 252.539H240.254C240.215 251.758 240.016 251.102 239.656 250.57C239.297 250.039 238.828 249.637 238.25 249.363C237.672 249.082 237.047 248.941 236.375 248.941C235.625 248.941 234.977 249.086 234.43 249.375C233.883 249.664 233.434 250.062 233.082 250.57C232.73 251.07 232.473 251.652 232.309 252.316C232.145 252.973 232.062 253.672 232.062 254.414V254.906C232.062 255.656 232.145 256.363 232.309 257.027C232.473 257.684 232.73 258.262 233.082 258.762C233.434 259.262 233.883 259.656 234.43 259.945C234.984 260.234 235.641 260.379 236.398 260.379Z" fill="black"/>
<path d="M66.9219 112H67.8594V127.539L67.8242 130H66.9219V112ZM76.8359 123.531V123.777C76.8359 124.738 76.7266 125.613 76.5078 126.402C76.2969 127.191 75.9844 127.871 75.5703 128.441C75.1641 129.012 74.6641 129.453 74.0703 129.766C73.4766 130.078 72.8008 130.234 72.043 130.234C71.3164 130.234 70.6641 130.125 70.0859 129.906C69.5156 129.688 69.0234 129.387 68.6094 129.004C68.1953 128.613 67.8594 128.164 67.6016 127.656C67.3516 127.141 67.1758 126.59 67.0742 126.004V121.633C67.207 120.969 67.4062 120.363 67.6719 119.816C67.9375 119.262 68.2734 118.781 68.6797 118.375C69.0859 117.961 69.5664 117.645 70.1211 117.426C70.6836 117.199 71.3164 117.086 72.0195 117.086C72.7852 117.086 73.4648 117.238 74.0586 117.543C74.6602 117.84 75.1641 118.27 75.5703 118.832C75.9844 119.387 76.2969 120.062 76.5078 120.859C76.7266 121.648 76.8359 122.539 76.8359 123.531ZM75.8867 123.777V123.531C75.8867 122.734 75.8086 121.996 75.6523 121.316C75.4961 120.637 75.2539 120.047 74.9258 119.547C74.6055 119.047 74.1953 118.656 73.6953 118.375C73.1953 118.094 72.6055 117.953 71.9258 117.953C71.1758 117.953 70.543 118.078 70.0273 118.328C69.5195 118.57 69.1016 118.887 68.7734 119.277C68.4531 119.668 68.1992 120.09 68.0117 120.543C67.832 120.988 67.6992 121.41 67.6133 121.809V125.945C67.7539 126.562 68 127.133 68.3516 127.656C68.7109 128.172 69.1875 128.586 69.7812 128.898C70.3828 129.211 71.1055 129.367 71.9492 129.367C72.6211 129.367 73.2031 129.227 73.6953 128.945C74.1953 128.664 74.6055 128.273 74.9258 127.773C75.2461 127.273 75.4844 126.684 75.6406 126.004C75.8047 125.324 75.8867 124.582 75.8867 123.777Z" fill="black"/>
<path d="M275.809 119.668V113.117C275.809 112.453 275.668 111.883 275.387 111.406C275.105 110.93 274.695 110.566 274.156 110.316C273.617 110.059 272.957 109.93 272.176 109.93C271.449 109.93 270.797 110.059 270.219 110.316C269.648 110.566 269.199 110.91 268.871 111.348C268.543 111.785 268.379 112.273 268.379 112.812L267.441 112.801C267.441 112.316 267.555 111.852 267.781 111.406C268.016 110.961 268.344 110.566 268.766 110.223C269.195 109.871 269.699 109.594 270.277 109.391C270.863 109.188 271.504 109.086 272.199 109.086C273.09 109.086 273.875 109.238 274.555 109.543C275.242 109.84 275.777 110.289 276.16 110.891C276.543 111.492 276.734 112.242 276.734 113.141V119.398C276.734 119.852 276.766 120.309 276.828 120.77C276.891 121.23 276.977 121.602 277.086 121.883V122H276.066C275.98 121.703 275.914 121.34 275.867 120.91C275.828 120.48 275.809 120.066 275.809 119.668ZM276.113 114.805L276.137 115.613H273.043C272.262 115.613 271.562 115.688 270.945 115.836C270.328 115.984 269.805 116.195 269.375 116.469C268.945 116.742 268.617 117.066 268.391 117.441C268.164 117.816 268.051 118.238 268.051 118.707C268.051 119.191 268.18 119.637 268.438 120.043C268.695 120.449 269.059 120.773 269.527 121.016C269.996 121.25 270.539 121.367 271.156 121.367C272 121.367 272.746 121.223 273.395 120.934C274.051 120.637 274.602 120.238 275.047 119.738C275.492 119.23 275.816 118.645 276.02 117.98L276.43 118.66C276.297 119.074 276.09 119.492 275.809 119.914C275.527 120.336 275.164 120.723 274.719 121.074C274.273 121.418 273.75 121.699 273.148 121.918C272.547 122.129 271.863 122.234 271.098 122.234C270.293 122.234 269.59 122.086 268.988 121.789C268.395 121.484 267.934 121.07 267.605 120.547C267.277 120.016 267.113 119.41 267.113 118.73C267.113 118.145 267.246 117.609 267.512 117.125C267.777 116.641 268.16 116.227 268.66 115.883C269.168 115.531 269.781 115.266 270.5 115.086C271.227 114.898 272.043 114.805 272.949 114.805H276.113Z" fill="black"/>
<path d="M133.224 72.48C132.472 73.232 131.832 73.92 131.304 74.544C130.776 75.184 130.248 75.864 129.72 76.584C129.208 77.288 128.696 78.048 128.184 78.864C126.952 80.816 125.92 83.48 125.088 86.856L123.624 86.328C123.832 85.56 124.048 84.824 124.272 84.12C124.496 83.432 124.744 82.752 125.016 82.08C125.416 81.088 125.616 80.144 125.616 79.248C125.616 78.736 125.472 78.008 125.184 77.064C124.88 76.072 124.536 75.36 124.152 74.928C123.192 73.824 121.928 73.048 120.36 72.6L120.936 71.472C122.488 71.776 123.712 72.416 124.608 73.392C126.032 74.912 126.768 76.664 126.816 78.648C127.696 77.016 128.816 75.384 130.176 73.752C131.12 72.616 131.768 71.912 132.12 71.64L133.224 72.48Z" fill="black"/>
<path d="M386.328 223.464C386.376 224.84 386.008 225.944 385.224 226.776C384.36 227.72 383.12 228.192 381.504 228.192C380.064 228.192 378.928 227.784 378.096 226.968C378.064 228.888 378.088 230.896 378.168 232.992H376.632C376.648 232.768 376.656 231.824 376.656 230.16C376.656 228.512 376.656 226.112 376.656 222.96C376.656 219.072 376.712 216.856 376.824 216.312C377.016 215.336 377.488 214.584 378.24 214.056C378.896 213.592 379.712 213.344 380.688 213.312C381.808 213.296 382.752 213.64 383.52 214.344C384.256 215.032 384.6 215.928 384.552 217.032C384.504 218.248 384 219.176 383.04 219.816C383.808 219.896 384.504 220.224 385.128 220.8C385.88 221.536 386.28 222.424 386.328 223.464ZM384.84 223.272C384.776 222.552 384.496 221.992 384 221.592C383.504 221.176 382.896 220.968 382.176 220.968C381.408 220.968 380.6 221.168 379.752 221.568V220.176C381.944 219.84 383.056 218.888 383.088 217.32C383.104 216.552 382.88 215.936 382.416 215.472C381.968 215.008 381.392 214.792 380.688 214.824C379.232 214.872 378.4 215.672 378.192 217.224C378.064 218.072 378.04 220.728 378.12 225.192C378.984 226.12 380.104 226.6 381.48 226.632C382.024 226.632 382.512 226.552 382.944 226.392C383.392 226.216 383.76 225.984 384.048 225.696C384.352 225.392 384.568 225.032 384.696 224.616C384.84 224.2 384.888 223.752 384.84 223.272Z" fill="black"/>
<path d="M71.072 227.776L70.808 229.24C69.544 228.6 68.8 227.8 68.576 226.84C68.24 227.56 67.696 228.136 66.944 228.568C66.208 228.984 65.432 229.192 64.616 229.192C63.16 229.192 62 228.704 61.136 227.728C60.352 226.832 59.96 225.68 59.96 224.272C59.96 223.04 60.36 221.952 61.16 221.008C62.04 219.984 63.192 219.472 64.616 219.472C66.392 219.472 67.728 220.264 68.624 221.848C68.832 220.728 69.576 219.84 70.856 219.184L71 220.672C69.816 221.76 69.224 222.968 69.224 224.296C69.224 225.912 69.84 227.072 71.072 227.776ZM67.952 224.296C67.952 223.4 67.608 222.608 66.92 221.92C66.248 221.232 65.464 220.888 64.568 220.888C63.784 220.888 63.072 221.224 62.432 221.896C61.808 222.552 61.496 223.344 61.496 224.272C61.496 224.8 61.568 225.28 61.712 225.712C61.872 226.144 62.088 226.52 62.36 226.84C62.632 227.144 62.96 227.384 63.344 227.56C63.728 227.72 64.152 227.8 64.616 227.8C65.528 227.8 66.312 227.472 66.968 226.816C67.624 226.16 67.952 225.32 67.952 224.296Z" fill="black"/>
</svg>
