<svg width="500" height="500" viewBox="0 0 500 500" fill="none" xmlns="http://www.w3.org/2000/svg">
<rect width="500" height="500" fill="#DDDDDD"/>
<g clip-path="url(#clip0_0_1)">
<rect width="500" height="500" fill="white"/>
<line x1="49.5" y1="500.402" x2="49.5" y2="0.401917" stroke="#999999"/>
<line y1="449.906" x2="500" y2="449.906" stroke="#999999"/>
<path d="M481.957 459.727L485.766 465.152L489.562 459.727H490.699L486.305 465.914L490.922 472.406H489.797L485.766 466.688L481.734 472.406H480.609L485.215 465.914L480.832 459.727H481.957Z" fill="#777777"/>
<path d="M35.8242 21.1642L40.043 9.72672H41.0625L35.5312 24.4806C35.4297 24.7619 35.3008 25.0744 35.1445 25.4181C34.9883 25.7697 34.7852 26.1056 34.5352 26.4259C34.2852 26.7462 33.9609 27.008 33.5625 27.2111C33.1719 27.422 32.6875 27.5275 32.1094 27.5275C31.9766 27.5275 31.8008 27.5119 31.582 27.4806C31.3711 27.4572 31.2148 27.4259 31.1133 27.3869L31.1016 26.5666C31.2109 26.59 31.3555 26.6095 31.5352 26.6252C31.7148 26.6486 31.8398 26.6603 31.9102 26.6603C32.4258 26.6603 32.8555 26.5587 33.1992 26.3556C33.5508 26.1603 33.8438 25.8791 34.0781 25.5119C34.3125 25.1525 34.5195 24.7267 34.6992 24.2345L35.8242 21.1642ZM31.4766 9.72672L35.9766 21.2462L36.2461 22.2072L35.5312 22.6525L30.457 9.72672H31.4766Z" fill="#777777"/>
<path d="M31.0547 466.289V465.844C31.0547 464.914 31.1875 464.063 31.4531 463.289C31.7266 462.516 32.1094 461.848 32.6016 461.285C33.0938 460.715 33.6797 460.274 34.3594 459.961C35.0469 459.649 35.8086 459.492 36.6445 459.492C37.4805 459.492 38.2422 459.649 38.9297 459.961C39.6172 460.274 40.207 460.715 40.6992 461.285C41.1992 461.848 41.582 462.516 41.8477 463.289C42.1133 464.063 42.2461 464.914 42.2461 465.844V466.289C42.2461 467.219 42.1133 468.07 41.8477 468.844C41.582 469.617 41.2031 470.289 40.7109 470.86C40.2188 471.422 39.6289 471.86 38.9414 472.172C38.2617 472.485 37.5039 472.641 36.668 472.641C35.8242 472.641 35.0586 472.485 34.3711 472.172C33.6914 471.86 33.1016 471.422 32.6016 470.86C32.1094 470.289 31.7266 469.617 31.4531 468.844C31.1875 468.07 31.0547 467.219 31.0547 466.289ZM31.9922 465.844V466.289C31.9922 467.024 32.0938 467.723 32.2969 468.387C32.5078 469.043 32.8125 469.629 33.2109 470.145C33.6094 470.652 34.0977 471.055 34.6758 471.352C35.2539 471.641 35.918 471.785 36.668 471.785C37.4023 471.785 38.0586 471.641 38.6367 471.352C39.2148 471.055 39.6992 470.652 40.0898 470.145C40.4883 469.629 40.7891 469.043 40.9922 468.387C41.2031 467.723 41.3086 467.024 41.3086 466.289V465.844C41.3086 465.125 41.2031 464.438 40.9922 463.781C40.7891 463.125 40.4883 462.539 40.0898 462.024C39.6914 461.508 39.2031 461.102 38.625 460.805C38.0469 460.5 37.3867 460.348 36.6445 460.348C35.9023 460.348 35.2422 460.5 34.6641 460.805C34.0938 461.102 33.6055 461.508 33.1992 462.024C32.8008 462.539 32.5 463.125 32.2969 463.781C32.0938 464.438 31.9922 465.125 31.9922 465.844Z" fill="#777777"/>
<rect x="170.696" y="362.858" width="19" height="19" transform="rotate(-55 170.696 362.858)" fill="white" stroke="#999999"/>
<line x1="87.6808" y1="513.833" x2="489.184" y2="-59.5736" stroke="#0057FF" stroke-width="2"/>
<path d="M437.874 30.9064V44.4064H436.239V30.9064H437.874ZM443.684 34.8966L439.535 39.3351L437.215 41.7433L437.083 40.0119L438.744 38.0255L441.697 34.8966H443.684ZM442.198 44.4064L438.806 39.8712L439.649 38.4211L444.114 44.4064H442.198Z" fill="#0057FF"/>
<line x1="-19.4264" y1="229.587" x2="390.15" y2="516.375" stroke="#FF0000" stroke-width="2"/>
<path d="M348.006 460.906V474.406H346.371V460.906H348.006Z" fill="#FF0000"/>
<circle cx="242" cy="293.406" r="5" fill="#FF0000"/>
<path d="M258.205 294.388H254.786V293.008H258.205C258.867 293.008 259.403 292.902 259.813 292.692C260.224 292.481 260.522 292.188 260.71 291.813C260.903 291.438 261 291.01 261 290.529C261 290.09 260.903 289.677 260.71 289.29C260.522 288.903 260.224 288.593 259.813 288.359C259.403 288.118 258.867 287.998 258.205 287.998H255.182V299.406H253.485V286.61H258.205C259.172 286.61 259.989 286.777 260.657 287.111C261.325 287.444 261.832 287.907 262.178 288.499C262.523 289.085 262.696 289.756 262.696 290.512C262.696 291.332 262.523 292.032 262.178 292.612C261.832 293.193 261.325 293.635 260.657 293.94C259.989 294.238 259.172 294.388 258.205 294.388Z" fill="#FF0000"/>
<circle cx="186" cy="373.406" r="5" fill="#0057FF"/>
<path d="M207.051 374.939L210.303 377.514L209.16 378.569L205.961 376.028L207.051 374.939ZM210.259 369.604V370.412C210.259 371.373 210.139 372.235 209.898 372.996C209.658 373.758 209.312 374.405 208.861 374.939C208.41 375.472 207.868 375.879 207.235 376.16C206.608 376.442 205.905 376.582 205.126 376.582C204.37 376.582 203.676 376.442 203.043 376.16C202.416 375.879 201.871 375.472 201.408 374.939C200.951 374.405 200.597 373.758 200.345 372.996C200.093 372.235 199.967 371.373 199.967 370.412V369.604C199.967 368.643 200.09 367.784 200.336 367.028C200.588 366.267 200.942 365.619 201.399 365.086C201.856 364.547 202.398 364.137 203.025 363.856C203.658 363.574 204.353 363.434 205.108 363.434C205.888 363.434 206.594 363.574 207.227 363.856C207.859 364.137 208.401 364.547 208.853 365.086C209.304 365.619 209.649 366.267 209.89 367.028C210.136 367.784 210.259 368.643 210.259 369.604ZM208.58 370.412V369.586C208.58 368.824 208.501 368.151 208.343 367.565C208.19 366.979 207.965 366.486 207.666 366.088C207.367 365.69 207.004 365.388 206.576 365.183C206.148 364.978 205.659 364.875 205.108 364.875C204.587 364.875 204.112 364.978 203.685 365.183C203.263 365.388 202.899 365.69 202.595 366.088C202.29 366.486 202.056 366.979 201.892 367.565C201.728 368.151 201.646 368.824 201.646 369.586V370.412C201.646 371.18 201.728 371.86 201.892 372.451C202.056 373.037 202.29 373.532 202.595 373.937C202.905 374.335 203.274 374.637 203.702 374.842C204.13 375.047 204.604 375.15 205.126 375.15C205.677 375.15 206.166 375.047 206.594 374.842C207.021 374.637 207.382 374.335 207.675 373.937C207.974 373.532 208.199 373.037 208.352 372.451C208.504 371.86 208.58 371.18 208.58 370.412Z" fill="#0057FF"/>
</g>
<defs>
<clipPath id="clip0_0_1">
<rect width="500" height="500" fill="white"/>
</clipPath>
</defs>
</svg>
