<svg width="500" height="360" viewBox="0 0 500 360" fill="none" xmlns="http://www.w3.org/2000/svg">
<rect width="500" height="360" fill="white"/>
<rect x="199.5" y="291" width="18" height="18" stroke="#BBBBBB" stroke-width="2"/>
<line x1="49.134" y1="309.5" x2="199.134" y2="49.6924" stroke="black" stroke-width="2"/>
<line x1="449.279" y1="308.693" x2="199.048" y2="48.2608" stroke="black" stroke-width="2"/>
<line x1="50" y1="309" x2="450" y2="309" stroke="black" stroke-width="2"/>
<line x1="199.5" y1="308.048" x2="199.5" y2="50.9523" stroke="black" stroke-width="2"/>
<path d="M111.174 185.057V179.598C111.174 179.044 111.057 178.569 110.822 178.172C110.588 177.775 110.246 177.472 109.797 177.264C109.348 177.049 108.798 176.941 108.146 176.941C107.541 176.941 106.997 177.049 106.516 177.264C106.04 177.472 105.666 177.758 105.393 178.123C105.119 178.488 104.982 178.895 104.982 179.344L104.201 179.334C104.201 178.93 104.296 178.543 104.484 178.172C104.68 177.801 104.953 177.472 105.305 177.186C105.663 176.893 106.083 176.661 106.564 176.492C107.053 176.323 107.587 176.238 108.166 176.238C108.908 176.238 109.562 176.365 110.129 176.619C110.702 176.867 111.148 177.241 111.467 177.742C111.786 178.243 111.945 178.868 111.945 179.617V184.832C111.945 185.21 111.971 185.59 112.023 185.975C112.076 186.359 112.147 186.668 112.238 186.902V187H111.389C111.317 186.753 111.262 186.45 111.223 186.092C111.19 185.734 111.174 185.389 111.174 185.057ZM111.428 181.004L111.447 181.678H108.869C108.218 181.678 107.635 181.74 107.121 181.863C106.607 181.987 106.171 182.163 105.812 182.391C105.454 182.618 105.181 182.889 104.992 183.201C104.803 183.514 104.709 183.865 104.709 184.256C104.709 184.66 104.816 185.031 105.031 185.369C105.246 185.708 105.549 185.978 105.939 186.18C106.33 186.375 106.783 186.473 107.297 186.473C108 186.473 108.622 186.352 109.162 186.111C109.709 185.864 110.168 185.532 110.539 185.115C110.91 184.692 111.18 184.204 111.35 183.65L111.691 184.217C111.581 184.562 111.408 184.91 111.174 185.262C110.939 185.613 110.637 185.936 110.266 186.229C109.895 186.515 109.458 186.749 108.957 186.932C108.456 187.107 107.886 187.195 107.248 187.195C106.577 187.195 105.992 187.072 105.49 186.824C104.995 186.57 104.611 186.225 104.338 185.789C104.064 185.346 103.928 184.842 103.928 184.275C103.928 183.787 104.038 183.341 104.26 182.938C104.481 182.534 104.8 182.189 105.217 181.902C105.64 181.609 106.151 181.388 106.75 181.238C107.355 181.082 108.036 181.004 108.791 181.004H111.428Z" fill="black"/>
<path d="M207.393 172V187H206.621V172H207.393ZM207.246 180.906L206.865 180.457C206.924 179.897 207.061 179.363 207.275 178.855C207.497 178.348 207.786 177.898 208.145 177.508C208.509 177.117 208.932 176.808 209.414 176.58C209.902 176.352 210.439 176.238 211.025 176.238C211.553 176.238 212.025 176.313 212.441 176.463C212.858 176.606 213.21 176.834 213.496 177.146C213.789 177.459 214.01 177.863 214.16 178.357C214.31 178.846 214.385 179.441 214.385 180.145V187H213.613V180.145C213.613 179.311 213.499 178.667 213.271 178.211C213.044 177.749 212.725 177.423 212.314 177.234C211.911 177.046 211.439 176.951 210.898 176.951C210.273 176.951 209.733 177.091 209.277 177.371C208.828 177.645 208.457 177.993 208.164 178.416C207.871 178.833 207.646 179.266 207.49 179.715C207.34 180.164 207.259 180.561 207.246 180.906Z" fill="black"/>
<path d="M120.602 315H121.383V327.949L121.354 330H120.602V315ZM128.863 324.609V324.814C128.863 325.615 128.772 326.344 128.59 327.002C128.414 327.66 128.154 328.226 127.809 328.701C127.47 329.176 127.053 329.544 126.559 329.805C126.064 330.065 125.501 330.195 124.869 330.195C124.264 330.195 123.72 330.104 123.238 329.922C122.763 329.74 122.353 329.489 122.008 329.17C121.663 328.844 121.383 328.47 121.168 328.047C120.96 327.617 120.813 327.158 120.729 326.67V323.027C120.839 322.474 121.005 321.969 121.227 321.514C121.448 321.051 121.728 320.651 122.066 320.312C122.405 319.967 122.805 319.704 123.268 319.521C123.736 319.333 124.264 319.238 124.85 319.238C125.488 319.238 126.054 319.365 126.549 319.619C127.05 319.867 127.47 320.225 127.809 320.693C128.154 321.156 128.414 321.719 128.59 322.383C128.772 323.04 128.863 323.783 128.863 324.609ZM128.072 324.814V324.609C128.072 323.945 128.007 323.33 127.877 322.764C127.747 322.197 127.545 321.706 127.271 321.289C127.005 320.872 126.663 320.547 126.246 320.312C125.829 320.078 125.338 319.961 124.771 319.961C124.146 319.961 123.619 320.065 123.189 320.273C122.766 320.475 122.418 320.739 122.145 321.064C121.878 321.39 121.666 321.742 121.51 322.119C121.36 322.49 121.249 322.842 121.178 323.174V326.621C121.295 327.135 121.5 327.611 121.793 328.047C122.092 328.477 122.49 328.822 122.984 329.082C123.486 329.342 124.088 329.473 124.791 329.473C125.351 329.473 125.836 329.355 126.246 329.121C126.663 328.887 127.005 328.561 127.271 328.145C127.538 327.728 127.737 327.236 127.867 326.67C128.004 326.104 128.072 325.485 128.072 324.814ZM134.082 325.434V334H133.385V326.318L131.064 327.18V326.518L133.965 325.434H134.082Z" fill="black"/>
<path d="M308.602 315H309.383V327.949L309.354 330H308.602V315ZM316.863 324.609V324.814C316.863 325.615 316.772 326.344 316.59 327.002C316.414 327.66 316.154 328.226 315.809 328.701C315.47 329.176 315.053 329.544 314.559 329.805C314.064 330.065 313.501 330.195 312.869 330.195C312.264 330.195 311.72 330.104 311.238 329.922C310.763 329.74 310.353 329.489 310.008 329.17C309.663 328.844 309.383 328.47 309.168 328.047C308.96 327.617 308.813 327.158 308.729 326.67V323.027C308.839 322.474 309.005 321.969 309.227 321.514C309.448 321.051 309.728 320.651 310.066 320.312C310.405 319.967 310.805 319.704 311.268 319.521C311.736 319.333 312.264 319.238 312.85 319.238C313.488 319.238 314.054 319.365 314.549 319.619C315.05 319.867 315.47 320.225 315.809 320.693C316.154 321.156 316.414 321.719 316.59 322.383C316.772 323.04 316.863 323.783 316.863 324.609ZM316.072 324.814V324.609C316.072 323.945 316.007 323.33 315.877 322.764C315.747 322.197 315.545 321.706 315.271 321.289C315.005 320.872 314.663 320.547 314.246 320.312C313.829 320.078 313.338 319.961 312.771 319.961C312.146 319.961 311.619 320.065 311.189 320.273C310.766 320.475 310.418 320.739 310.145 321.064C309.878 321.39 309.666 321.742 309.51 322.119C309.36 322.49 309.249 322.842 309.178 323.174V326.621C309.295 327.135 309.5 327.611 309.793 328.047C310.092 328.477 310.49 328.822 310.984 329.082C311.486 329.342 312.088 329.473 312.791 329.473C313.351 329.473 313.836 329.355 314.246 329.121C314.663 328.887 315.005 328.561 315.271 328.145C315.538 327.728 315.737 327.236 315.867 326.67C316.004 326.104 316.072 325.485 316.072 324.814ZM324.162 333.396V334H318.824V333.455L321.619 330.285C321.967 329.891 322.244 329.545 322.451 329.248C322.658 328.947 322.807 328.674 322.896 328.428C322.99 328.178 323.037 327.936 323.037 327.701C323.037 327.357 322.969 327.055 322.832 326.793C322.699 326.531 322.5 326.326 322.234 326.178C321.969 326.029 321.641 325.955 321.25 325.955C320.859 325.955 320.52 326.039 320.23 326.207C319.941 326.375 319.719 326.609 319.562 326.91C319.41 327.207 319.334 327.545 319.334 327.924H318.637C318.637 327.455 318.74 327.025 318.947 326.635C319.158 326.244 319.459 325.934 319.85 325.703C320.24 325.469 320.707 325.352 321.25 325.352C321.766 325.352 322.209 325.443 322.58 325.627C322.951 325.807 323.236 326.066 323.436 326.406C323.639 326.746 323.74 327.156 323.74 327.637C323.74 327.895 323.693 328.154 323.6 328.416C323.51 328.678 323.385 328.939 323.225 329.201C323.068 329.459 322.889 329.715 322.686 329.969C322.486 330.223 322.277 330.473 322.059 330.719L319.68 333.396H324.162Z" fill="black"/>
<path d="M345.332 186.482C345.859 186.482 346.357 186.385 346.826 186.189C347.301 185.994 347.695 185.698 348.008 185.301C348.327 184.897 348.506 184.386 348.545 183.768H349.307C349.274 184.471 349.072 185.079 348.701 185.594C348.33 186.102 347.852 186.495 347.266 186.775C346.68 187.055 346.035 187.195 345.332 187.195C344.629 187.195 344.001 187.065 343.447 186.805C342.9 186.544 342.441 186.176 342.07 185.701C341.699 185.226 341.416 184.669 341.221 184.031C341.032 183.387 340.938 182.684 340.938 181.922V181.512C340.938 180.75 341.032 180.05 341.221 179.412C341.416 178.768 341.699 178.208 342.07 177.732C342.441 177.257 342.897 176.889 343.438 176.629C343.984 176.368 344.609 176.238 345.312 176.238C346.022 176.238 346.673 176.385 347.266 176.678C347.858 176.964 348.337 177.384 348.701 177.938C349.072 178.484 349.274 179.155 349.307 179.949H348.545C348.512 179.298 348.346 178.751 348.047 178.309C347.747 177.866 347.357 177.531 346.875 177.303C346.393 177.068 345.872 176.951 345.312 176.951C344.688 176.951 344.147 177.072 343.691 177.312C343.236 177.553 342.861 177.885 342.568 178.309C342.275 178.725 342.061 179.21 341.924 179.764C341.787 180.311 341.719 180.893 341.719 181.512V181.922C341.719 182.547 341.787 183.136 341.924 183.689C342.061 184.236 342.275 184.718 342.568 185.135C342.861 185.551 343.236 185.88 343.691 186.121C344.154 186.362 344.701 186.482 345.332 186.482Z" fill="black"/>
</svg>
