<svg width="500" height="360" viewBox="0 0 500 360" fill="none" xmlns="http://www.w3.org/2000/svg">
<rect width="500" height="360" fill="white"/>
<line x1="49.134" y1="309.5" x2="199.134" y2="49.6924" stroke="black" stroke-width="2"/>
<line x1="449.279" y1="308.693" x2="199.048" y2="48.2608" stroke="black" stroke-width="2"/>
<line x1="50" y1="309" x2="450" y2="309" stroke="black" stroke-width="2"/>
<path d="M111.174 185.057V179.598C111.174 179.044 111.057 178.569 110.822 178.172C110.588 177.775 110.246 177.472 109.797 177.264C109.348 177.049 108.798 176.941 108.146 176.941C107.541 176.941 106.997 177.049 106.516 177.264C106.04 177.472 105.666 177.758 105.393 178.123C105.119 178.488 104.982 178.895 104.982 179.344L104.201 179.334C104.201 178.93 104.296 178.543 104.484 178.172C104.68 177.801 104.953 177.472 105.305 177.186C105.663 176.893 106.083 176.661 106.564 176.492C107.053 176.323 107.587 176.238 108.166 176.238C108.908 176.238 109.562 176.365 110.129 176.619C110.702 176.867 111.148 177.241 111.467 177.742C111.786 178.243 111.945 178.868 111.945 179.617V184.832C111.945 185.21 111.971 185.59 112.023 185.975C112.076 186.359 112.147 186.668 112.238 186.902V187H111.389C111.317 186.753 111.262 186.45 111.223 186.092C111.19 185.734 111.174 185.389 111.174 185.057ZM111.428 181.004L111.447 181.678H108.869C108.218 181.678 107.635 181.74 107.121 181.863C106.607 181.987 106.171 182.163 105.812 182.391C105.454 182.618 105.181 182.889 104.992 183.201C104.803 183.514 104.709 183.865 104.709 184.256C104.709 184.66 104.816 185.031 105.031 185.369C105.246 185.708 105.549 185.978 105.939 186.18C106.33 186.375 106.783 186.473 107.297 186.473C108 186.473 108.622 186.352 109.162 186.111C109.709 185.864 110.168 185.532 110.539 185.115C110.91 184.692 111.18 184.204 111.35 183.65L111.691 184.217C111.581 184.562 111.408 184.91 111.174 185.262C110.939 185.613 110.637 185.936 110.266 186.229C109.895 186.515 109.458 186.749 108.957 186.932C108.456 187.107 107.886 187.195 107.248 187.195C106.577 187.195 105.992 187.072 105.49 186.824C104.995 186.57 104.611 186.225 104.338 185.789C104.064 185.346 103.928 184.842 103.928 184.275C103.928 183.787 104.038 183.341 104.26 182.938C104.481 182.534 104.8 182.189 105.217 181.902C105.64 181.609 106.151 181.388 106.75 181.238C107.355 181.082 108.036 181.004 108.791 181.004H111.428Z" fill="black"/>
<path d="M246.602 315H247.383V327.949L247.354 330H246.602V315ZM254.863 324.609V324.814C254.863 325.615 254.772 326.344 254.59 327.002C254.414 327.66 254.154 328.226 253.809 328.701C253.47 329.176 253.053 329.544 252.559 329.805C252.064 330.065 251.501 330.195 250.869 330.195C250.264 330.195 249.72 330.104 249.238 329.922C248.763 329.74 248.353 329.489 248.008 329.17C247.663 328.844 247.383 328.47 247.168 328.047C246.96 327.617 246.813 327.158 246.729 326.67V323.027C246.839 322.474 247.005 321.969 247.227 321.514C247.448 321.051 247.728 320.651 248.066 320.312C248.405 319.967 248.805 319.704 249.268 319.521C249.736 319.333 250.264 319.238 250.85 319.238C251.488 319.238 252.054 319.365 252.549 319.619C253.05 319.867 253.47 320.225 253.809 320.693C254.154 321.156 254.414 321.719 254.59 322.383C254.772 323.04 254.863 323.783 254.863 324.609ZM254.072 324.814V324.609C254.072 323.945 254.007 323.33 253.877 322.764C253.747 322.197 253.545 321.706 253.271 321.289C253.005 320.872 252.663 320.547 252.246 320.312C251.829 320.078 251.338 319.961 250.771 319.961C250.146 319.961 249.619 320.065 249.189 320.273C248.766 320.475 248.418 320.739 248.145 321.064C247.878 321.39 247.666 321.742 247.51 322.119C247.36 322.49 247.249 322.842 247.178 323.174V326.621C247.295 327.135 247.5 327.611 247.793 328.047C248.092 328.477 248.49 328.822 248.984 329.082C249.486 329.342 250.088 329.473 250.791 329.473C251.351 329.473 251.836 329.355 252.246 329.121C252.663 328.887 253.005 328.561 253.271 328.145C253.538 327.728 253.737 327.236 253.867 326.67C254.004 326.104 254.072 325.485 254.072 324.814Z" fill="black"/>
<path d="M345.332 186.482C345.859 186.482 346.357 186.385 346.826 186.189C347.301 185.994 347.695 185.698 348.008 185.301C348.327 184.897 348.506 184.386 348.545 183.768H349.307C349.274 184.471 349.072 185.079 348.701 185.594C348.33 186.102 347.852 186.495 347.266 186.775C346.68 187.055 346.035 187.195 345.332 187.195C344.629 187.195 344.001 187.065 343.447 186.805C342.9 186.544 342.441 186.176 342.07 185.701C341.699 185.226 341.416 184.669 341.221 184.031C341.032 183.387 340.938 182.684 340.938 181.922V181.512C340.938 180.75 341.032 180.05 341.221 179.412C341.416 178.768 341.699 178.208 342.07 177.732C342.441 177.257 342.897 176.889 343.438 176.629C343.984 176.368 344.609 176.238 345.312 176.238C346.022 176.238 346.673 176.385 347.266 176.678C347.858 176.964 348.337 177.384 348.701 177.938C349.072 178.484 349.274 179.155 349.307 179.949H348.545C348.512 179.298 348.346 178.751 348.047 178.309C347.747 177.866 347.357 177.531 346.875 177.303C346.393 177.068 345.872 176.951 345.312 176.951C344.688 176.951 344.147 177.072 343.691 177.312C343.236 177.553 342.861 177.885 342.568 178.309C342.275 178.725 342.061 179.21 341.924 179.764C341.787 180.311 341.719 180.893 341.719 181.512V181.922C341.719 182.547 341.787 183.136 341.924 183.689C342.061 184.236 342.275 184.718 342.568 185.135C342.861 185.551 343.236 185.88 343.691 186.121C344.154 186.362 344.701 186.482 345.332 186.482Z" fill="black"/>
</svg>
