<svg width="500" height="500" viewBox="0 0 500 500" fill="none" xmlns="http://www.w3.org/2000/svg">
<rect width="500" height="500" fill="#F5F5F5"/>
<g clip-path="url(#clip0_0_1)">
<rect width="500" height="500" fill="white"/>
<path d="M396.892 248.815L448.854 218.815" stroke="#BBBBBB" stroke-width="2" stroke-dasharray="4 4"/>
<rect x="378" y="431" width="18" height="18" stroke="#BBBBBB" stroke-width="2"/>
<rect x="431" y="431" width="18" height="18" stroke="#BBBBBB" stroke-width="2"/>
<line x1="51" x2="51" y2="500" stroke="#BBBBBB" stroke-width="2"/>
<line y1="449" x2="500" y2="449" stroke="#BBBBBB" stroke-width="2"/>
<circle cx="50" cy="450" r="399" stroke="black" stroke-width="2"/>
<line x1="50.5" y1="449.134" x2="396.044" y2="249.634" stroke="black" stroke-width="2"/>
<line x1="396" y1="251" x2="396" y2="450" stroke="black" stroke-width="2"/>
<line x1="449" y1="450" x2="449" y2="218" stroke="black" stroke-width="2"/>
<path d="M224.572 323.732V338H223.791V324.738L219.797 326.232V325.451L224.426 323.732H224.572Z" fill="black"/>
<path d="M48.1289 459.943V461.838C48.1289 462.788 48.002 463.654 47.748 464.436C47.5007 465.217 47.1393 465.887 46.6641 466.447C46.1888 467.007 45.6191 467.44 44.9551 467.746C44.291 468.046 43.5423 468.195 42.709 468.195C41.8952 468.195 41.153 468.046 40.4824 467.746C39.8118 467.44 39.2357 467.007 38.7539 466.447C38.2786 465.887 37.9108 465.217 37.6504 464.436C37.3965 463.654 37.2695 462.788 37.2695 461.838V459.943C37.2695 458.986 37.3965 458.12 37.6504 457.346C37.9108 456.564 38.2786 455.894 38.7539 455.334C39.2292 454.774 39.7988 454.344 40.4629 454.045C41.1335 453.739 41.8757 453.586 42.6895 453.586C43.5228 453.586 44.2715 453.739 44.9355 454.045C45.5996 454.344 46.1693 454.774 46.6445 455.334C47.1263 455.894 47.4941 456.564 47.748 457.346C48.002 458.12 48.1289 458.986 48.1289 459.943ZM47.3477 461.838V459.924C47.3477 459.09 47.2435 458.332 47.0352 457.648C46.8268 456.958 46.5208 456.366 46.1172 455.871C45.7201 455.376 45.235 454.995 44.6621 454.729C44.0892 454.455 43.4316 454.318 42.6895 454.318C41.9668 454.318 41.319 454.455 40.7461 454.729C40.1732 454.995 39.6882 455.376 39.291 455.871C38.8939 456.366 38.5911 456.958 38.3828 457.648C38.1745 458.332 38.0703 459.09 38.0703 459.924V461.838C38.0703 462.678 38.1745 463.443 38.3828 464.133C38.5977 464.823 38.9036 465.415 39.3008 465.91C39.6979 466.405 40.1829 466.789 40.7559 467.062C41.3353 467.329 41.9863 467.463 42.709 467.463C43.4512 467.463 44.1087 467.329 44.6816 467.062C45.2546 466.789 45.7396 466.405 46.1367 465.91C46.5339 465.415 46.8333 464.823 47.0352 464.133C47.2435 463.443 47.3477 462.678 47.3477 461.838Z" fill="black"/>
<path d="M396.211 454.387L391.152 468H390.312L395.654 453.781H396.309L396.211 454.387ZM400.996 468L395.947 454.387L395.85 453.781H396.494L401.846 468H400.996ZM399.746 463.127V463.859H392.451V463.127H399.746Z" fill="black"/>
<path d="M398.699 233.047H394.441L394.422 232.334H397.986C398.781 232.334 399.451 232.227 399.998 232.012C400.545 231.797 400.958 231.475 401.238 231.045C401.518 230.609 401.658 230.065 401.658 229.414C401.658 228.763 401.515 228.223 401.229 227.793C400.942 227.363 400.512 227.041 399.939 226.826C399.373 226.611 398.663 226.504 397.811 226.504H394.686V240H393.895V225.781H397.811C398.533 225.781 399.181 225.853 399.754 225.996C400.327 226.139 400.812 226.364 401.209 226.67C401.613 226.969 401.922 227.35 402.137 227.812C402.352 228.275 402.459 228.822 402.459 229.453C402.459 230.039 402.342 230.566 402.107 231.035C401.873 231.504 401.535 231.888 401.092 232.188C400.656 232.48 400.122 232.66 399.49 232.725L398.699 233.047ZM398.602 240H394.275L394.617 239.277H398.602C399.363 239.277 400.014 239.15 400.555 238.896C401.102 238.636 401.521 238.268 401.814 237.793C402.114 237.311 402.264 236.735 402.264 236.064C402.264 235.524 402.133 235.026 401.873 234.57C401.613 234.108 401.219 233.74 400.691 233.467C400.164 233.187 399.5 233.047 398.699 233.047H396.316L396.336 232.334H399.764L399.871 232.588C400.49 232.66 401.036 232.858 401.512 233.184C401.993 233.509 402.371 233.923 402.645 234.424C402.918 234.919 403.055 235.459 403.055 236.045C403.055 236.898 402.866 237.617 402.488 238.203C402.111 238.789 401.587 239.235 400.916 239.541C400.252 239.847 399.48 240 398.602 240Z" fill="black"/>
<path d="M487.631 456.434L490.805 460.955L493.969 456.434H494.916L491.254 461.59L495.102 467H494.164L490.805 462.234L487.445 467H486.508L490.346 461.59L486.693 456.434H487.631Z" fill="black"/>
<path d="M60.8535 17.9648L64.3691 8.43359H65.2188L60.6094 20.7285C60.5247 20.9629 60.4173 21.2233 60.2871 21.5098C60.1569 21.8027 59.9876 22.0827 59.7793 22.3496C59.571 22.6165 59.3008 22.8346 58.9688 23.0039C58.6432 23.1797 58.2396 23.2676 57.7578 23.2676C57.6471 23.2676 57.5007 23.2546 57.3184 23.2285C57.1426 23.209 57.0124 23.1829 56.9277 23.1504L56.918 22.4668C57.0091 22.4863 57.1296 22.5026 57.2793 22.5156C57.429 22.5352 57.5332 22.5449 57.5918 22.5449C58.0215 22.5449 58.3796 22.4603 58.666 22.291C58.959 22.1283 59.2031 21.8939 59.3984 21.5879C59.5938 21.2884 59.7663 20.9336 59.916 20.5234L60.8535 17.9648ZM57.2305 8.43359L60.9805 18.0332L61.2051 18.834L60.6094 19.2051L56.3809 8.43359H57.2305Z" fill="black"/>
<path d="M443.928 461.615H444.719C444.621 462.611 444.354 463.451 443.918 464.135C443.482 464.812 442.896 465.326 442.16 465.678C441.431 466.023 440.572 466.195 439.582 466.195C438.794 466.195 438.078 466.046 437.434 465.746C436.796 465.44 436.245 465.01 435.783 464.457C435.327 463.897 434.976 463.23 434.729 462.455C434.481 461.68 434.357 460.824 434.357 459.887V457.895C434.357 456.951 434.481 456.094 434.729 455.326C434.976 454.551 435.327 453.887 435.783 453.334C436.245 452.774 436.799 452.344 437.443 452.045C438.094 451.739 438.82 451.586 439.621 451.586C440.591 451.586 441.441 451.758 442.17 452.104C442.899 452.449 443.482 452.963 443.918 453.646C444.354 454.324 444.621 455.16 444.719 456.156H443.928C443.83 455.329 443.605 454.633 443.254 454.066C442.909 453.493 442.434 453.057 441.828 452.758C441.223 452.458 440.487 452.309 439.621 452.309C438.938 452.309 438.322 452.442 437.775 452.709C437.229 452.969 436.76 453.347 436.369 453.842C435.979 454.33 435.676 454.916 435.461 455.6C435.253 456.277 435.148 457.035 435.148 457.875V459.887C435.148 460.714 435.253 461.472 435.461 462.162C435.669 462.846 435.965 463.435 436.35 463.93C436.734 464.418 437.199 464.799 437.746 465.072C438.293 465.339 438.905 465.473 439.582 465.473C440.448 465.473 441.187 465.336 441.799 465.062C442.411 464.783 442.893 464.356 443.244 463.783C443.602 463.21 443.83 462.488 443.928 461.615Z" fill="black"/>
<path d="M451.811 214H448.441L448.461 213.277H451.811C452.833 213.277 453.731 213.04 454.506 212.564C455.287 212.089 455.899 211.432 456.342 210.592C456.785 209.745 457.006 208.772 457.006 207.672V206.08C457.006 205.26 456.879 204.508 456.625 203.824C456.371 203.141 456.013 202.551 455.551 202.057C455.095 201.562 454.551 201.181 453.92 200.914C453.288 200.641 452.598 200.504 451.85 200.504H448.383V199.781H451.85C452.702 199.781 453.49 199.934 454.213 200.24C454.942 200.54 455.574 200.969 456.107 201.529C456.641 202.083 457.055 202.75 457.348 203.531C457.647 204.306 457.797 205.165 457.797 206.109V207.672C457.797 208.616 457.647 209.479 457.348 210.26C457.055 211.035 456.638 211.702 456.098 212.262C455.564 212.815 454.932 213.245 454.203 213.551C453.48 213.85 452.683 214 451.811 214ZM448.686 199.781V214H447.895V199.781H448.686Z" fill="black"/>
<path d="M99.7422 428.576C100.296 428.576 100.797 428.664 101.246 428.84C101.695 429.016 102.096 429.273 102.447 429.611C102.799 429.943 103.092 430.357 103.326 430.852C103.561 431.346 103.74 431.913 103.863 432.551C103.987 433.182 104.049 433.882 104.049 434.65V437.111C104.049 437.88 103.987 438.583 103.863 439.221C103.746 439.852 103.57 440.415 103.336 440.91C103.102 441.405 102.809 441.825 102.457 442.17C102.112 442.508 101.715 442.766 101.266 442.941C100.816 443.111 100.315 443.195 99.7617 443.195C99.2148 443.195 98.7168 443.111 98.2676 442.941C97.8184 442.766 97.418 442.508 97.0664 442.17C96.7214 441.825 96.4284 441.405 96.1875 440.91C95.9466 440.415 95.7643 439.852 95.6406 439.221C95.5169 438.583 95.4551 437.88 95.4551 437.111V434.65C95.4551 433.882 95.5169 433.182 95.6406 432.551C95.7643 431.913 95.9434 431.346 96.1777 430.852C96.4121 430.357 96.7018 429.943 97.0469 429.611C97.3984 429.273 97.7988 429.016 98.248 428.84C98.6973 428.664 99.1953 428.576 99.7422 428.576ZM99.7422 429.289C99.1562 429.289 98.6419 429.416 98.1992 429.67C97.7565 429.917 97.3887 430.275 97.0957 430.744C96.8092 431.213 96.5911 431.773 96.4414 432.424C96.2982 433.075 96.2266 433.798 96.2266 434.592V435.588H103.277V434.592C103.277 433.954 103.229 433.361 103.131 432.814C103.04 432.268 102.9 431.779 102.711 431.35C102.529 430.913 102.294 430.542 102.008 430.236C101.728 429.93 101.399 429.696 101.021 429.533C100.644 429.37 100.217 429.289 99.7422 429.289ZM99.7617 442.482C100.237 442.482 100.663 442.401 101.041 442.238C101.419 442.069 101.747 441.828 102.027 441.516C102.307 441.203 102.538 440.829 102.721 440.393C102.903 439.95 103.04 439.458 103.131 438.918C103.229 438.371 103.277 437.782 103.277 437.15V436.301H96.2266V437.15C96.2266 437.782 96.2721 438.371 96.3633 438.918C96.4609 439.458 96.6042 439.95 96.793 440.393C96.9818 440.829 97.2161 441.203 97.4961 441.516C97.7826 441.822 98.1146 442.059 98.4922 442.229C98.8698 442.398 99.293 442.482 99.7617 442.482Z" fill="black"/>
<path d="M218.332 467.482C218.859 467.482 219.357 467.385 219.826 467.189C220.301 466.994 220.695 466.698 221.008 466.301C221.327 465.897 221.506 465.386 221.545 464.768H222.307C222.274 465.471 222.072 466.079 221.701 466.594C221.33 467.102 220.852 467.495 220.266 467.775C219.68 468.055 219.035 468.195 218.332 468.195C217.629 468.195 217.001 468.065 216.447 467.805C215.9 467.544 215.441 467.176 215.07 466.701C214.699 466.226 214.416 465.669 214.221 465.031C214.032 464.387 213.938 463.684 213.938 462.922V462.512C213.938 461.75 214.032 461.05 214.221 460.412C214.416 459.768 214.699 459.208 215.07 458.732C215.441 458.257 215.897 457.889 216.438 457.629C216.984 457.368 217.609 457.238 218.312 457.238C219.022 457.238 219.673 457.385 220.266 457.678C220.858 457.964 221.337 458.384 221.701 458.938C222.072 459.484 222.274 460.155 222.307 460.949H221.545C221.512 460.298 221.346 459.751 221.047 459.309C220.747 458.866 220.357 458.531 219.875 458.303C219.393 458.068 218.872 457.951 218.312 457.951C217.688 457.951 217.147 458.072 216.691 458.312C216.236 458.553 215.861 458.885 215.568 459.309C215.275 459.725 215.061 460.21 214.924 460.764C214.787 461.311 214.719 461.893 214.719 462.512V462.922C214.719 463.547 214.787 464.136 214.924 464.689C215.061 465.236 215.275 465.718 215.568 466.135C215.861 466.551 216.236 466.88 216.691 467.121C217.154 467.362 217.701 467.482 218.332 467.482ZM224.094 462.902V462.531C224.094 461.757 224.204 461.047 224.426 460.402C224.654 459.758 224.973 459.201 225.383 458.732C225.793 458.257 226.281 457.889 226.848 457.629C227.421 457.368 228.055 457.238 228.752 457.238C229.449 457.238 230.083 457.368 230.656 457.629C231.229 457.889 231.721 458.257 232.131 458.732C232.548 459.201 232.867 459.758 233.088 460.402C233.309 461.047 233.42 461.757 233.42 462.531V462.902C233.42 463.677 233.309 464.387 233.088 465.031C232.867 465.676 232.551 466.236 232.141 466.711C231.73 467.18 231.239 467.544 230.666 467.805C230.1 468.065 229.468 468.195 228.771 468.195C228.068 468.195 227.43 468.065 226.857 467.805C226.291 467.544 225.799 467.18 225.383 466.711C224.973 466.236 224.654 465.676 224.426 465.031C224.204 464.387 224.094 463.677 224.094 462.902ZM224.875 462.531V462.902C224.875 463.514 224.96 464.097 225.129 464.65C225.305 465.197 225.559 465.686 225.891 466.115C226.223 466.538 226.63 466.874 227.111 467.121C227.593 467.362 228.146 467.482 228.771 467.482C229.383 467.482 229.93 467.362 230.412 467.121C230.894 466.874 231.298 466.538 231.623 466.115C231.955 465.686 232.206 465.197 232.375 464.65C232.551 464.097 232.639 463.514 232.639 462.902V462.531C232.639 461.932 232.551 461.359 232.375 460.812C232.206 460.266 231.955 459.777 231.623 459.348C231.291 458.918 230.884 458.579 230.402 458.332C229.921 458.078 229.37 457.951 228.752 457.951C228.133 457.951 227.583 458.078 227.102 458.332C226.626 458.579 226.219 458.918 225.881 459.348C225.549 459.777 225.298 460.266 225.129 460.812C224.96 461.359 224.875 461.932 224.875 462.531ZM242.375 465.373C242.375 465.061 242.29 464.751 242.121 464.445C241.958 464.139 241.656 463.853 241.213 463.586C240.777 463.319 240.142 463.094 239.309 462.912C238.716 462.782 238.192 462.639 237.736 462.482C237.287 462.326 236.91 462.137 236.604 461.916C236.298 461.688 236.066 461.418 235.91 461.105C235.76 460.793 235.686 460.419 235.686 459.982C235.686 459.605 235.767 459.25 235.93 458.918C236.092 458.586 236.33 458.296 236.643 458.049C236.962 457.795 237.342 457.596 237.785 457.453C238.228 457.31 238.729 457.238 239.289 457.238C240.09 457.238 240.773 457.372 241.34 457.639C241.913 457.899 242.352 458.26 242.658 458.723C242.964 459.178 243.117 459.709 243.117 460.314H242.336C242.336 459.904 242.219 459.52 241.984 459.162C241.75 458.804 241.405 458.514 240.949 458.293C240.5 458.065 239.947 457.951 239.289 457.951C238.625 457.951 238.085 458.052 237.668 458.254C237.251 458.456 236.945 458.713 236.75 459.025C236.561 459.331 236.467 459.644 236.467 459.963C236.467 460.217 236.503 460.454 236.574 460.676C236.652 460.891 236.799 461.089 237.014 461.271C237.229 461.454 237.538 461.63 237.941 461.799C238.345 461.962 238.869 462.115 239.514 462.258C240.36 462.447 241.05 462.678 241.584 462.951C242.118 463.218 242.512 463.547 242.766 463.938C243.02 464.322 243.146 464.794 243.146 465.354C243.146 465.77 243.059 466.154 242.883 466.506C242.707 466.851 242.453 467.15 242.121 467.404C241.796 467.658 241.398 467.854 240.93 467.99C240.461 468.127 239.94 468.195 239.367 468.195C238.501 468.195 237.766 468.059 237.16 467.785C236.561 467.505 236.105 467.137 235.793 466.682C235.487 466.226 235.334 465.734 235.334 465.207H236.115C236.161 465.786 236.35 466.242 236.682 466.574C237.02 466.906 237.43 467.141 237.912 467.277C238.4 467.414 238.885 467.482 239.367 467.482C240.025 467.482 240.575 467.382 241.018 467.18C241.467 466.971 241.805 466.708 242.033 466.389C242.261 466.063 242.375 465.725 242.375 465.373ZM245.744 462.443V462.268C245.744 461.083 245.861 459.953 246.096 458.879C246.337 457.798 246.656 456.809 247.053 455.91C247.45 455.005 247.896 454.227 248.391 453.576C248.885 452.925 249.4 452.437 249.934 452.111L250.158 452.678C249.696 452.997 249.247 453.465 248.811 454.084C248.381 454.702 247.993 455.438 247.648 456.291C247.303 457.137 247.03 458.068 246.828 459.084C246.626 460.093 246.525 461.141 246.525 462.229V462.463C246.525 463.55 246.626 464.602 246.828 465.617C247.03 466.626 247.303 467.557 247.648 468.41C247.993 469.263 248.381 470.002 248.811 470.627C249.247 471.252 249.696 471.724 250.158 472.043L249.934 472.59C249.4 472.264 248.885 471.783 248.391 471.145C247.896 470.513 247.45 469.755 247.053 468.869C246.656 467.99 246.337 467.007 246.096 465.92C245.861 464.833 245.744 463.674 245.744 462.443ZM256.184 453.576C256.737 453.576 257.238 453.664 257.688 453.84C258.137 454.016 258.537 454.273 258.889 454.611C259.24 454.943 259.533 455.357 259.768 455.852C260.002 456.346 260.181 456.913 260.305 457.551C260.428 458.182 260.49 458.882 260.49 459.65V462.111C260.49 462.88 260.428 463.583 260.305 464.221C260.188 464.852 260.012 465.415 259.777 465.91C259.543 466.405 259.25 466.825 258.898 467.17C258.553 467.508 258.156 467.766 257.707 467.941C257.258 468.111 256.757 468.195 256.203 468.195C255.656 468.195 255.158 468.111 254.709 467.941C254.26 467.766 253.859 467.508 253.508 467.17C253.163 466.825 252.87 466.405 252.629 465.91C252.388 465.415 252.206 464.852 252.082 464.221C251.958 463.583 251.896 462.88 251.896 462.111V459.65C251.896 458.882 251.958 458.182 252.082 457.551C252.206 456.913 252.385 456.346 252.619 455.852C252.854 455.357 253.143 454.943 253.488 454.611C253.84 454.273 254.24 454.016 254.689 453.84C255.139 453.664 255.637 453.576 256.184 453.576ZM256.184 454.289C255.598 454.289 255.083 454.416 254.641 454.67C254.198 454.917 253.83 455.275 253.537 455.744C253.251 456.213 253.033 456.773 252.883 457.424C252.74 458.075 252.668 458.798 252.668 459.592V460.588H259.719V459.592C259.719 458.954 259.67 458.361 259.572 457.814C259.481 457.268 259.341 456.779 259.152 456.35C258.97 455.913 258.736 455.542 258.449 455.236C258.169 454.93 257.84 454.696 257.463 454.533C257.085 454.37 256.659 454.289 256.184 454.289ZM256.203 467.482C256.678 467.482 257.105 467.401 257.482 467.238C257.86 467.069 258.189 466.828 258.469 466.516C258.749 466.203 258.98 465.829 259.162 465.393C259.344 464.95 259.481 464.458 259.572 463.918C259.67 463.371 259.719 462.782 259.719 462.15V461.301H252.668V462.15C252.668 462.782 252.714 463.371 252.805 463.918C252.902 464.458 253.046 464.95 253.234 465.393C253.423 465.829 253.658 466.203 253.938 466.516C254.224 466.822 254.556 467.059 254.934 467.229C255.311 467.398 255.734 467.482 256.203 467.482ZM266.652 462.268V462.443C266.652 463.674 266.532 464.833 266.291 465.92C266.057 467.007 265.741 467.99 265.344 468.869C264.947 469.755 264.501 470.513 264.006 471.145C263.511 471.783 262.997 472.264 262.463 472.59L262.238 472.043C262.701 471.724 263.146 471.252 263.576 470.627C264.012 470.008 264.403 469.27 264.748 468.41C265.093 467.557 265.367 466.626 265.568 465.617C265.77 464.602 265.871 463.55 265.871 462.463V462.229C265.871 461.141 265.767 460.093 265.559 459.084C265.357 458.068 265.083 457.134 264.738 456.281C264.393 455.428 264.003 454.693 263.566 454.074C263.137 453.449 262.694 452.98 262.238 452.668L262.463 452.111C262.997 452.437 263.511 452.925 264.006 453.576C264.501 454.227 264.947 455.005 265.344 455.91C265.741 456.809 266.057 457.798 266.291 458.879C266.532 459.953 266.652 461.083 266.652 462.268Z" fill="black"/>
<path d="M349.066 358.373C349.066 358.061 348.982 357.751 348.812 357.445C348.65 357.139 348.347 356.853 347.904 356.586C347.468 356.319 346.833 356.094 346 355.912C345.408 355.782 344.883 355.639 344.428 355.482C343.979 355.326 343.601 355.137 343.295 354.916C342.989 354.688 342.758 354.418 342.602 354.105C342.452 353.793 342.377 353.419 342.377 352.982C342.377 352.605 342.458 352.25 342.621 351.918C342.784 351.586 343.021 351.296 343.334 351.049C343.653 350.795 344.034 350.596 344.477 350.453C344.919 350.31 345.421 350.238 345.98 350.238C346.781 350.238 347.465 350.372 348.031 350.639C348.604 350.899 349.044 351.26 349.35 351.723C349.656 352.178 349.809 352.709 349.809 353.314H349.027C349.027 352.904 348.91 352.52 348.676 352.162C348.441 351.804 348.096 351.514 347.641 351.293C347.191 351.065 346.638 350.951 345.98 350.951C345.316 350.951 344.776 351.052 344.359 351.254C343.943 351.456 343.637 351.713 343.441 352.025C343.253 352.331 343.158 352.644 343.158 352.963C343.158 353.217 343.194 353.454 343.266 353.676C343.344 353.891 343.49 354.089 343.705 354.271C343.92 354.454 344.229 354.63 344.633 354.799C345.036 354.962 345.561 355.115 346.205 355.258C347.051 355.447 347.742 355.678 348.275 355.951C348.809 356.218 349.203 356.547 349.457 356.938C349.711 357.322 349.838 357.794 349.838 358.354C349.838 358.77 349.75 359.154 349.574 359.506C349.398 359.851 349.145 360.15 348.812 360.404C348.487 360.658 348.09 360.854 347.621 360.99C347.152 361.127 346.632 361.195 346.059 361.195C345.193 361.195 344.457 361.059 343.852 360.785C343.253 360.505 342.797 360.137 342.484 359.682C342.178 359.226 342.025 358.734 342.025 358.207H342.807C342.852 358.786 343.041 359.242 343.373 359.574C343.712 359.906 344.122 360.141 344.604 360.277C345.092 360.414 345.577 360.482 346.059 360.482C346.716 360.482 347.266 360.382 347.709 360.18C348.158 359.971 348.497 359.708 348.725 359.389C348.952 359.063 349.066 358.725 349.066 358.373ZM353.549 350.434V361H352.768V350.434H353.549ZM352.523 347.23C352.523 347.055 352.582 346.905 352.699 346.781C352.823 346.651 352.979 346.586 353.168 346.586C353.35 346.586 353.503 346.651 353.627 346.781C353.751 346.905 353.812 347.055 353.812 347.23C353.812 347.406 353.751 347.556 353.627 347.68C353.503 347.797 353.35 347.855 353.168 347.855C352.979 347.855 352.823 347.797 352.699 347.68C352.582 347.556 352.523 347.406 352.523 347.23ZM357.689 352.689V361H356.918V350.434H357.68L357.689 352.689ZM357.543 354.906L357.162 354.457C357.221 353.897 357.357 353.363 357.572 352.855C357.794 352.348 358.083 351.898 358.441 351.508C358.806 351.117 359.229 350.808 359.711 350.58C360.199 350.352 360.736 350.238 361.322 350.238C361.85 350.238 362.322 350.313 362.738 350.463C363.155 350.606 363.507 350.834 363.793 351.146C364.086 351.459 364.307 351.863 364.457 352.357C364.607 352.846 364.682 353.441 364.682 354.145V361H363.91V354.145C363.91 353.311 363.796 352.667 363.568 352.211C363.34 351.749 363.021 351.423 362.611 351.234C362.208 351.046 361.736 350.951 361.195 350.951C360.57 350.951 360.03 351.091 359.574 351.371C359.125 351.645 358.754 351.993 358.461 352.416C358.168 352.833 357.943 353.266 357.787 353.715C357.637 354.164 357.556 354.561 357.543 354.906ZM367.689 355.443V355.268C367.689 354.083 367.807 352.953 368.041 351.879C368.282 350.798 368.601 349.809 368.998 348.91C369.395 348.005 369.841 347.227 370.336 346.576C370.831 345.925 371.345 345.437 371.879 345.111L372.104 345.678C371.641 345.997 371.192 346.465 370.756 347.084C370.326 347.702 369.939 348.438 369.594 349.291C369.249 350.137 368.975 351.068 368.773 352.084C368.572 353.093 368.471 354.141 368.471 355.229V355.463C368.471 356.55 368.572 357.602 368.773 358.617C368.975 359.626 369.249 360.557 369.594 361.41C369.939 362.263 370.326 363.002 370.756 363.627C371.192 364.252 371.641 364.724 372.104 365.043L371.879 365.59C371.345 365.264 370.831 364.783 370.336 364.145C369.841 363.513 369.395 362.755 368.998 361.869C368.601 360.99 368.282 360.007 368.041 358.92C367.807 357.833 367.689 356.674 367.689 355.443ZM378.129 346.576C378.682 346.576 379.184 346.664 379.633 346.84C380.082 347.016 380.482 347.273 380.834 347.611C381.186 347.943 381.479 348.357 381.713 348.852C381.947 349.346 382.126 349.913 382.25 350.551C382.374 351.182 382.436 351.882 382.436 352.65V355.111C382.436 355.88 382.374 356.583 382.25 357.221C382.133 357.852 381.957 358.415 381.723 358.91C381.488 359.405 381.195 359.825 380.844 360.17C380.499 360.508 380.102 360.766 379.652 360.941C379.203 361.111 378.702 361.195 378.148 361.195C377.602 361.195 377.104 361.111 376.654 360.941C376.205 360.766 375.805 360.508 375.453 360.17C375.108 359.825 374.815 359.405 374.574 358.91C374.333 358.415 374.151 357.852 374.027 357.221C373.904 356.583 373.842 355.88 373.842 355.111V352.65C373.842 351.882 373.904 351.182 374.027 350.551C374.151 349.913 374.33 349.346 374.564 348.852C374.799 348.357 375.089 347.943 375.434 347.611C375.785 347.273 376.186 347.016 376.635 346.84C377.084 346.664 377.582 346.576 378.129 346.576ZM378.129 347.289C377.543 347.289 377.029 347.416 376.586 347.67C376.143 347.917 375.775 348.275 375.482 348.744C375.196 349.213 374.978 349.773 374.828 350.424C374.685 351.075 374.613 351.798 374.613 352.592V353.588H381.664V352.592C381.664 351.954 381.615 351.361 381.518 350.814C381.426 350.268 381.286 349.779 381.098 349.35C380.915 348.913 380.681 348.542 380.395 348.236C380.115 347.93 379.786 347.696 379.408 347.533C379.031 347.37 378.604 347.289 378.129 347.289ZM378.148 360.482C378.624 360.482 379.05 360.401 379.428 360.238C379.805 360.069 380.134 359.828 380.414 359.516C380.694 359.203 380.925 358.829 381.107 358.393C381.29 357.95 381.426 357.458 381.518 356.918C381.615 356.371 381.664 355.782 381.664 355.15V354.301H374.613V355.15C374.613 355.782 374.659 356.371 374.75 356.918C374.848 357.458 374.991 357.95 375.18 358.393C375.368 358.829 375.603 359.203 375.883 359.516C376.169 359.822 376.501 360.059 376.879 360.229C377.257 360.398 377.68 360.482 378.148 360.482ZM388.598 355.268V355.443C388.598 356.674 388.477 357.833 388.236 358.92C388.002 360.007 387.686 360.99 387.289 361.869C386.892 362.755 386.446 363.513 385.951 364.145C385.456 364.783 384.942 365.264 384.408 365.59L384.184 365.043C384.646 364.724 385.092 364.252 385.521 363.627C385.958 363.008 386.348 362.27 386.693 361.41C387.038 360.557 387.312 359.626 387.514 358.617C387.715 357.602 387.816 356.55 387.816 355.463V355.229C387.816 354.141 387.712 353.093 387.504 352.084C387.302 351.068 387.029 350.134 386.684 349.281C386.339 348.428 385.948 347.693 385.512 347.074C385.082 346.449 384.639 345.98 384.184 345.668L384.408 345.111C384.942 345.437 385.456 345.925 385.951 346.576C386.446 347.227 386.892 348.005 387.289 348.91C387.686 349.809 388.002 350.798 388.236 351.879C388.477 352.953 388.598 354.083 388.598 355.268Z" fill="black"/>
<path d="M457.834 319.49V320.123H453.281V319.49H457.834ZM455.039 316.977H455.742V326.706C455.742 327.216 455.804 327.603 455.927 327.866C456.056 328.124 456.223 328.3 456.428 328.394C456.639 328.481 456.864 328.525 457.104 328.525C457.274 328.525 457.43 328.517 457.57 328.499C457.717 328.481 457.863 328.461 458.01 328.438L458.071 329.053C457.942 329.094 457.775 329.123 457.57 329.141C457.365 329.164 457.184 329.176 457.025 329.176C456.627 329.176 456.278 329.103 455.979 328.956C455.681 328.81 455.449 328.558 455.285 328.2C455.121 327.837 455.039 327.339 455.039 326.706V316.977ZM466.087 327.251V322.338C466.087 321.84 465.981 321.412 465.771 321.055C465.56 320.697 465.252 320.425 464.848 320.237C464.443 320.044 463.948 319.947 463.362 319.947C462.817 319.947 462.328 320.044 461.895 320.237C461.467 320.425 461.13 320.683 460.884 321.011C460.638 321.339 460.515 321.705 460.515 322.109L459.812 322.101C459.812 321.737 459.896 321.389 460.066 321.055C460.242 320.721 460.488 320.425 460.805 320.167C461.127 319.903 461.505 319.695 461.938 319.543C462.378 319.391 462.858 319.314 463.38 319.314C464.048 319.314 464.637 319.429 465.146 319.657C465.662 319.88 466.063 320.217 466.351 320.668C466.638 321.119 466.781 321.682 466.781 322.355V327.049C466.781 327.389 466.805 327.731 466.852 328.077C466.898 328.423 466.963 328.701 467.045 328.912V329H466.28C466.216 328.777 466.166 328.505 466.131 328.183C466.102 327.86 466.087 327.55 466.087 327.251ZM466.315 323.604L466.333 324.21H464.013C463.427 324.21 462.902 324.266 462.439 324.377C461.977 324.488 461.584 324.646 461.262 324.852C460.939 325.057 460.693 325.3 460.523 325.581C460.354 325.862 460.269 326.179 460.269 326.53C460.269 326.894 460.365 327.228 460.559 327.532C460.752 327.837 461.024 328.08 461.376 328.262C461.728 328.438 462.135 328.525 462.598 328.525C463.23 328.525 463.79 328.417 464.276 328.2C464.769 327.978 465.182 327.679 465.516 327.304C465.85 326.923 466.093 326.483 466.245 325.985L466.553 326.495C466.453 326.806 466.298 327.119 466.087 327.436C465.876 327.752 465.604 328.042 465.27 328.306C464.936 328.563 464.543 328.774 464.092 328.938C463.641 329.097 463.128 329.176 462.554 329.176C461.95 329.176 461.423 329.064 460.972 328.842C460.526 328.613 460.181 328.303 459.935 327.91C459.688 327.512 459.565 327.058 459.565 326.548C459.565 326.108 459.665 325.707 459.864 325.344C460.063 324.98 460.351 324.67 460.726 324.412C461.106 324.148 461.566 323.949 462.105 323.814C462.65 323.674 463.263 323.604 463.942 323.604H466.315ZM470.446 321.521V329H469.752V319.49H470.438L470.446 321.521ZM470.314 323.516L469.972 323.111C470.024 322.607 470.147 322.127 470.341 321.67C470.54 321.213 470.801 320.809 471.123 320.457C471.451 320.105 471.832 319.827 472.266 319.622C472.705 319.417 473.188 319.314 473.716 319.314C474.19 319.314 474.615 319.382 474.99 319.517C475.365 319.646 475.682 319.851 475.939 320.132C476.203 320.413 476.402 320.776 476.537 321.222C476.672 321.661 476.739 322.197 476.739 322.83V329H476.045V322.83C476.045 322.08 475.942 321.5 475.737 321.09C475.532 320.674 475.245 320.381 474.876 320.211C474.513 320.041 474.088 319.956 473.602 319.956C473.039 319.956 472.553 320.082 472.143 320.334C471.738 320.58 471.404 320.894 471.141 321.274C470.877 321.649 470.675 322.039 470.534 322.443C470.399 322.848 470.326 323.205 470.314 323.516ZM479.446 323.999V323.841C479.446 322.774 479.552 321.758 479.763 320.791C479.979 319.818 480.267 318.928 480.624 318.119C480.981 317.305 481.383 316.604 481.828 316.019C482.273 315.433 482.736 314.993 483.217 314.7L483.419 315.21C483.003 315.497 482.599 315.919 482.206 316.476C481.819 317.032 481.471 317.694 481.16 318.462C480.85 319.224 480.604 320.062 480.422 320.976C480.24 321.884 480.149 322.827 480.149 323.806V324.017C480.149 324.995 480.24 325.941 480.422 326.855C480.604 327.764 480.85 328.602 481.16 329.369C481.471 330.137 481.819 330.802 482.206 331.364C482.599 331.927 483.003 332.352 483.419 332.639L483.217 333.131C482.736 332.838 482.273 332.404 481.828 331.83C481.383 331.262 480.981 330.579 480.624 329.782C480.267 328.991 479.979 328.106 479.763 327.128C479.552 326.149 479.446 325.106 479.446 323.999ZM488.842 316.019C489.34 316.019 489.791 316.098 490.195 316.256C490.6 316.414 490.96 316.646 491.276 316.95C491.593 317.249 491.856 317.621 492.067 318.066C492.278 318.512 492.439 319.021 492.551 319.596C492.662 320.164 492.718 320.794 492.718 321.485V323.7C492.718 324.392 492.662 325.024 492.551 325.599C492.445 326.167 492.287 326.674 492.076 327.119C491.865 327.564 491.602 327.942 491.285 328.253C490.975 328.558 490.617 328.789 490.213 328.947C489.809 329.1 489.357 329.176 488.859 329.176C488.367 329.176 487.919 329.1 487.515 328.947C487.11 328.789 486.75 328.558 486.434 328.253C486.123 327.942 485.859 327.564 485.643 327.119C485.426 326.674 485.262 326.167 485.15 325.599C485.039 325.024 484.983 324.392 484.983 323.7V321.485C484.983 320.794 485.039 320.164 485.15 319.596C485.262 319.021 485.423 318.512 485.634 318.066C485.845 317.621 486.105 317.249 486.416 316.95C486.732 316.646 487.093 316.414 487.497 316.256C487.901 316.098 488.35 316.019 488.842 316.019ZM488.842 316.66C488.314 316.66 487.852 316.774 487.453 317.003C487.055 317.226 486.724 317.548 486.46 317.97C486.202 318.392 486.006 318.896 485.871 319.481C485.742 320.067 485.678 320.718 485.678 321.433V322.329H492.023V321.433C492.023 320.858 491.979 320.325 491.892 319.833C491.81 319.341 491.684 318.901 491.514 318.515C491.35 318.122 491.139 317.788 490.881 317.513C490.629 317.237 490.333 317.026 489.993 316.88C489.653 316.733 489.27 316.66 488.842 316.66ZM488.859 328.534C489.287 328.534 489.671 328.461 490.011 328.314C490.351 328.162 490.646 327.945 490.898 327.664C491.15 327.383 491.358 327.046 491.522 326.653C491.687 326.255 491.81 325.812 491.892 325.326C491.979 324.834 492.023 324.304 492.023 323.735V322.971H485.678V323.735C485.678 324.304 485.719 324.834 485.801 325.326C485.889 325.812 486.018 326.255 486.188 326.653C486.357 327.046 486.568 327.383 486.82 327.664C487.078 327.939 487.377 328.153 487.717 328.306C488.057 328.458 488.438 328.534 488.859 328.534ZM498.264 323.841V323.999C498.264 325.106 498.155 326.149 497.938 327.128C497.728 328.106 497.443 328.991 497.086 329.782C496.729 330.579 496.327 331.262 495.882 331.83C495.437 332.404 494.974 332.838 494.493 333.131L494.291 332.639C494.707 332.352 495.108 331.927 495.495 331.364C495.888 330.808 496.239 330.143 496.55 329.369C496.86 328.602 497.106 327.764 497.288 326.855C497.47 325.941 497.561 324.995 497.561 324.017V323.806C497.561 322.827 497.467 321.884 497.279 320.976C497.098 320.062 496.852 319.221 496.541 318.453C496.23 317.686 495.879 317.023 495.486 316.467C495.1 315.904 494.701 315.482 494.291 315.201L494.493 314.7C494.974 314.993 495.437 315.433 495.882 316.019C496.327 316.604 496.729 317.305 497.086 318.119C497.443 318.928 497.728 319.818 497.938 320.791C498.155 321.758 498.264 322.774 498.264 323.841Z" fill="black"/>
</g>
<defs>
<clipPath id="clip0_0_1">
<rect width="500" height="500" fill="white"/>
</clipPath>
</defs>
</svg>
