<svg width="500" height="300" viewBox="0 0 500 300" fill="none" xmlns="http://www.w3.org/2000/svg">
<rect width="500" height="300" fill="white"/>
<rect x="50.5" y="230.5" width="19" height="19" fill="white" stroke="#999999"/>
<line x1="51" y1="50" x2="51" y2="250" stroke="black" stroke-width="2"/>
<line x1="50" y1="249" x2="450" y2="249" stroke="black" stroke-width="2"/>
<line x1="50.4454" y1="49.1047" x2="450.445" y2="248.105" stroke="black" stroke-width="2"/>
<path d="M39.8086 155.668V149.117C39.8086 148.453 39.668 147.883 39.3867 147.406C39.1055 146.93 38.6953 146.566 38.1562 146.316C37.6172 146.059 36.957 145.93 36.1758 145.93C35.4492 145.93 34.7969 146.059 34.2188 146.316C33.6484 146.566 33.1992 146.91 32.8711 147.348C32.543 147.785 32.3789 148.273 32.3789 148.812L31.4414 148.801C31.4414 148.316 31.5547 147.852 31.7812 147.406C32.0156 146.961 32.3438 146.566 32.7656 146.223C33.1953 145.871 33.6992 145.594 34.2773 145.391C34.8633 145.188 35.5039 145.086 36.1992 145.086C37.0898 145.086 37.875 145.238 38.5547 145.543C39.2422 145.84 39.7773 146.289 40.1602 146.891C40.543 147.492 40.7344 148.242 40.7344 149.141V155.398C40.7344 155.852 40.7656 156.309 40.8281 156.77C40.8906 157.23 40.9766 157.602 41.0859 157.883V158H40.0664C39.9805 157.703 39.9141 157.34 39.8672 156.91C39.8281 156.48 39.8086 156.066 39.8086 155.668ZM40.1133 150.805L40.1367 151.613H37.043C36.2617 151.613 35.5625 151.688 34.9453 151.836C34.3281 151.984 33.8047 152.195 33.375 152.469C32.9453 152.742 32.6172 153.066 32.3906 153.441C32.1641 153.816 32.0508 154.238 32.0508 154.707C32.0508 155.191 32.1797 155.637 32.4375 156.043C32.6953 156.449 33.0586 156.773 33.5273 157.016C33.9961 157.25 34.5391 157.367 35.1562 157.367C36 157.367 36.7461 157.223 37.3945 156.934C38.0508 156.637 38.6016 156.238 39.0469 155.738C39.4922 155.23 39.8164 154.645 40.0195 153.98L40.4297 154.66C40.2969 155.074 40.0898 155.492 39.8086 155.914C39.5273 156.336 39.1641 156.723 38.7188 157.074C38.2734 157.418 37.75 157.699 37.1484 157.918C36.5469 158.129 35.8633 158.234 35.0977 158.234C34.293 158.234 33.5898 158.086 32.9883 157.789C32.3945 157.484 31.9336 157.07 31.6055 156.547C31.2773 156.016 31.1133 155.41 31.1133 154.73C31.1133 154.145 31.2461 153.609 31.5117 153.125C31.7773 152.641 32.1602 152.227 32.6602 151.883C33.168 151.531 33.7812 151.266 34.5 151.086C35.2266 150.898 36.043 150.805 36.9492 150.805H40.1133Z" fill="black"/>
<path d="M251.922 259H252.859V274.539L252.824 277H251.922V259ZM261.836 270.531V270.777C261.836 271.738 261.727 272.613 261.508 273.402C261.297 274.191 260.984 274.871 260.57 275.441C260.164 276.012 259.664 276.453 259.07 276.766C258.477 277.078 257.801 277.234 257.043 277.234C256.316 277.234 255.664 277.125 255.086 276.906C254.516 276.688 254.023 276.387 253.609 276.004C253.195 275.613 252.859 275.164 252.602 274.656C252.352 274.141 252.176 273.59 252.074 273.004V268.633C252.207 267.969 252.406 267.363 252.672 266.816C252.938 266.262 253.273 265.781 253.68 265.375C254.086 264.961 254.566 264.645 255.121 264.426C255.684 264.199 256.316 264.086 257.02 264.086C257.785 264.086 258.465 264.238 259.059 264.543C259.66 264.84 260.164 265.27 260.57 265.832C260.984 266.387 261.297 267.062 261.508 267.859C261.727 268.648 261.836 269.539 261.836 270.531ZM260.887 270.777V270.531C260.887 269.734 260.809 268.996 260.652 268.316C260.496 267.637 260.254 267.047 259.926 266.547C259.605 266.047 259.195 265.656 258.695 265.375C258.195 265.094 257.605 264.953 256.926 264.953C256.176 264.953 255.543 265.078 255.027 265.328C254.52 265.57 254.102 265.887 253.773 266.277C253.453 266.668 253.199 267.09 253.012 267.543C252.832 267.988 252.699 268.41 252.613 268.809V272.945C252.754 273.562 253 274.133 253.352 274.656C253.711 275.172 254.188 275.586 254.781 275.898C255.383 276.211 256.105 276.367 256.949 276.367C257.621 276.367 258.203 276.227 258.695 275.945C259.195 275.664 259.605 275.273 259.926 274.773C260.246 274.273 260.484 273.684 260.641 273.004C260.805 272.324 260.887 271.582 260.887 270.777Z" fill="black"/>
<path d="M256.398 136.379C257.031 136.379 257.629 136.262 258.191 136.027C258.762 135.793 259.234 135.438 259.609 134.961C259.992 134.477 260.207 133.863 260.254 133.121H261.168C261.129 133.965 260.887 134.695 260.441 135.312C259.996 135.922 259.422 136.395 258.719 136.73C258.016 137.066 257.242 137.234 256.398 137.234C255.555 137.234 254.801 137.078 254.137 136.766C253.48 136.453 252.93 136.012 252.484 135.441C252.039 134.871 251.699 134.203 251.465 133.438C251.238 132.664 251.125 131.82 251.125 130.906V130.414C251.125 129.5 251.238 128.66 251.465 127.895C251.699 127.121 252.039 126.449 252.484 125.879C252.93 125.309 253.477 124.867 254.125 124.555C254.781 124.242 255.531 124.086 256.375 124.086C257.227 124.086 258.008 124.262 258.719 124.613C259.43 124.957 260.004 125.461 260.441 126.125C260.887 126.781 261.129 127.586 261.168 128.539H260.254C260.215 127.758 260.016 127.102 259.656 126.57C259.297 126.039 258.828 125.637 258.25 125.363C257.672 125.082 257.047 124.941 256.375 124.941C255.625 124.941 254.977 125.086 254.43 125.375C253.883 125.664 253.434 126.062 253.082 126.57C252.73 127.07 252.473 127.652 252.309 128.316C252.145 128.973 252.062 129.672 252.062 130.414V130.906C252.062 131.656 252.145 132.363 252.309 133.027C252.473 133.684 252.73 134.262 253.082 134.762C253.434 135.262 253.883 135.656 254.43 135.945C254.984 136.234 255.641 136.379 256.398 136.379Z" fill="black"/>
</svg>
