<svg width="500" height="500" viewBox="0 0 500 500" fill="none" xmlns="http://www.w3.org/2000/svg">
<rect width="500" height="500" fill="white"/>
<rect x="51" y="51" width="398" height="398" fill="#EEEEEE" stroke="black" stroke-width="2"/>
<rect x="51.3289" y="322.409" width="299" height="299" transform="rotate(-65 51.3289 322.409)" fill="white" stroke="black" stroke-width="2"/>
<path d="M389.934 469.668V463.117C389.934 462.453 389.793 461.883 389.512 461.406C389.23 460.93 388.82 460.566 388.281 460.316C387.742 460.059 387.082 459.93 386.301 459.93C385.574 459.93 384.922 460.059 384.344 460.316C383.773 460.566 383.324 460.91 382.996 461.348C382.668 461.785 382.504 462.273 382.504 462.812L381.566 462.801C381.566 462.316 381.68 461.852 381.906 461.406C382.141 460.961 382.469 460.566 382.891 460.223C383.32 459.871 383.824 459.594 384.402 459.391C384.988 459.188 385.629 459.086 386.324 459.086C387.215 459.086 388 459.238 388.68 459.543C389.367 459.84 389.902 460.289 390.285 460.891C390.668 461.492 390.859 462.242 390.859 463.141V469.398C390.859 469.852 390.891 470.309 390.953 470.77C391.016 471.23 391.102 471.602 391.211 471.883V472H390.191C390.105 471.703 390.039 471.34 389.992 470.91C389.953 470.48 389.934 470.066 389.934 469.668ZM390.238 464.805L390.262 465.613H387.168C386.387 465.613 385.688 465.688 385.07 465.836C384.453 465.984 383.93 466.195 383.5 466.469C383.07 466.742 382.742 467.066 382.516 467.441C382.289 467.816 382.176 468.238 382.176 468.707C382.176 469.191 382.305 469.637 382.562 470.043C382.82 470.449 383.184 470.773 383.652 471.016C384.121 471.25 384.664 471.367 385.281 471.367C386.125 471.367 386.871 471.223 387.52 470.934C388.176 470.637 388.727 470.238 389.172 469.738C389.617 469.23 389.941 468.645 390.145 467.98L390.555 468.66C390.422 469.074 390.215 469.492 389.934 469.914C389.652 470.336 389.289 470.723 388.844 471.074C388.398 471.418 387.875 471.699 387.273 471.918C386.672 472.129 385.988 472.234 385.223 472.234C384.418 472.234 383.715 472.086 383.113 471.789C382.52 471.484 382.059 471.07 381.73 470.547C381.402 470.016 381.238 469.41 381.238 468.73C381.238 468.145 381.371 467.609 381.637 467.125C381.902 466.641 382.285 466.227 382.785 465.883C383.293 465.531 383.906 465.266 384.625 465.086C385.352 464.898 386.168 464.805 387.074 464.805H390.238Z" fill="black"/>
<path d="M116.934 41.668V35.1172C116.934 34.4531 116.793 33.8828 116.512 33.4062C116.23 32.9297 115.82 32.5664 115.281 32.3164C114.742 32.0586 114.082 31.9297 113.301 31.9297C112.574 31.9297 111.922 32.0586 111.344 32.3164C110.773 32.5664 110.324 32.9102 109.996 33.3477C109.668 33.7852 109.504 34.2734 109.504 34.8125L108.566 34.8008C108.566 34.3164 108.68 33.8516 108.906 33.4062C109.141 32.9609 109.469 32.5664 109.891 32.2227C110.32 31.8711 110.824 31.5938 111.402 31.3906C111.988 31.1875 112.629 31.0859 113.324 31.0859C114.215 31.0859 115 31.2383 115.68 31.543C116.367 31.8398 116.902 32.2891 117.285 32.8906C117.668 33.4922 117.859 34.2422 117.859 35.1406V41.3984C117.859 41.8516 117.891 42.3086 117.953 42.7695C118.016 43.2305 118.102 43.6016 118.211 43.8828V44H117.191C117.105 43.7031 117.039 43.3398 116.992 42.9102C116.953 42.4805 116.934 42.0664 116.934 41.668ZM117.238 36.8047L117.262 37.6133H114.168C113.387 37.6133 112.688 37.6875 112.07 37.8359C111.453 37.9844 110.93 38.1953 110.5 38.4688C110.07 38.7422 109.742 39.0664 109.516 39.4414C109.289 39.8164 109.176 40.2383 109.176 40.707C109.176 41.1914 109.305 41.6367 109.562 42.043C109.82 42.4492 110.184 42.7734 110.652 43.0156C111.121 43.25 111.664 43.3672 112.281 43.3672C113.125 43.3672 113.871 43.2227 114.52 42.9336C115.176 42.6367 115.727 42.2383 116.172 41.7383C116.617 41.2305 116.941 40.6445 117.145 39.9805L117.555 40.6602C117.422 41.0742 117.215 41.4922 116.934 41.9141C116.652 42.3359 116.289 42.7227 115.844 43.0742C115.398 43.418 114.875 43.6992 114.273 43.918C113.672 44.1289 112.988 44.2344 112.223 44.2344C111.418 44.2344 110.715 44.0859 110.113 43.7891C109.52 43.4844 109.059 43.0703 108.73 42.5469C108.402 42.0156 108.238 41.4102 108.238 40.7305C108.238 40.1445 108.371 39.6094 108.637 39.125C108.902 38.6406 109.285 38.2266 109.785 37.8828C110.293 37.5312 110.906 37.2656 111.625 37.0859C112.352 36.8984 113.168 36.8047 114.074 36.8047H117.238Z" fill="black"/>
<path d="M181.812 454H182.75V469.539L182.715 472H181.812V454ZM191.727 465.531V465.777C191.727 466.738 191.617 467.613 191.398 468.402C191.188 469.191 190.875 469.871 190.461 470.441C190.055 471.012 189.555 471.453 188.961 471.766C188.367 472.078 187.691 472.234 186.934 472.234C186.207 472.234 185.555 472.125 184.977 471.906C184.406 471.688 183.914 471.387 183.5 471.004C183.086 470.613 182.75 470.164 182.492 469.656C182.242 469.141 182.066 468.59 181.965 468.004V463.633C182.098 462.969 182.297 462.363 182.562 461.816C182.828 461.262 183.164 460.781 183.57 460.375C183.977 459.961 184.457 459.645 185.012 459.426C185.574 459.199 186.207 459.086 186.91 459.086C187.676 459.086 188.355 459.238 188.949 459.543C189.551 459.84 190.055 460.27 190.461 460.832C190.875 461.387 191.188 462.062 191.398 462.859C191.617 463.648 191.727 464.539 191.727 465.531ZM190.777 465.777V465.531C190.777 464.734 190.699 463.996 190.543 463.316C190.387 462.637 190.145 462.047 189.816 461.547C189.496 461.047 189.086 460.656 188.586 460.375C188.086 460.094 187.496 459.953 186.816 459.953C186.066 459.953 185.434 460.078 184.918 460.328C184.41 460.57 183.992 460.887 183.664 461.277C183.344 461.668 183.09 462.09 182.902 462.543C182.723 462.988 182.59 463.41 182.504 463.809V467.945C182.645 468.562 182.891 469.133 183.242 469.656C183.602 470.172 184.078 470.586 184.672 470.898C185.273 471.211 185.996 471.367 186.84 471.367C187.512 471.367 188.094 471.227 188.586 470.945C189.086 470.664 189.496 470.273 189.816 469.773C190.137 469.273 190.375 468.684 190.531 468.004C190.695 467.324 190.777 466.582 190.777 465.777Z" fill="black"/>
<path d="M186.77 368.379C187.402 368.379 188 368.262 188.562 368.027C189.133 367.793 189.605 367.438 189.98 366.961C190.363 366.477 190.578 365.863 190.625 365.121H191.539C191.5 365.965 191.258 366.695 190.812 367.312C190.367 367.922 189.793 368.395 189.09 368.73C188.387 369.066 187.613 369.234 186.77 369.234C185.926 369.234 185.172 369.078 184.508 368.766C183.852 368.453 183.301 368.012 182.855 367.441C182.41 366.871 182.07 366.203 181.836 365.438C181.609 364.664 181.496 363.82 181.496 362.906V362.414C181.496 361.5 181.609 360.66 181.836 359.895C182.07 359.121 182.41 358.449 182.855 357.879C183.301 357.309 183.848 356.867 184.496 356.555C185.152 356.242 185.902 356.086 186.746 356.086C187.598 356.086 188.379 356.262 189.09 356.613C189.801 356.957 190.375 357.461 190.812 358.125C191.258 358.781 191.5 359.586 191.539 360.539H190.625C190.586 359.758 190.387 359.102 190.027 358.57C189.668 358.039 189.199 357.637 188.621 357.363C188.043 357.082 187.418 356.941 186.746 356.941C185.996 356.941 185.348 357.086 184.801 357.375C184.254 357.664 183.805 358.062 183.453 358.57C183.102 359.07 182.844 359.652 182.68 360.316C182.516 360.973 182.434 361.672 182.434 362.414V362.906C182.434 363.656 182.516 364.363 182.68 365.027C182.844 365.684 183.102 366.262 183.453 366.762C183.805 367.262 184.254 367.656 184.801 367.945C185.355 368.234 186.012 368.379 186.77 368.379Z" fill="black"/>
<path d="M313.77 148.379C314.402 148.379 315 148.262 315.562 148.027C316.133 147.793 316.605 147.438 316.98 146.961C317.363 146.477 317.578 145.863 317.625 145.121H318.539C318.5 145.965 318.258 146.695 317.812 147.312C317.367 147.922 316.793 148.395 316.09 148.73C315.387 149.066 314.613 149.234 313.77 149.234C312.926 149.234 312.172 149.078 311.508 148.766C310.852 148.453 310.301 148.012 309.855 147.441C309.41 146.871 309.07 146.203 308.836 145.438C308.609 144.664 308.496 143.82 308.496 142.906V142.414C308.496 141.5 308.609 140.66 308.836 139.895C309.07 139.121 309.41 138.449 309.855 137.879C310.301 137.309 310.848 136.867 311.496 136.555C312.152 136.242 312.902 136.086 313.746 136.086C314.598 136.086 315.379 136.262 316.09 136.613C316.801 136.957 317.375 137.461 317.812 138.125C318.258 138.781 318.5 139.586 318.539 140.539H317.625C317.586 139.758 317.387 139.102 317.027 138.57C316.668 138.039 316.199 137.637 315.621 137.363C315.043 137.082 314.418 136.941 313.746 136.941C312.996 136.941 312.348 137.086 311.801 137.375C311.254 137.664 310.805 138.062 310.453 138.57C310.102 139.07 309.844 139.652 309.68 140.316C309.516 140.973 309.434 141.672 309.434 142.414V142.906C309.434 143.656 309.516 144.363 309.68 145.027C309.844 145.684 310.102 146.262 310.453 146.762C310.805 147.262 311.254 147.656 311.801 147.945C312.355 148.234 313.012 148.379 313.77 148.379Z" fill="black"/>
<path d="M308.812 26H309.75V41.5391L309.715 44H308.812V26ZM318.727 37.5312V37.7773C318.727 38.7383 318.617 39.6133 318.398 40.4023C318.188 41.1914 317.875 41.8711 317.461 42.4414C317.055 43.0117 316.555 43.4531 315.961 43.7656C315.367 44.0781 314.691 44.2344 313.934 44.2344C313.207 44.2344 312.555 44.125 311.977 43.9062C311.406 43.6875 310.914 43.3867 310.5 43.0039C310.086 42.6133 309.75 42.1641 309.492 41.6562C309.242 41.1406 309.066 40.5898 308.965 40.0039V35.6328C309.098 34.9688 309.297 34.3633 309.562 33.8164C309.828 33.2617 310.164 32.7812 310.57 32.375C310.977 31.9609 311.457 31.6445 312.012 31.4258C312.574 31.1992 313.207 31.0859 313.91 31.0859C314.676 31.0859 315.355 31.2383 315.949 31.543C316.551 31.8398 317.055 32.2695 317.461 32.832C317.875 33.3867 318.188 34.0625 318.398 34.8594C318.617 35.6484 318.727 36.5391 318.727 37.5312ZM317.777 37.7773V37.5312C317.777 36.7344 317.699 35.9961 317.543 35.3164C317.387 34.6367 317.145 34.0469 316.816 33.5469C316.496 33.0469 316.086 32.6562 315.586 32.375C315.086 32.0938 314.496 31.9531 313.816 31.9531C313.066 31.9531 312.434 32.0781 311.918 32.3281C311.41 32.5703 310.992 32.8867 310.664 33.2773C310.344 33.668 310.09 34.0898 309.902 34.543C309.723 34.9883 309.59 35.4102 309.504 35.8086V39.9453C309.645 40.5625 309.891 41.1328 310.242 41.6562C310.602 42.1719 311.078 42.5859 311.672 42.8984C312.273 43.2109 312.996 43.3672 313.84 43.3672C314.512 43.3672 315.094 43.2266 315.586 42.9453C316.086 42.6641 316.496 42.2734 316.816 41.7734C317.137 41.2734 317.375 40.6836 317.531 40.0039C317.695 39.3242 317.777 38.582 317.777 37.7773Z" fill="black"/>
<path d="M458.812 304H459.75V319.539L459.715 322H458.812V304ZM468.727 315.531V315.777C468.727 316.738 468.617 317.613 468.398 318.402C468.188 319.191 467.875 319.871 467.461 320.441C467.055 321.012 466.555 321.453 465.961 321.766C465.367 322.078 464.691 322.234 463.934 322.234C463.207 322.234 462.555 322.125 461.977 321.906C461.406 321.688 460.914 321.387 460.5 321.004C460.086 320.613 459.75 320.164 459.492 319.656C459.242 319.141 459.066 318.59 458.965 318.004V313.633C459.098 312.969 459.297 312.363 459.562 311.816C459.828 311.262 460.164 310.781 460.57 310.375C460.977 309.961 461.457 309.645 462.012 309.426C462.574 309.199 463.207 309.086 463.91 309.086C464.676 309.086 465.355 309.238 465.949 309.543C466.551 309.84 467.055 310.27 467.461 310.832C467.875 311.387 468.188 312.062 468.398 312.859C468.617 313.648 468.727 314.539 468.727 315.531ZM467.777 315.777V315.531C467.777 314.734 467.699 313.996 467.543 313.316C467.387 312.637 467.145 312.047 466.816 311.547C466.496 311.047 466.086 310.656 465.586 310.375C465.086 310.094 464.496 309.953 463.816 309.953C463.066 309.953 462.434 310.078 461.918 310.328C461.41 310.57 460.992 310.887 460.664 311.277C460.344 311.668 460.09 312.09 459.902 312.543C459.723 312.988 459.59 313.41 459.504 313.809V317.945C459.645 318.562 459.891 319.133 460.242 319.656C460.602 320.172 461.078 320.586 461.672 320.898C462.273 321.211 462.996 321.367 463.84 321.367C464.512 321.367 465.094 321.227 465.586 320.945C466.086 320.664 466.496 320.273 466.816 319.773C467.137 319.273 467.375 318.684 467.531 318.004C467.695 317.324 467.777 316.582 467.777 315.777Z" fill="black"/>
<path d="M31.8125 177H32.75V192.539L32.7148 195H31.8125V177ZM41.7266 188.531V188.777C41.7266 189.738 41.6172 190.613 41.3984 191.402C41.1875 192.191 40.875 192.871 40.4609 193.441C40.0547 194.012 39.5547 194.453 38.9609 194.766C38.3672 195.078 37.6914 195.234 36.9336 195.234C36.207 195.234 35.5547 195.125 34.9766 194.906C34.4062 194.688 33.9141 194.387 33.5 194.004C33.0859 193.613 32.75 193.164 32.4922 192.656C32.2422 192.141 32.0664 191.59 31.9648 191.004V186.633C32.0977 185.969 32.2969 185.363 32.5625 184.816C32.8281 184.262 33.1641 183.781 33.5703 183.375C33.9766 182.961 34.457 182.645 35.0117 182.426C35.5742 182.199 36.207 182.086 36.9102 182.086C37.6758 182.086 38.3555 182.238 38.9492 182.543C39.5508 182.84 40.0547 183.27 40.4609 183.832C40.875 184.387 41.1875 185.062 41.3984 185.859C41.6172 186.648 41.7266 187.539 41.7266 188.531ZM40.7773 188.777V188.531C40.7773 187.734 40.6992 186.996 40.543 186.316C40.3867 185.637 40.1445 185.047 39.8164 184.547C39.4961 184.047 39.0859 183.656 38.5859 183.375C38.0859 183.094 37.4961 182.953 36.8164 182.953C36.0664 182.953 35.4336 183.078 34.918 183.328C34.4102 183.57 33.9922 183.887 33.6641 184.277C33.3438 184.668 33.0898 185.09 32.9023 185.543C32.7227 185.988 32.5898 186.41 32.5039 186.809V190.945C32.6445 191.562 32.8906 192.133 33.2422 192.656C33.6016 193.172 34.0781 193.586 34.6719 193.898C35.2734 194.211 35.9961 194.367 36.8398 194.367C37.5117 194.367 38.0938 194.227 38.5859 193.945C39.0859 193.664 39.4961 193.273 39.8164 192.773C40.1367 192.273 40.375 191.684 40.5312 191.004C40.6953 190.324 40.7773 189.582 40.7773 188.777Z" fill="black"/>
<path d="M466.934 119.668V113.117C466.934 112.453 466.793 111.883 466.512 111.406C466.23 110.93 465.82 110.566 465.281 110.316C464.742 110.059 464.082 109.93 463.301 109.93C462.574 109.93 461.922 110.059 461.344 110.316C460.773 110.566 460.324 110.91 459.996 111.348C459.668 111.785 459.504 112.273 459.504 112.812L458.566 112.801C458.566 112.316 458.68 111.852 458.906 111.406C459.141 110.961 459.469 110.566 459.891 110.223C460.32 109.871 460.824 109.594 461.402 109.391C461.988 109.188 462.629 109.086 463.324 109.086C464.215 109.086 465 109.238 465.68 109.543C466.367 109.84 466.902 110.289 467.285 110.891C467.668 111.492 467.859 112.242 467.859 113.141V119.398C467.859 119.852 467.891 120.309 467.953 120.77C468.016 121.23 468.102 121.602 468.211 121.883V122H467.191C467.105 121.703 467.039 121.34 466.992 120.91C466.953 120.48 466.934 120.066 466.934 119.668ZM467.238 114.805L467.262 115.613H464.168C463.387 115.613 462.688 115.688 462.07 115.836C461.453 115.984 460.93 116.195 460.5 116.469C460.07 116.742 459.742 117.066 459.516 117.441C459.289 117.816 459.176 118.238 459.176 118.707C459.176 119.191 459.305 119.637 459.562 120.043C459.82 120.449 460.184 120.773 460.652 121.016C461.121 121.25 461.664 121.367 462.281 121.367C463.125 121.367 463.871 121.223 464.52 120.934C465.176 120.637 465.727 120.238 466.172 119.738C466.617 119.23 466.941 118.645 467.145 117.98L467.555 118.66C467.422 119.074 467.215 119.492 466.934 119.914C466.652 120.336 466.289 120.723 465.844 121.074C465.398 121.418 464.875 121.699 464.273 121.918C463.672 122.129 462.988 122.234 462.223 122.234C461.418 122.234 460.715 122.086 460.113 121.789C459.52 121.484 459.059 121.07 458.73 120.547C458.402 120.016 458.238 119.41 458.238 118.73C458.238 118.145 458.371 117.609 458.637 117.125C458.902 116.641 459.285 116.227 459.785 115.883C460.293 115.531 460.906 115.266 461.625 115.086C462.352 114.898 463.168 114.805 464.074 114.805H467.238Z" fill="black"/>
<path d="M39.9336 391.668V385.117C39.9336 384.453 39.793 383.883 39.5117 383.406C39.2305 382.93 38.8203 382.566 38.2812 382.316C37.7422 382.059 37.082 381.93 36.3008 381.93C35.5742 381.93 34.9219 382.059 34.3438 382.316C33.7734 382.566 33.3242 382.91 32.9961 383.348C32.668 383.785 32.5039 384.273 32.5039 384.812L31.5664 384.801C31.5664 384.316 31.6797 383.852 31.9062 383.406C32.1406 382.961 32.4688 382.566 32.8906 382.223C33.3203 381.871 33.8242 381.594 34.4023 381.391C34.9883 381.188 35.6289 381.086 36.3242 381.086C37.2148 381.086 38 381.238 38.6797 381.543C39.3672 381.84 39.9023 382.289 40.2852 382.891C40.668 383.492 40.8594 384.242 40.8594 385.141V391.398C40.8594 391.852 40.8906 392.309 40.9531 392.77C41.0156 393.23 41.1016 393.602 41.2109 393.883V394H40.1914C40.1055 393.703 40.0391 393.34 39.9922 392.91C39.9531 392.48 39.9336 392.066 39.9336 391.668ZM40.2383 386.805L40.2617 387.613H37.168C36.3867 387.613 35.6875 387.688 35.0703 387.836C34.4531 387.984 33.9297 388.195 33.5 388.469C33.0703 388.742 32.7422 389.066 32.5156 389.441C32.2891 389.816 32.1758 390.238 32.1758 390.707C32.1758 391.191 32.3047 391.637 32.5625 392.043C32.8203 392.449 33.1836 392.773 33.6523 393.016C34.1211 393.25 34.6641 393.367 35.2812 393.367C36.125 393.367 36.8711 393.223 37.5195 392.934C38.1758 392.637 38.7266 392.238 39.1719 391.738C39.6172 391.23 39.9414 390.645 40.1445 389.98L40.5547 390.66C40.4219 391.074 40.2148 391.492 39.9336 391.914C39.6523 392.336 39.2891 392.723 38.8438 393.074C38.3984 393.418 37.875 393.699 37.2734 393.918C36.6719 394.129 35.9883 394.234 35.2227 394.234C34.418 394.234 33.7148 394.086 33.1133 393.789C32.5195 393.484 32.0586 393.07 31.7305 392.547C31.4023 392.016 31.2383 391.41 31.2383 390.73C31.2383 390.145 31.3711 389.609 31.6367 389.125C31.9023 388.641 32.2852 388.227 32.7852 387.883C33.293 387.531 33.9062 387.266 34.625 387.086C35.3516 386.898 36.168 386.805 37.0742 386.805H40.2383Z" fill="black"/>
<path d="M140.77 194.379C141.402 194.379 142 194.262 142.562 194.027C143.133 193.793 143.605 193.438 143.98 192.961C144.363 192.477 144.578 191.863 144.625 191.121H145.539C145.5 191.965 145.258 192.695 144.812 193.312C144.367 193.922 143.793 194.395 143.09 194.73C142.387 195.066 141.613 195.234 140.77 195.234C139.926 195.234 139.172 195.078 138.508 194.766C137.852 194.453 137.301 194.012 136.855 193.441C136.41 192.871 136.07 192.203 135.836 191.438C135.609 190.664 135.496 189.82 135.496 188.906V188.414C135.496 187.5 135.609 186.66 135.836 185.895C136.07 185.121 136.41 184.449 136.855 183.879C137.301 183.309 137.848 182.867 138.496 182.555C139.152 182.242 139.902 182.086 140.746 182.086C141.598 182.086 142.379 182.262 143.09 182.613C143.801 182.957 144.375 183.461 144.812 184.125C145.258 184.781 145.5 185.586 145.539 186.539H144.625C144.586 185.758 144.387 185.102 144.027 184.57C143.668 184.039 143.199 183.637 142.621 183.363C142.043 183.082 141.418 182.941 140.746 182.941C139.996 182.941 139.348 183.086 138.801 183.375C138.254 183.664 137.805 184.062 137.453 184.57C137.102 185.07 136.844 185.652 136.68 186.316C136.516 186.973 136.434 187.672 136.434 188.414V188.906C136.434 189.656 136.516 190.363 136.68 191.027C136.844 191.684 137.102 192.262 137.453 192.762C137.805 193.262 138.254 193.656 138.801 193.945C139.355 194.234 140.012 194.379 140.77 194.379Z" fill="black"/>
<path d="M361.77 322.379C362.402 322.379 363 322.262 363.562 322.027C364.133 321.793 364.605 321.438 364.98 320.961C365.363 320.477 365.578 319.863 365.625 319.121H366.539C366.5 319.965 366.258 320.695 365.812 321.312C365.367 321.922 364.793 322.395 364.09 322.73C363.387 323.066 362.613 323.234 361.77 323.234C360.926 323.234 360.172 323.078 359.508 322.766C358.852 322.453 358.301 322.012 357.855 321.441C357.41 320.871 357.07 320.203 356.836 319.438C356.609 318.664 356.496 317.82 356.496 316.906V316.414C356.496 315.5 356.609 314.66 356.836 313.895C357.07 313.121 357.41 312.449 357.855 311.879C358.301 311.309 358.848 310.867 359.496 310.555C360.152 310.242 360.902 310.086 361.746 310.086C362.598 310.086 363.379 310.262 364.09 310.613C364.801 310.957 365.375 311.461 365.812 312.125C366.258 312.781 366.5 313.586 366.539 314.539H365.625C365.586 313.758 365.387 313.102 365.027 312.57C364.668 312.039 364.199 311.637 363.621 311.363C363.043 311.082 362.418 310.941 361.746 310.941C360.996 310.941 360.348 311.086 359.801 311.375C359.254 311.664 358.805 312.062 358.453 312.57C358.102 313.07 357.844 313.652 357.68 314.316C357.516 314.973 357.434 315.672 357.434 316.414V316.906C357.434 317.656 357.516 318.363 357.68 319.027C357.844 319.684 358.102 320.262 358.453 320.762C358.805 321.262 359.254 321.656 359.801 321.945C360.355 322.234 361.012 322.379 361.77 322.379Z" fill="black"/>
</svg>
