<svg width="500" height="308" viewBox="0 0 500 308" fill="none" xmlns="http://www.w3.org/2000/svg">
<rect width="500" height="308" fill="white"/>
<path d="M104.072 247.776L103.808 249.24C102.544 248.6 101.8 247.8 101.576 246.84C101.24 247.56 100.696 248.136 99.944 248.568C99.208 248.984 98.432 249.192 97.616 249.192C96.16 249.192 95 248.704 94.136 247.728C93.352 246.832 92.96 245.68 92.96 244.272C92.96 243.04 93.36 241.952 94.16 241.008C95.04 239.984 96.192 239.472 97.616 239.472C99.392 239.472 100.728 240.264 101.624 241.848C101.832 240.728 102.576 239.84 103.856 239.184L104 240.672C102.816 241.76 102.224 242.968 102.224 244.296C102.224 245.912 102.84 247.072 104.072 247.776ZM100.952 244.296C100.952 243.4 100.608 242.608 99.92 241.92C99.248 241.232 98.464 240.888 97.568 240.888C96.784 240.888 96.072 241.224 95.432 241.896C94.808 242.552 94.496 243.344 94.496 244.272C94.496 244.8 94.568 245.28 94.712 245.712C94.872 246.144 95.088 246.52 95.36 246.84C95.632 247.144 95.96 247.384 96.344 247.56C96.728 247.72 97.152 247.8 97.616 247.8C98.528 247.8 99.312 247.472 99.968 246.816C100.624 246.16 100.952 245.32 100.952 244.296Z" fill="black"/>
<path d="M420.328 238.464C420.376 239.84 420.008 240.944 419.224 241.776C418.36 242.72 417.12 243.192 415.504 243.192C414.064 243.192 412.928 242.784 412.096 241.968C412.064 243.888 412.088 245.896 412.168 247.992H410.632C410.648 247.768 410.656 246.824 410.656 245.16C410.656 243.512 410.656 241.112 410.656 237.96C410.656 234.072 410.712 231.856 410.824 231.312C411.016 230.336 411.488 229.584 412.24 229.056C412.896 228.592 413.712 228.344 414.688 228.312C415.808 228.296 416.752 228.64 417.52 229.344C418.256 230.032 418.6 230.928 418.552 232.032C418.504 233.248 418 234.176 417.04 234.816C417.808 234.896 418.504 235.224 419.128 235.8C419.88 236.536 420.28 237.424 420.328 238.464ZM418.84 238.272C418.776 237.552 418.496 236.992 418 236.592C417.504 236.176 416.896 235.968 416.176 235.968C415.408 235.968 414.6 236.168 413.752 236.568V235.176C415.944 234.84 417.056 233.888 417.088 232.32C417.104 231.552 416.88 230.936 416.416 230.472C415.968 230.008 415.392 229.792 414.688 229.824C413.232 229.872 412.4 230.672 412.192 232.224C412.064 233.072 412.04 235.728 412.12 240.192C412.984 241.12 414.104 241.6 415.48 241.632C416.024 241.632 416.512 241.552 416.944 241.392C417.392 241.216 417.76 240.984 418.048 240.696C418.352 240.392 418.568 240.032 418.696 239.616C418.84 239.2 418.888 238.752 418.84 238.272Z" fill="black"/>
<path d="M346.224 75.48C345.472 76.232 344.832 76.92 344.304 77.544C343.776 78.184 343.248 78.864 342.72 79.584C342.208 80.288 341.696 81.048 341.184 81.864C339.952 83.816 338.92 86.48 338.088 89.856L336.624 89.328C336.832 88.56 337.048 87.824 337.272 87.12C337.496 86.432 337.744 85.752 338.016 85.08C338.416 84.088 338.616 83.144 338.616 82.248C338.616 81.736 338.472 81.008 338.184 80.064C337.88 79.072 337.536 78.36 337.152 77.928C336.192 76.824 334.928 76.048 333.36 75.6L333.936 74.472C335.488 74.776 336.712 75.416 337.608 76.392C339.032 77.912 339.768 79.664 339.816 81.648C340.696 80.016 341.816 78.384 343.176 76.752C344.12 75.616 344.768 74.912 345.12 74.64L346.224 75.48Z" fill="black"/>
<line x1="49.4282" y1="258.18" x2="346.428" y2="51.1796" stroke="black" stroke-width="2"/>
<line x1="49.9915" y1="258" x2="449.977" y2="254.61" stroke="black" stroke-width="2"/>
<line x1="346.892" y1="50.5476" x2="450.892" y2="255.548" stroke="black" stroke-width="2"/>
<line x1="346.5" y1="53.9552" x2="346.5" y2="255.045" stroke="#999999" stroke-dasharray="2 2"/>
<path d="M330.234 148V166H328.84V148H330.234ZM329.918 158.875L329.297 158.523C329.344 157.773 329.496 157.07 329.754 156.414C330.012 155.758 330.359 155.18 330.797 154.68C331.242 154.18 331.762 153.789 332.355 153.508C332.957 153.227 333.621 153.086 334.348 153.086C334.98 153.086 335.547 153.172 336.047 153.344C336.547 153.516 336.973 153.789 337.324 154.164C337.676 154.539 337.941 155.02 338.121 155.605C338.309 156.191 338.402 156.906 338.402 157.75V166H336.996V157.738C336.996 156.863 336.875 156.18 336.633 155.688C336.391 155.188 336.047 154.832 335.602 154.621C335.156 154.41 334.629 154.305 334.02 154.305C333.348 154.305 332.758 154.453 332.25 154.75C331.75 155.039 331.328 155.418 330.984 155.887C330.648 156.348 330.391 156.844 330.211 157.375C330.031 157.898 329.934 158.398 329.918 158.875Z" fill="#999999"/>
<line x1="324.991" y1="231.825" x2="344.991" y2="231.825" stroke="#999999" stroke-dasharray="2 2"/>
<line x1="325.281" y1="233.988" x2="325.281" y2="253.988" stroke="#999999" stroke-dasharray="2 2"/>
<line x1="315.027" y1="98.693" x2="303.59" y2="82.2859" stroke="#999999" stroke-dasharray="2 2"/>
<line x1="314.714" y1="99.027" x2="331.121" y2="87.5898" stroke="#999999" stroke-dasharray="2 2"/>
<path d="M378.234 170V188H376.84V170H378.234ZM386.191 175.32L380.262 181.203L377.742 183.641L377.531 182.27L379.559 180.078L384.422 175.32H386.191ZM384.973 188L379.676 181.414L380.449 180.207L386.66 188H384.973Z" fill="#999999"/>
<line x1="449.608" y1="255.405" x2="319.796" y2="69.1852" stroke="#999999" stroke-dasharray="2 2"/>
<path d="M256.516 278.027C257.109 278.027 257.664 277.918 258.18 277.699C258.703 277.473 259.133 277.141 259.469 276.703C259.812 276.258 260.008 275.715 260.055 275.074H261.391C261.352 275.879 261.105 276.598 260.652 277.23C260.207 277.855 259.621 278.348 258.895 278.707C258.176 279.059 257.383 279.234 256.516 279.234C255.633 279.234 254.852 279.074 254.172 278.754C253.5 278.434 252.938 277.988 252.484 277.418C252.031 276.84 251.688 276.168 251.453 275.402C251.227 274.629 251.113 273.797 251.113 272.906V272.414C251.113 271.523 251.227 270.695 251.453 269.93C251.688 269.156 252.031 268.484 252.484 267.914C252.938 267.336 253.5 266.887 254.172 266.566C254.844 266.246 255.621 266.086 256.504 266.086C257.41 266.086 258.223 266.27 258.941 266.637C259.668 267.004 260.246 267.523 260.676 268.195C261.113 268.867 261.352 269.664 261.391 270.586H260.055C260.016 269.906 259.836 269.32 259.516 268.828C259.195 268.336 258.773 267.957 258.25 267.691C257.727 267.426 257.145 267.293 256.504 267.293C255.785 267.293 255.172 267.434 254.664 267.715C254.156 267.988 253.742 268.367 253.422 268.852C253.109 269.328 252.879 269.875 252.73 270.492C252.582 271.102 252.508 271.742 252.508 272.414V272.906C252.508 273.586 252.578 274.234 252.719 274.852C252.867 275.461 253.098 276.004 253.41 276.48C253.73 276.957 254.145 277.336 254.652 277.617C255.168 277.891 255.789 278.027 256.516 278.027Z" fill="black"/>
<path d="M193.816 112H195.223V127.539L195.129 130H193.816V112ZM204.047 123.543V123.789C204.047 124.734 203.938 125.602 203.719 126.391C203.5 127.18 203.184 127.863 202.77 128.441C202.355 129.012 201.848 129.453 201.246 129.766C200.652 130.078 199.969 130.234 199.195 130.234C198.438 130.234 197.766 130.117 197.18 129.883C196.594 129.641 196.094 129.301 195.68 128.863C195.266 128.418 194.934 127.898 194.684 127.305C194.434 126.703 194.258 126.043 194.156 125.324V122.195C194.273 121.43 194.461 120.734 194.719 120.109C194.977 119.484 195.309 118.945 195.715 118.492C196.129 118.039 196.621 117.691 197.191 117.449C197.77 117.207 198.43 117.086 199.172 117.086C199.945 117.086 200.633 117.238 201.234 117.543C201.844 117.84 202.355 118.273 202.77 118.844C203.184 119.406 203.5 120.086 203.719 120.883C203.938 121.672 204.047 122.559 204.047 123.543ZM202.629 123.789V123.543C202.629 122.801 202.559 122.113 202.418 121.48C202.277 120.848 202.055 120.297 201.75 119.828C201.453 119.352 201.07 118.98 200.602 118.715C200.133 118.449 199.57 118.316 198.914 118.316C198.242 118.316 197.668 118.43 197.191 118.656C196.723 118.875 196.332 119.168 196.02 119.535C195.715 119.895 195.473 120.289 195.293 120.719C195.113 121.148 194.98 121.57 194.895 121.984V125.629C195.027 126.215 195.258 126.766 195.586 127.281C195.914 127.797 196.355 128.215 196.91 128.535C197.465 128.848 198.141 129.004 198.938 129.004C199.578 129.004 200.129 128.871 200.59 128.605C201.059 128.34 201.441 127.973 201.738 127.504C202.043 127.035 202.266 126.484 202.406 125.852C202.555 125.219 202.629 124.531 202.629 123.789Z" fill="black"/>
<path d="M418.551 141.727V135.188C418.551 134.586 418.426 134.066 418.176 133.629C417.926 133.191 417.559 132.855 417.074 132.621C416.59 132.387 415.992 132.27 415.281 132.27C414.625 132.27 414.039 132.387 413.523 132.621C413.016 132.848 412.613 133.156 412.316 133.547C412.027 133.93 411.883 134.355 411.883 134.824L410.477 134.812C410.477 134.336 410.594 133.875 410.828 133.43C411.062 132.984 411.395 132.586 411.824 132.234C412.254 131.883 412.766 131.605 413.359 131.402C413.961 131.191 414.621 131.086 415.34 131.086C416.246 131.086 417.043 131.238 417.73 131.543C418.426 131.848 418.969 132.305 419.359 132.914C419.75 133.523 419.945 134.289 419.945 135.211V141.34C419.945 141.777 419.977 142.23 420.039 142.699C420.109 143.168 420.207 143.555 420.332 143.859V144H418.844C418.75 143.719 418.676 143.367 418.621 142.945C418.574 142.516 418.551 142.109 418.551 141.727ZM418.879 136.617L418.902 137.695H416.148C415.43 137.695 414.785 137.762 414.215 137.895C413.652 138.02 413.176 138.207 412.785 138.457C412.395 138.699 412.094 138.992 411.883 139.336C411.68 139.68 411.578 140.07 411.578 140.508C411.578 140.961 411.691 141.375 411.918 141.75C412.152 142.125 412.48 142.426 412.902 142.652C413.332 142.871 413.84 142.98 414.426 142.98C415.207 142.98 415.895 142.836 416.488 142.547C417.09 142.258 417.586 141.879 417.977 141.41C418.367 140.941 418.629 140.43 418.762 139.875L419.371 140.684C419.27 141.074 419.082 141.477 418.809 141.891C418.543 142.297 418.195 142.68 417.766 143.039C417.336 143.391 416.828 143.68 416.242 143.906C415.664 144.125 415.008 144.234 414.273 144.234C413.445 144.234 412.723 144.078 412.105 143.766C411.496 143.453 411.02 143.027 410.676 142.488C410.34 141.941 410.172 141.324 410.172 140.637C410.172 140.012 410.305 139.453 410.57 138.961C410.836 138.461 411.219 138.039 411.719 137.695C412.227 137.344 412.836 137.078 413.547 136.898C414.266 136.711 415.07 136.617 415.961 136.617H418.879Z" fill="black"/>
</svg>
