<svg width="500" height="331" viewBox="0 0 500 331" fill="none" xmlns="http://www.w3.org/2000/svg">
<rect width="500" height="331" fill="#F5F5F5"/>
<rect width="500" height="331" fill="white"/>
<rect x="431" y="262" width="18" height="18" stroke="#999999" stroke-width="2"/>
<line x1="50" y1="280" x2="450" y2="280" stroke="black" stroke-width="2"/>
<line x1="49.5" y1="280.134" x2="449.604" y2="49.134" stroke="black" stroke-width="2"/>
<line x1="449" y1="281" x2="449" y2="50" stroke="black" stroke-width="2"/>
<path d="M259.934 299.668V293.117C259.934 292.453 259.793 291.883 259.512 291.406C259.23 290.93 258.82 290.566 258.281 290.316C257.742 290.059 257.082 289.93 256.301 289.93C255.574 289.93 254.922 290.059 254.344 290.316C253.773 290.566 253.324 290.91 252.996 291.348C252.668 291.785 252.504 292.273 252.504 292.812L251.566 292.801C251.566 292.316 251.68 291.852 251.906 291.406C252.141 290.961 252.469 290.566 252.891 290.223C253.32 289.871 253.824 289.594 254.402 289.391C254.988 289.188 255.629 289.086 256.324 289.086C257.215 289.086 258 289.238 258.68 289.543C259.367 289.84 259.902 290.289 260.285 290.891C260.668 291.492 260.859 292.242 260.859 293.141V299.398C260.859 299.852 260.891 300.309 260.953 300.77C261.016 301.23 261.102 301.602 261.211 301.883V302H260.191C260.105 301.703 260.039 301.34 259.992 300.91C259.953 300.48 259.934 300.066 259.934 299.668ZM260.238 294.805L260.262 295.613H257.168C256.387 295.613 255.688 295.688 255.07 295.836C254.453 295.984 253.93 296.195 253.5 296.469C253.07 296.742 252.742 297.066 252.516 297.441C252.289 297.816 252.176 298.238 252.176 298.707C252.176 299.191 252.305 299.637 252.562 300.043C252.82 300.449 253.184 300.773 253.652 301.016C254.121 301.25 254.664 301.367 255.281 301.367C256.125 301.367 256.871 301.223 257.52 300.934C258.176 300.637 258.727 300.238 259.172 299.738C259.617 299.23 259.941 298.645 260.145 297.98L260.555 298.66C260.422 299.074 260.215 299.492 259.934 299.914C259.652 300.336 259.289 300.723 258.844 301.074C258.398 301.418 257.875 301.699 257.273 301.918C256.672 302.129 255.988 302.234 255.223 302.234C254.418 302.234 253.715 302.086 253.113 301.789C252.52 301.484 252.059 301.07 251.73 300.547C251.402 300.016 251.238 299.41 251.238 298.73C251.238 298.145 251.371 297.609 251.637 297.125C251.902 296.641 252.285 296.227 252.785 295.883C253.293 295.531 253.906 295.266 254.625 295.086C255.352 294.898 256.168 294.805 257.074 294.805H260.238Z" fill="black"/>
<path d="M461.312 156H462.25V171.539L462.215 174H461.312V156ZM471.227 167.531V167.777C471.227 168.738 471.117 169.613 470.898 170.402C470.688 171.191 470.375 171.871 469.961 172.441C469.555 173.012 469.055 173.453 468.461 173.766C467.867 174.078 467.191 174.234 466.434 174.234C465.707 174.234 465.055 174.125 464.477 173.906C463.906 173.688 463.414 173.387 463 173.004C462.586 172.613 462.25 172.164 461.992 171.656C461.742 171.141 461.566 170.59 461.465 170.004V165.633C461.598 164.969 461.797 164.363 462.062 163.816C462.328 163.262 462.664 162.781 463.07 162.375C463.477 161.961 463.957 161.645 464.512 161.426C465.074 161.199 465.707 161.086 466.41 161.086C467.176 161.086 467.855 161.238 468.449 161.543C469.051 161.84 469.555 162.27 469.961 162.832C470.375 163.387 470.688 164.062 470.898 164.859C471.117 165.648 471.227 166.539 471.227 167.531ZM470.277 167.777V167.531C470.277 166.734 470.199 165.996 470.043 165.316C469.887 164.637 469.645 164.047 469.316 163.547C468.996 163.047 468.586 162.656 468.086 162.375C467.586 162.094 466.996 161.953 466.316 161.953C465.566 161.953 464.934 162.078 464.418 162.328C463.91 162.57 463.492 162.887 463.164 163.277C462.844 163.668 462.59 164.09 462.402 164.543C462.223 164.988 462.09 165.41 462.004 165.809V169.945C462.145 170.562 462.391 171.133 462.742 171.656C463.102 172.172 463.578 172.586 464.172 172.898C464.773 173.211 465.496 173.367 466.34 173.367C467.012 173.367 467.594 173.227 468.086 172.945C468.586 172.664 468.996 172.273 469.316 171.773C469.637 171.273 469.875 170.684 470.031 170.004C470.195 169.324 470.277 168.582 470.277 167.777Z" fill="black"/>
<path d="M256.77 144.379C257.402 144.379 258 144.262 258.562 144.027C259.133 143.793 259.605 143.438 259.98 142.961C260.363 142.477 260.578 141.863 260.625 141.121H261.539C261.5 141.965 261.258 142.695 260.812 143.312C260.367 143.922 259.793 144.395 259.09 144.73C258.387 145.066 257.613 145.234 256.77 145.234C255.926 145.234 255.172 145.078 254.508 144.766C253.852 144.453 253.301 144.012 252.855 143.441C252.41 142.871 252.07 142.203 251.836 141.438C251.609 140.664 251.496 139.82 251.496 138.906V138.414C251.496 137.5 251.609 136.66 251.836 135.895C252.07 135.121 252.41 134.449 252.855 133.879C253.301 133.309 253.848 132.867 254.496 132.555C255.152 132.242 255.902 132.086 256.746 132.086C257.598 132.086 258.379 132.262 259.09 132.613C259.801 132.957 260.375 133.461 260.812 134.125C261.258 134.781 261.5 135.586 261.539 136.539H260.625C260.586 135.758 260.387 135.102 260.027 134.57C259.668 134.039 259.199 133.637 258.621 133.363C258.043 133.082 257.418 132.941 256.746 132.941C255.996 132.941 255.348 133.086 254.801 133.375C254.254 133.664 253.805 134.062 253.453 134.57C253.102 135.07 252.844 135.652 252.68 136.316C252.516 136.973 252.434 137.672 252.434 138.414V138.906C252.434 139.656 252.516 140.363 252.68 141.027C252.844 141.684 253.102 142.262 253.453 142.762C253.805 143.262 254.254 143.656 254.801 143.945C255.355 144.234 256.012 144.379 256.77 144.379Z" fill="black"/>
<path d="M102.988 257.691C103.652 257.691 104.254 257.797 104.793 258.008C105.332 258.219 105.812 258.527 106.234 258.934C106.656 259.332 107.008 259.828 107.289 260.422C107.57 261.016 107.785 261.695 107.934 262.461C108.082 263.219 108.156 264.059 108.156 264.98V267.934C108.156 268.855 108.082 269.699 107.934 270.465C107.793 271.223 107.582 271.898 107.301 272.492C107.02 273.086 106.668 273.59 106.246 274.004C105.832 274.41 105.355 274.719 104.816 274.93C104.277 275.133 103.676 275.234 103.012 275.234C102.355 275.234 101.758 275.133 101.219 274.93C100.68 274.719 100.199 274.41 99.7773 274.004C99.3633 273.59 99.0117 273.086 98.7227 272.492C98.4336 271.898 98.2148 271.223 98.0664 270.465C97.918 269.699 97.8438 268.855 97.8438 267.934V264.98C97.8438 264.059 97.918 263.219 98.0664 262.461C98.2148 261.695 98.4297 261.016 98.7109 260.422C98.9922 259.828 99.3398 259.332 99.7539 258.934C100.176 258.527 100.656 258.219 101.195 258.008C101.734 257.797 102.332 257.691 102.988 257.691ZM102.988 258.547C102.285 258.547 101.668 258.699 101.137 259.004C100.605 259.301 100.164 259.73 99.8125 260.293C99.4688 260.855 99.207 261.527 99.0273 262.309C98.8555 263.09 98.7695 263.957 98.7695 264.91V266.105H107.23V264.91C107.23 264.145 107.172 263.434 107.055 262.777C106.945 262.121 106.777 261.535 106.551 261.02C106.332 260.496 106.051 260.051 105.707 259.684C105.371 259.316 104.977 259.035 104.523 258.84C104.07 258.645 103.559 258.547 102.988 258.547ZM103.012 274.379C103.582 274.379 104.094 274.281 104.547 274.086C105 273.883 105.395 273.594 105.73 273.219C106.066 272.844 106.344 272.395 106.562 271.871C106.781 271.34 106.945 270.75 107.055 270.102C107.172 269.445 107.23 268.738 107.23 267.98V266.961H98.7695V267.98C98.7695 268.738 98.8242 269.445 98.9336 270.102C99.0508 270.75 99.2227 271.34 99.4492 271.871C99.6758 272.395 99.957 272.844 100.293 273.219C100.637 273.586 101.035 273.871 101.488 274.074C101.941 274.277 102.449 274.379 103.012 274.379Z" fill="black"/>
<path opacity="0.29" d="M49.794 279.86L79.5881 262.982C82.3086 268.204 83.8113 273.975 83.9833 279.86L49.794 279.86Z" stroke="black" stroke-width="2"/>
</svg>
