<svg width="500" height="446" viewBox="0 0 500 446" fill="none" xmlns="http://www.w3.org/2000/svg">
<rect width="500" height="446" fill="#F5F5F5"/>
<rect width="500" height="446" fill="white"/>
<rect x="251" y="379" width="18" height="18" stroke="#BBBBBB" stroke-width="2"/>
<line x1="50" y1="397" x2="450" y2="397" stroke="black" stroke-width="2"/>
<line x1="50.134" y1="397.5" x2="250.634" y2="50.2238" stroke="black" stroke-width="2"/>
<line x1="250.866" y1="50.0898" x2="451.366" y2="397.366" stroke="black" stroke-width="2"/>
<line x1="251" y1="50" x2="251" y2="396" stroke="black" stroke-width="2"/>
<path d="M36.4531 393.664L30.3828 410H29.375L35.7852 392.938H36.5703L36.4531 393.664ZM42.1953 410L36.1367 393.664L36.0195 392.938H36.793L43.2148 410H42.1953ZM40.6953 404.152V405.031H31.9414V404.152H40.6953Z" fill="black"/>
<path d="M76.6445 374.75H76.8555V375.617H76.6445C75.6055 375.617 74.6445 375.785 73.7617 376.121C72.8867 376.457 72.125 376.969 71.4766 377.656C70.8359 378.344 70.3359 379.203 69.9766 380.234C69.625 381.266 69.4492 382.477 69.4492 383.867V386.129C69.4492 386.934 69.5625 387.66 69.7891 388.309C70.0234 388.957 70.3438 389.512 70.75 389.973C71.1641 390.426 71.6523 390.777 72.2148 391.027C72.7773 391.27 73.3906 391.391 74.0547 391.391C74.6641 391.391 75.2148 391.258 75.707 390.992C76.1992 390.727 76.6172 390.363 76.9609 389.902C77.3047 389.434 77.5703 388.902 77.7578 388.309C77.9453 387.707 78.0391 387.074 78.0391 386.41C78.0391 385.746 77.9531 385.129 77.7812 384.559C77.6094 383.988 77.3516 383.484 77.0078 383.047C76.6719 382.609 76.2422 382.27 75.7188 382.027C75.2031 381.777 74.5977 381.652 73.9023 381.652C73.1211 381.652 72.3828 381.828 71.6875 382.18C71 382.523 70.4375 382.992 70 383.586C69.5625 384.172 69.3398 384.82 69.332 385.531L68.7461 385.508C68.7695 384.852 68.9141 384.242 69.1797 383.68C69.4453 383.109 69.8164 382.609 70.293 382.18C70.7695 381.742 71.3242 381.402 71.957 381.16C72.5898 380.91 73.2812 380.785 74.0312 380.785C74.8359 380.785 75.543 380.93 76.1523 381.219C76.7617 381.508 77.2734 381.906 77.6875 382.414C78.1094 382.922 78.4258 383.516 78.6367 384.195C78.8555 384.875 78.9648 385.605 78.9648 386.387C78.9648 387.207 78.8477 387.973 78.6133 388.684C78.3789 389.395 78.043 390.016 77.6055 390.547C77.1758 391.078 76.6602 391.492 76.0586 391.789C75.4648 392.086 74.7969 392.234 74.0547 392.234C73.2344 392.234 72.4844 392.086 71.8047 391.789C71.1328 391.492 70.5469 391.07 70.0469 390.523C69.5547 389.977 69.1758 389.332 68.9102 388.59C68.6445 387.848 68.5117 387.027 68.5117 386.129V384.348C68.5117 382.738 68.707 381.336 69.0977 380.141C69.4883 378.938 70.043 377.938 70.7617 377.141C71.4805 376.336 72.3359 375.738 73.3281 375.348C74.3281 374.949 75.4336 374.75 76.6445 374.75ZM91.9844 381.945V384.98C91.9844 386.145 91.8711 387.18 91.6445 388.086C91.418 388.984 91.0859 389.742 90.6484 390.359C90.2109 390.977 89.6719 391.445 89.0312 391.766C88.3984 392.078 87.668 392.234 86.8398 392.234C86.1836 392.234 85.5859 392.133 85.0469 391.93C84.5078 391.727 84.0273 391.426 83.6055 391.027C83.1836 390.629 82.8281 390.137 82.5391 389.551C82.25 388.965 82.0312 388.289 81.8828 387.523C81.7344 386.758 81.6602 385.91 81.6602 384.98V381.945C81.6602 380.766 81.7734 379.73 82 378.84C82.2344 377.941 82.5703 377.184 83.0078 376.566C83.4453 375.949 83.9844 375.484 84.625 375.172C85.2656 374.852 85.9961 374.691 86.8164 374.691C87.4727 374.691 88.0703 374.793 88.6094 374.996C89.1562 375.199 89.6367 375.5 90.0508 375.898C90.4727 376.297 90.8242 376.789 91.1055 377.375C91.3945 377.961 91.6133 378.637 91.7617 379.402C91.9102 380.16 91.9844 381.008 91.9844 381.945ZM91.0469 385.027V381.863C91.0469 381.09 90.9883 380.375 90.8711 379.719C90.7617 379.062 90.5938 378.477 90.3672 377.961C90.1484 377.445 89.8672 377.008 89.5234 376.648C89.1875 376.289 88.793 376.016 88.3398 375.828C87.8867 375.641 87.3789 375.547 86.8164 375.547C86.1133 375.547 85.4961 375.695 84.9648 375.992C84.4336 376.281 83.9922 376.699 83.6406 377.246C83.2969 377.793 83.0352 378.457 82.8555 379.238C82.6836 380.02 82.5977 380.895 82.5977 381.863V385.027C82.5977 385.793 82.6523 386.504 82.7617 387.16C82.8711 387.809 83.0391 388.395 83.2656 388.918C83.4922 389.441 83.7734 389.887 84.1094 390.254C84.4531 390.613 84.8516 390.891 85.3047 391.086C85.7578 391.281 86.2695 391.379 86.8398 391.379C87.5508 391.379 88.168 391.23 88.6914 390.934C89.2227 390.629 89.6602 390.199 90.0039 389.645C90.3555 389.09 90.6172 388.422 90.7891 387.641C90.9609 386.859 91.0469 385.988 91.0469 385.027ZM95.207 377.562C95.207 377.039 95.332 376.562 95.582 376.133C95.8398 375.695 96.1797 375.348 96.6016 375.09C97.0312 374.832 97.5039 374.703 98.0195 374.703C98.5273 374.703 98.9883 374.832 99.4023 375.09C99.8242 375.348 100.16 375.695 100.41 376.133C100.66 376.562 100.785 377.039 100.785 377.562C100.785 378.086 100.66 378.562 100.41 378.992C100.16 379.414 99.8242 379.754 99.4023 380.012C98.9883 380.262 98.5273 380.387 98.0195 380.387C97.5039 380.387 97.0312 380.262 96.6016 380.012C96.1797 379.754 95.8398 379.414 95.582 378.992C95.332 378.562 95.207 378.086 95.207 377.562ZM96.0156 377.562C96.0156 378.141 96.207 378.621 96.5898 379.004C96.9727 379.379 97.4492 379.566 98.0195 379.566C98.582 379.566 99.0469 379.379 99.4141 379.004C99.7812 378.621 99.9648 378.141 99.9648 377.562C99.9648 376.969 99.7812 376.48 99.4141 376.098C99.0469 375.707 98.582 375.512 98.0195 375.512C97.4492 375.512 96.9727 375.707 96.5898 376.098C96.207 376.48 96.0156 376.969 96.0156 377.562Z" fill="black"/>
<path d="M217.828 125.859H219.176C220.129 125.859 220.93 125.699 221.578 125.379C222.227 125.051 222.715 124.621 223.043 124.09C223.371 123.551 223.535 122.961 223.535 122.32C223.535 121.617 223.395 120.98 223.113 120.41C222.84 119.84 222.41 119.391 221.824 119.062C221.246 118.727 220.5 118.559 219.586 118.559C218.812 118.559 218.113 118.715 217.488 119.027C216.863 119.34 216.363 119.785 215.988 120.363C215.621 120.934 215.438 121.617 215.438 122.414H214.512C214.512 121.461 214.738 120.633 215.191 119.93C215.645 119.219 216.254 118.672 217.02 118.289C217.793 117.898 218.648 117.703 219.586 117.703C220.578 117.703 221.438 117.891 222.164 118.266C222.898 118.633 223.465 119.164 223.863 119.859C224.27 120.555 224.473 121.391 224.473 122.367C224.473 122.922 224.352 123.453 224.109 123.961C223.875 124.469 223.531 124.922 223.078 125.32C222.633 125.711 222.09 126.023 221.449 126.258C220.809 126.484 220.082 126.598 219.27 126.598H217.828V125.859ZM217.828 126.738V126.023H219.27C220.176 126.023 220.973 126.125 221.66 126.328C222.348 126.531 222.926 126.828 223.395 127.219C223.871 127.602 224.227 128.066 224.461 128.613C224.703 129.152 224.824 129.758 224.824 130.43C224.824 131.195 224.695 131.875 224.438 132.469C224.188 133.062 223.832 133.566 223.371 133.98C222.91 134.395 222.363 134.707 221.73 134.918C221.105 135.129 220.422 135.234 219.68 135.234C219.016 135.234 218.359 135.137 217.711 134.941C217.062 134.738 216.473 134.434 215.941 134.027C215.41 133.621 214.984 133.109 214.664 132.492C214.344 131.867 214.184 131.137 214.184 130.301H215.121C215.121 131.098 215.316 131.801 215.707 132.41C216.105 133.02 216.648 133.5 217.336 133.852C218.023 134.203 218.805 134.379 219.68 134.379C220.57 134.379 221.328 134.227 221.953 133.922C222.586 133.609 223.066 133.164 223.395 132.586C223.723 132 223.887 131.297 223.887 130.477C223.887 129.594 223.688 128.879 223.289 128.332C222.891 127.777 222.336 127.375 221.625 127.125C220.914 126.867 220.098 126.738 219.176 126.738H217.828ZM237.984 124.945V127.98C237.984 129.145 237.871 130.18 237.645 131.086C237.418 131.984 237.086 132.742 236.648 133.359C236.211 133.977 235.672 134.445 235.031 134.766C234.398 135.078 233.668 135.234 232.84 135.234C232.184 135.234 231.586 135.133 231.047 134.93C230.508 134.727 230.027 134.426 229.605 134.027C229.184 133.629 228.828 133.137 228.539 132.551C228.25 131.965 228.031 131.289 227.883 130.523C227.734 129.758 227.66 128.91 227.66 127.98V124.945C227.66 123.766 227.773 122.73 228 121.84C228.234 120.941 228.57 120.184 229.008 119.566C229.445 118.949 229.984 118.484 230.625 118.172C231.266 117.852 231.996 117.691 232.816 117.691C233.473 117.691 234.07 117.793 234.609 117.996C235.156 118.199 235.637 118.5 236.051 118.898C236.473 119.297 236.824 119.789 237.105 120.375C237.395 120.961 237.613 121.637 237.762 122.402C237.91 123.16 237.984 124.008 237.984 124.945ZM237.047 128.027V124.863C237.047 124.09 236.988 123.375 236.871 122.719C236.762 122.062 236.594 121.477 236.367 120.961C236.148 120.445 235.867 120.008 235.523 119.648C235.188 119.289 234.793 119.016 234.34 118.828C233.887 118.641 233.379 118.547 232.816 118.547C232.113 118.547 231.496 118.695 230.965 118.992C230.434 119.281 229.992 119.699 229.641 120.246C229.297 120.793 229.035 121.457 228.855 122.238C228.684 123.02 228.598 123.895 228.598 124.863V128.027C228.598 128.793 228.652 129.504 228.762 130.16C228.871 130.809 229.039 131.395 229.266 131.918C229.492 132.441 229.773 132.887 230.109 133.254C230.453 133.613 230.852 133.891 231.305 134.086C231.758 134.281 232.27 134.379 232.84 134.379C233.551 134.379 234.168 134.23 234.691 133.934C235.223 133.629 235.66 133.199 236.004 132.645C236.355 132.09 236.617 131.422 236.789 130.641C236.961 129.859 237.047 128.988 237.047 128.027ZM241.207 120.562C241.207 120.039 241.332 119.562 241.582 119.133C241.84 118.695 242.18 118.348 242.602 118.09C243.031 117.832 243.504 117.703 244.02 117.703C244.527 117.703 244.988 117.832 245.402 118.09C245.824 118.348 246.16 118.695 246.41 119.133C246.66 119.562 246.785 120.039 246.785 120.562C246.785 121.086 246.66 121.562 246.41 121.992C246.16 122.414 245.824 122.754 245.402 123.012C244.988 123.262 244.527 123.387 244.02 123.387C243.504 123.387 243.031 123.262 242.602 123.012C242.18 122.754 241.84 122.414 241.582 121.992C241.332 121.562 241.207 121.086 241.207 120.562ZM242.016 120.562C242.016 121.141 242.207 121.621 242.59 122.004C242.973 122.379 243.449 122.566 244.02 122.566C244.582 122.566 245.047 122.379 245.414 122.004C245.781 121.621 245.965 121.141 245.965 120.562C245.965 119.969 245.781 119.48 245.414 119.098C245.047 118.707 244.582 118.512 244.02 118.512C243.449 118.512 242.973 118.707 242.59 119.098C242.207 119.48 242.016 119.969 242.016 120.562Z" fill="black"/>
<path d="M243.258 79.5859V91H242.633V80.3906L239.438 81.5859V80.9609L243.141 79.5859H243.258Z" fill="black"/>
<path d="M263.078 90.4297V91H256.148V90.4609L259.875 86.1875C260.344 85.651 260.724 85.1719 261.016 84.75C261.307 84.3229 261.521 83.9323 261.656 83.5781C261.792 83.224 261.859 82.8828 261.859 82.5547C261.859 82.0495 261.76 81.6094 261.562 81.2344C261.365 80.8594 261.07 80.5677 260.68 80.3594C260.289 80.1458 259.807 80.0391 259.234 80.0391C258.703 80.0391 258.229 80.1615 257.812 80.4062C257.401 80.651 257.078 80.987 256.844 81.4141C256.615 81.8359 256.5 82.3177 256.5 82.8594H255.883C255.883 82.2396 256.021 81.6745 256.297 81.1641C256.573 80.6484 256.961 80.237 257.461 79.9297C257.966 79.6224 258.557 79.4688 259.234 79.4688C259.901 79.4688 260.477 79.5885 260.961 79.8281C261.445 80.0625 261.82 80.4062 262.086 80.8594C262.352 81.3125 262.484 81.8672 262.484 82.5234C262.484 82.8672 262.419 83.2161 262.289 83.5703C262.164 83.9245 261.99 84.2786 261.766 84.6328C261.547 84.9818 261.299 85.3281 261.023 85.6719C260.753 86.0156 260.471 86.3542 260.18 86.6875L256.938 90.4297H263.078Z" fill="black"/>
<path d="M258.828 125.859H260.176C261.129 125.859 261.93 125.699 262.578 125.379C263.227 125.051 263.715 124.621 264.043 124.09C264.371 123.551 264.535 122.961 264.535 122.32C264.535 121.617 264.395 120.98 264.113 120.41C263.84 119.84 263.41 119.391 262.824 119.062C262.246 118.727 261.5 118.559 260.586 118.559C259.812 118.559 259.113 118.715 258.488 119.027C257.863 119.34 257.363 119.785 256.988 120.363C256.621 120.934 256.438 121.617 256.438 122.414H255.512C255.512 121.461 255.738 120.633 256.191 119.93C256.645 119.219 257.254 118.672 258.02 118.289C258.793 117.898 259.648 117.703 260.586 117.703C261.578 117.703 262.438 117.891 263.164 118.266C263.898 118.633 264.465 119.164 264.863 119.859C265.27 120.555 265.473 121.391 265.473 122.367C265.473 122.922 265.352 123.453 265.109 123.961C264.875 124.469 264.531 124.922 264.078 125.32C263.633 125.711 263.09 126.023 262.449 126.258C261.809 126.484 261.082 126.598 260.27 126.598H258.828V125.859ZM258.828 126.738V126.023H260.27C261.176 126.023 261.973 126.125 262.66 126.328C263.348 126.531 263.926 126.828 264.395 127.219C264.871 127.602 265.227 128.066 265.461 128.613C265.703 129.152 265.824 129.758 265.824 130.43C265.824 131.195 265.695 131.875 265.438 132.469C265.188 133.062 264.832 133.566 264.371 133.98C263.91 134.395 263.363 134.707 262.73 134.918C262.105 135.129 261.422 135.234 260.68 135.234C260.016 135.234 259.359 135.137 258.711 134.941C258.062 134.738 257.473 134.434 256.941 134.027C256.41 133.621 255.984 133.109 255.664 132.492C255.344 131.867 255.184 131.137 255.184 130.301H256.121C256.121 131.098 256.316 131.801 256.707 132.41C257.105 133.02 257.648 133.5 258.336 133.852C259.023 134.203 259.805 134.379 260.68 134.379C261.57 134.379 262.328 134.227 262.953 133.922C263.586 133.609 264.066 133.164 264.395 132.586C264.723 132 264.887 131.297 264.887 130.477C264.887 129.594 264.688 128.879 264.289 128.332C263.891 127.777 263.336 127.375 262.625 127.125C261.914 126.867 261.098 126.738 260.176 126.738H258.828ZM278.984 124.945V127.98C278.984 129.145 278.871 130.18 278.645 131.086C278.418 131.984 278.086 132.742 277.648 133.359C277.211 133.977 276.672 134.445 276.031 134.766C275.398 135.078 274.668 135.234 273.84 135.234C273.184 135.234 272.586 135.133 272.047 134.93C271.508 134.727 271.027 134.426 270.605 134.027C270.184 133.629 269.828 133.137 269.539 132.551C269.25 131.965 269.031 131.289 268.883 130.523C268.734 129.758 268.66 128.91 268.66 127.98V124.945C268.66 123.766 268.773 122.73 269 121.84C269.234 120.941 269.57 120.184 270.008 119.566C270.445 118.949 270.984 118.484 271.625 118.172C272.266 117.852 272.996 117.691 273.816 117.691C274.473 117.691 275.07 117.793 275.609 117.996C276.156 118.199 276.637 118.5 277.051 118.898C277.473 119.297 277.824 119.789 278.105 120.375C278.395 120.961 278.613 121.637 278.762 122.402C278.91 123.16 278.984 124.008 278.984 124.945ZM278.047 128.027V124.863C278.047 124.09 277.988 123.375 277.871 122.719C277.762 122.062 277.594 121.477 277.367 120.961C277.148 120.445 276.867 120.008 276.523 119.648C276.188 119.289 275.793 119.016 275.34 118.828C274.887 118.641 274.379 118.547 273.816 118.547C273.113 118.547 272.496 118.695 271.965 118.992C271.434 119.281 270.992 119.699 270.641 120.246C270.297 120.793 270.035 121.457 269.855 122.238C269.684 123.02 269.598 123.895 269.598 124.863V128.027C269.598 128.793 269.652 129.504 269.762 130.16C269.871 130.809 270.039 131.395 270.266 131.918C270.492 132.441 270.773 132.887 271.109 133.254C271.453 133.613 271.852 133.891 272.305 134.086C272.758 134.281 273.27 134.379 273.84 134.379C274.551 134.379 275.168 134.23 275.691 133.934C276.223 133.629 276.66 133.199 277.004 132.645C277.355 132.09 277.617 131.422 277.789 130.641C277.961 129.859 278.047 128.988 278.047 128.027ZM282.207 120.562C282.207 120.039 282.332 119.562 282.582 119.133C282.84 118.695 283.18 118.348 283.602 118.09C284.031 117.832 284.504 117.703 285.02 117.703C285.527 117.703 285.988 117.832 286.402 118.09C286.824 118.348 287.16 118.695 287.41 119.133C287.66 119.562 287.785 120.039 287.785 120.562C287.785 121.086 287.66 121.562 287.41 121.992C287.16 122.414 286.824 122.754 286.402 123.012C285.988 123.262 285.527 123.387 285.02 123.387C284.504 123.387 284.031 123.262 283.602 123.012C283.18 122.754 282.84 122.414 282.582 121.992C282.332 121.562 282.207 121.086 282.207 120.562ZM283.016 120.562C283.016 121.141 283.207 121.621 283.59 122.004C283.973 122.379 284.449 122.566 285.02 122.566C285.582 122.566 286.047 122.379 286.414 122.004C286.781 121.621 286.965 121.141 286.965 120.562C286.965 119.969 286.781 119.48 286.414 119.098C286.047 118.707 285.582 118.512 285.02 118.512C284.449 118.512 283.973 118.707 283.59 119.098C283.207 119.48 283.016 119.969 283.016 120.562Z" fill="black"/>
<path d="M410.645 374.75H410.855V375.617H410.645C409.605 375.617 408.645 375.785 407.762 376.121C406.887 376.457 406.125 376.969 405.477 377.656C404.836 378.344 404.336 379.203 403.977 380.234C403.625 381.266 403.449 382.477 403.449 383.867V386.129C403.449 386.934 403.562 387.66 403.789 388.309C404.023 388.957 404.344 389.512 404.75 389.973C405.164 390.426 405.652 390.777 406.215 391.027C406.777 391.27 407.391 391.391 408.055 391.391C408.664 391.391 409.215 391.258 409.707 390.992C410.199 390.727 410.617 390.363 410.961 389.902C411.305 389.434 411.57 388.902 411.758 388.309C411.945 387.707 412.039 387.074 412.039 386.41C412.039 385.746 411.953 385.129 411.781 384.559C411.609 383.988 411.352 383.484 411.008 383.047C410.672 382.609 410.242 382.27 409.719 382.027C409.203 381.777 408.598 381.652 407.902 381.652C407.121 381.652 406.383 381.828 405.688 382.18C405 382.523 404.438 382.992 404 383.586C403.562 384.172 403.34 384.82 403.332 385.531L402.746 385.508C402.77 384.852 402.914 384.242 403.18 383.68C403.445 383.109 403.816 382.609 404.293 382.18C404.77 381.742 405.324 381.402 405.957 381.16C406.59 380.91 407.281 380.785 408.031 380.785C408.836 380.785 409.543 380.93 410.152 381.219C410.762 381.508 411.273 381.906 411.688 382.414C412.109 382.922 412.426 383.516 412.637 384.195C412.855 384.875 412.965 385.605 412.965 386.387C412.965 387.207 412.848 387.973 412.613 388.684C412.379 389.395 412.043 390.016 411.605 390.547C411.176 391.078 410.66 391.492 410.059 391.789C409.465 392.086 408.797 392.234 408.055 392.234C407.234 392.234 406.484 392.086 405.805 391.789C405.133 391.492 404.547 391.07 404.047 390.523C403.555 389.977 403.176 389.332 402.91 388.59C402.645 387.848 402.512 387.027 402.512 386.129V384.348C402.512 382.738 402.707 381.336 403.098 380.141C403.488 378.938 404.043 377.938 404.762 377.141C405.48 376.336 406.336 375.738 407.328 375.348C408.328 374.949 409.434 374.75 410.645 374.75ZM425.984 381.945V384.98C425.984 386.145 425.871 387.18 425.645 388.086C425.418 388.984 425.086 389.742 424.648 390.359C424.211 390.977 423.672 391.445 423.031 391.766C422.398 392.078 421.668 392.234 420.84 392.234C420.184 392.234 419.586 392.133 419.047 391.93C418.508 391.727 418.027 391.426 417.605 391.027C417.184 390.629 416.828 390.137 416.539 389.551C416.25 388.965 416.031 388.289 415.883 387.523C415.734 386.758 415.66 385.91 415.66 384.98V381.945C415.66 380.766 415.773 379.73 416 378.84C416.234 377.941 416.57 377.184 417.008 376.566C417.445 375.949 417.984 375.484 418.625 375.172C419.266 374.852 419.996 374.691 420.816 374.691C421.473 374.691 422.07 374.793 422.609 374.996C423.156 375.199 423.637 375.5 424.051 375.898C424.473 376.297 424.824 376.789 425.105 377.375C425.395 377.961 425.613 378.637 425.762 379.402C425.91 380.16 425.984 381.008 425.984 381.945ZM425.047 385.027V381.863C425.047 381.09 424.988 380.375 424.871 379.719C424.762 379.062 424.594 378.477 424.367 377.961C424.148 377.445 423.867 377.008 423.523 376.648C423.188 376.289 422.793 376.016 422.34 375.828C421.887 375.641 421.379 375.547 420.816 375.547C420.113 375.547 419.496 375.695 418.965 375.992C418.434 376.281 417.992 376.699 417.641 377.246C417.297 377.793 417.035 378.457 416.855 379.238C416.684 380.02 416.598 380.895 416.598 381.863V385.027C416.598 385.793 416.652 386.504 416.762 387.16C416.871 387.809 417.039 388.395 417.266 388.918C417.492 389.441 417.773 389.887 418.109 390.254C418.453 390.613 418.852 390.891 419.305 391.086C419.758 391.281 420.27 391.379 420.84 391.379C421.551 391.379 422.168 391.23 422.691 390.934C423.223 390.629 423.66 390.199 424.004 389.645C424.355 389.09 424.617 388.422 424.789 387.641C424.961 386.859 425.047 385.988 425.047 385.027ZM429.207 377.562C429.207 377.039 429.332 376.562 429.582 376.133C429.84 375.695 430.18 375.348 430.602 375.09C431.031 374.832 431.504 374.703 432.02 374.703C432.527 374.703 432.988 374.832 433.402 375.09C433.824 375.348 434.16 375.695 434.41 376.133C434.66 376.562 434.785 377.039 434.785 377.562C434.785 378.086 434.66 378.562 434.41 378.992C434.16 379.414 433.824 379.754 433.402 380.012C432.988 380.262 432.527 380.387 432.02 380.387C431.504 380.387 431.031 380.262 430.602 380.012C430.18 379.754 429.84 379.414 429.582 378.992C429.332 378.562 429.207 378.086 429.207 377.562ZM430.016 377.562C430.016 378.141 430.207 378.621 430.59 379.004C430.973 379.379 431.449 379.566 432.02 379.566C432.582 379.566 433.047 379.379 433.414 379.004C433.781 378.621 433.965 378.141 433.965 377.562C433.965 376.969 433.781 376.48 433.414 376.098C433.047 375.707 432.582 375.512 432.02 375.512C431.449 375.512 430.973 375.707 430.59 376.098C430.207 376.48 430.016 376.969 430.016 377.562Z" fill="black"/>
<path d="M353.777 411.004V421H352.84V408.32H353.754L353.777 411.004ZM353.625 413.688L353.156 413.148C353.219 412.477 353.375 411.836 353.625 411.227C353.883 410.617 354.223 410.078 354.645 409.609C355.074 409.141 355.578 408.77 356.156 408.496C356.742 408.223 357.395 408.086 358.113 408.086C358.746 408.086 359.312 408.172 359.812 408.344C360.32 408.508 360.75 408.77 361.102 409.129C361.453 409.48 361.723 409.941 361.91 410.512C362.098 411.082 362.191 411.766 362.191 412.562V421H361.254V412.586C361.254 411.633 361.113 410.895 360.832 410.371C360.551 409.848 360.16 409.48 359.66 409.27C359.16 409.051 358.586 408.941 357.938 408.941C357.172 408.941 356.52 409.109 355.98 409.445C355.441 409.773 355 410.191 354.656 410.699C354.32 411.199 354.07 411.719 353.906 412.258C353.742 412.797 353.648 413.273 353.625 413.688ZM362.18 412.645L361.547 412.422C361.609 411.852 361.77 411.309 362.027 410.793C362.293 410.27 362.641 409.809 363.07 409.41C363.5 409.004 364.004 408.684 364.582 408.449C365.168 408.207 365.816 408.086 366.527 408.086C367.176 408.086 367.754 408.176 368.262 408.355C368.777 408.527 369.207 408.805 369.551 409.188C369.902 409.562 370.172 410.047 370.359 410.641C370.547 411.227 370.641 411.938 370.641 412.773V421H369.703V412.762C369.703 411.762 369.562 410.984 369.281 410.43C369 409.875 368.609 409.488 368.109 409.27C367.609 409.043 367.031 408.934 366.375 408.941C365.68 408.949 365.074 409.078 364.559 409.328C364.043 409.578 363.613 409.895 363.27 410.277C362.926 410.66 362.664 411.062 362.484 411.484C362.305 411.898 362.203 412.285 362.18 412.645Z" fill="black"/>
<path d="M258.777 236.004V246H257.84V233.32H258.754L258.777 236.004ZM258.625 238.688L258.156 238.148C258.219 237.477 258.375 236.836 258.625 236.227C258.883 235.617 259.223 235.078 259.645 234.609C260.074 234.141 260.578 233.77 261.156 233.496C261.742 233.223 262.395 233.086 263.113 233.086C263.746 233.086 264.312 233.172 264.812 233.344C265.32 233.508 265.75 233.77 266.102 234.129C266.453 234.48 266.723 234.941 266.91 235.512C267.098 236.082 267.191 236.766 267.191 237.562V246H266.254V237.586C266.254 236.633 266.113 235.895 265.832 235.371C265.551 234.848 265.16 234.48 264.66 234.27C264.16 234.051 263.586 233.941 262.938 233.941C262.172 233.941 261.52 234.109 260.98 234.445C260.441 234.773 260 235.191 259.656 235.699C259.32 236.199 259.07 236.719 258.906 237.258C258.742 237.797 258.648 238.273 258.625 238.688ZM267.18 237.645L266.547 237.422C266.609 236.852 266.77 236.309 267.027 235.793C267.293 235.27 267.641 234.809 268.07 234.41C268.5 234.004 269.004 233.684 269.582 233.449C270.168 233.207 270.816 233.086 271.527 233.086C272.176 233.086 272.754 233.176 273.262 233.355C273.777 233.527 274.207 233.805 274.551 234.188C274.902 234.562 275.172 235.047 275.359 235.641C275.547 236.227 275.641 236.938 275.641 237.773V246H274.703V237.762C274.703 236.762 274.562 235.984 274.281 235.43C274 234.875 273.609 234.488 273.109 234.27C272.609 234.043 272.031 233.934 271.375 233.941C270.68 233.949 270.074 234.078 269.559 234.328C269.043 234.578 268.613 234.895 268.27 235.277C267.926 235.66 267.664 236.062 267.484 236.484C267.305 236.898 267.203 237.285 267.18 237.645Z" fill="black"/>
<path d="M372.117 222.145V223H361.723V222.191L367.312 215.781C368.016 214.977 368.586 214.258 369.023 213.625C369.461 212.984 369.781 212.398 369.984 211.867C370.188 211.336 370.289 210.824 370.289 210.332C370.289 209.574 370.141 208.914 369.844 208.352C369.547 207.789 369.105 207.352 368.52 207.039C367.934 206.719 367.211 206.559 366.352 206.559C365.555 206.559 364.844 206.742 364.219 207.109C363.602 207.477 363.117 207.98 362.766 208.621C362.422 209.254 362.25 209.977 362.25 210.789H361.324C361.324 209.859 361.531 209.012 361.945 208.246C362.359 207.473 362.941 206.855 363.691 206.395C364.449 205.934 365.336 205.703 366.352 205.703C367.352 205.703 368.215 205.883 368.941 206.242C369.668 206.594 370.23 207.109 370.629 207.789C371.027 208.469 371.227 209.301 371.227 210.285C371.227 210.801 371.129 211.324 370.934 211.855C370.746 212.387 370.484 212.918 370.148 213.449C369.82 213.973 369.449 214.492 369.035 215.008C368.629 215.523 368.207 216.031 367.77 216.531L362.906 222.145H372.117ZM375.996 213.004V223H375.059V210.32H375.973L375.996 213.004ZM375.844 215.688L375.375 215.148C375.438 214.477 375.594 213.836 375.844 213.227C376.102 212.617 376.441 212.078 376.863 211.609C377.293 211.141 377.797 210.77 378.375 210.496C378.961 210.223 379.613 210.086 380.332 210.086C380.965 210.086 381.531 210.172 382.031 210.344C382.539 210.508 382.969 210.77 383.32 211.129C383.672 211.48 383.941 211.941 384.129 212.512C384.316 213.082 384.41 213.766 384.41 214.562V223H383.473V214.586C383.473 213.633 383.332 212.895 383.051 212.371C382.77 211.848 382.379 211.48 381.879 211.27C381.379 211.051 380.805 210.941 380.156 210.941C379.391 210.941 378.738 211.109 378.199 211.445C377.66 211.773 377.219 212.191 376.875 212.699C376.539 213.199 376.289 213.719 376.125 214.258C375.961 214.797 375.867 215.273 375.844 215.688ZM384.398 214.645L383.766 214.422C383.828 213.852 383.988 213.309 384.246 212.793C384.512 212.27 384.859 211.809 385.289 211.41C385.719 211.004 386.223 210.684 386.801 210.449C387.387 210.207 388.035 210.086 388.746 210.086C389.395 210.086 389.973 210.176 390.48 210.355C390.996 210.527 391.426 210.805 391.77 211.188C392.121 211.562 392.391 212.047 392.578 212.641C392.766 213.227 392.859 213.938 392.859 214.773V223H391.922V214.762C391.922 213.762 391.781 212.984 391.5 212.43C391.219 211.875 390.828 211.488 390.328 211.27C389.828 211.043 389.25 210.934 388.594 210.941C387.898 210.949 387.293 211.078 386.777 211.328C386.262 211.578 385.832 211.895 385.488 212.277C385.145 212.66 384.883 213.062 384.703 213.484C384.523 213.898 384.422 214.285 384.398 214.645Z" fill="black"/>
<path d="M251.973 424H247.93L247.953 423.133H251.973C253.199 423.133 254.277 422.848 255.207 422.277C256.145 421.707 256.879 420.918 257.41 419.91C257.941 418.895 258.207 417.727 258.207 416.406V414.496C258.207 413.512 258.055 412.609 257.75 411.789C257.445 410.969 257.016 410.262 256.461 409.668C255.914 409.074 255.262 408.617 254.504 408.297C253.746 407.969 252.918 407.805 252.02 407.805H247.859V406.938H252.02C253.043 406.938 253.988 407.121 254.855 407.488C255.73 407.848 256.488 408.363 257.129 409.035C257.77 409.699 258.266 410.5 258.617 411.438C258.977 412.367 259.156 413.398 259.156 414.531V416.406C259.156 417.539 258.977 418.574 258.617 419.512C258.266 420.441 257.766 421.242 257.117 421.914C256.477 422.578 255.719 423.094 254.844 423.461C253.977 423.82 253.02 424 251.973 424ZM248.223 406.938V424H247.273V406.938H248.223Z" fill="black"/>
<path d="M256.113 36.7383H257.062C256.945 37.9336 256.625 38.9414 256.102 39.7617C255.578 40.5742 254.875 41.1914 253.992 41.6133C253.117 42.0273 252.086 42.2344 250.898 42.2344C249.953 42.2344 249.094 42.0547 248.32 41.6953C247.555 41.3281 246.895 40.8125 246.34 40.1484C245.793 39.4766 245.371 38.6758 245.074 37.7461C244.777 36.8164 244.629 35.7891 244.629 34.6641V32.2734C244.629 31.1406 244.777 30.1133 245.074 29.1914C245.371 28.2617 245.793 27.4648 246.34 26.8008C246.895 26.1289 247.559 25.6133 248.332 25.2539C249.113 24.8867 249.984 24.7031 250.945 24.7031C252.109 24.7031 253.129 24.9102 254.004 25.3242C254.879 25.7383 255.578 26.3555 256.102 27.1758C256.625 27.9883 256.945 28.9922 257.062 30.1875H256.113C255.996 29.1953 255.727 28.3594 255.305 27.6797C254.891 26.9922 254.32 26.4688 253.594 26.1094C252.867 25.75 251.984 25.5703 250.945 25.5703C250.125 25.5703 249.387 25.7305 248.73 26.0508C248.074 26.3633 247.512 26.8164 247.043 27.4102C246.574 27.9961 246.211 28.6992 245.953 29.5195C245.703 30.332 245.578 31.2422 245.578 32.25V34.6641C245.578 35.6562 245.703 36.5664 245.953 37.3945C246.203 38.2148 246.559 38.9219 247.02 39.5156C247.48 40.1016 248.039 40.5586 248.695 40.8867C249.352 41.207 250.086 41.3672 250.898 41.3672C251.938 41.3672 252.824 41.2031 253.559 40.875C254.293 40.5391 254.871 40.0273 255.293 39.3398C255.723 38.6523 255.996 37.7852 256.113 36.7383Z" fill="black"/>
<path d="M468.039 396.656H462.93L462.906 395.801H467.184C468.137 395.801 468.941 395.672 469.598 395.414C470.254 395.156 470.75 394.77 471.086 394.254C471.422 393.73 471.59 393.078 471.59 392.297C471.59 391.516 471.418 390.867 471.074 390.352C470.73 389.836 470.215 389.449 469.527 389.191C468.848 388.934 467.996 388.805 466.973 388.805H463.223V405H462.273V387.938H466.973C467.84 387.938 468.617 388.023 469.305 388.195C469.992 388.367 470.574 388.637 471.051 389.004C471.535 389.363 471.906 389.82 472.164 390.375C472.422 390.93 472.551 391.586 472.551 392.344C472.551 393.047 472.41 393.68 472.129 394.242C471.848 394.805 471.441 395.266 470.91 395.625C470.387 395.977 469.746 396.191 468.988 396.27L468.039 396.656ZM467.922 405H462.73L463.141 404.133H467.922C468.836 404.133 469.617 403.98 470.266 403.676C470.922 403.363 471.426 402.922 471.777 402.352C472.137 401.773 472.316 401.082 472.316 400.277C472.316 399.629 472.16 399.031 471.848 398.484C471.535 397.93 471.062 397.488 470.43 397.16C469.797 396.824 469 396.656 468.039 396.656H465.18L465.203 395.801H469.316L469.445 396.105C470.188 396.191 470.844 396.43 471.414 396.82C471.992 397.211 472.445 397.707 472.773 398.309C473.102 398.902 473.266 399.551 473.266 400.254C473.266 401.277 473.039 402.141 472.586 402.844C472.133 403.547 471.504 404.082 470.699 404.449C469.902 404.816 468.977 405 467.922 405Z" fill="black"/>
<path d="M282.688 244.11L279.52 237.108C279.394 236.82 279.304 236.82 279.25 236.82C279.232 236.82 279.142 236.82 278.944 236.964L277.234 238.26C277 238.44 277 238.494 277 238.548C277 238.638 277.054 238.746 277.18 238.746C277.288 238.746 277.594 238.494 277.792 238.35C277.9 238.26 278.17 238.062 278.368 237.918L281.914 245.712C282.04 246 282.13 246 282.292 246C282.562 246 282.616 245.892 282.742 245.64L290.914 228.72C291.04 228.468 291.04 228.396 291.04 228.36C291.04 228.18 290.896 228 290.68 228C290.536 228 290.41 228.09 290.266 228.378L282.688 244.11Z" fill="black"/>
<path d="M299.498 228H290.686V228.72H299.498V228Z" fill="black"/>
<path d="M293.998 238.027C293.692 238.045 293.62 238.063 293.62 238.225C293.62 238.405 293.71 238.405 294.034 238.405H294.862C296.392 238.405 297.076 239.665 297.076 241.393C297.076 243.751 295.852 244.381 294.97 244.381C294.106 244.381 292.63 243.967 292.108 242.779C292.684 242.869 293.206 242.545 293.206 241.897C293.206 241.375 292.828 241.015 292.324 241.015C291.892 241.015 291.424 241.267 291.424 241.951C291.424 243.553 293.026 244.867 295.024 244.867C297.166 244.867 298.75 243.229 298.75 241.411C298.75 239.755 297.418 238.459 295.69 238.153C297.256 237.703 298.264 236.389 298.264 234.985C298.264 233.563 296.788 232.519 295.042 232.519C293.242 232.519 291.91 233.617 291.91 234.931C291.91 235.651 292.468 235.795 292.738 235.795C293.116 235.795 293.548 235.525 293.548 234.985C293.548 234.409 293.116 234.157 292.72 234.157C292.612 234.157 292.576 234.157 292.522 234.175C293.206 232.951 294.898 232.951 294.988 232.951C295.582 232.951 296.752 233.221 296.752 234.985C296.752 235.327 296.698 236.335 296.176 237.109C295.636 237.901 295.024 237.955 294.538 237.973L293.998 238.027Z" fill="black"/>
</svg>
