<svg width="500" height="500" viewBox="0 0 500 500" fill="none" xmlns="http://www.w3.org/2000/svg">
<rect width="500" height="500" fill="#F5F5F5"/>
<rect width="500" height="500" fill="white"/>
<rect x="431" y="431" width="18" height="18" stroke="#BBBBBB" stroke-width="2"/>
<line x1="49.2929" y1="449.293" x2="449.515" y2="49.0705" stroke="black" stroke-width="2"/>
<line x1="50" y1="449" x2="450" y2="449" stroke="black" stroke-width="2"/>
<line x1="449" y1="450" x2="449" y2="50" stroke="black" stroke-width="2"/>
<path d="M32.4531 445.664L26.3828 462H25.375L31.7852 444.938H32.5703L32.4531 445.664ZM38.1953 462L32.1367 445.664L32.0195 444.938H32.793L39.2148 462H38.1953ZM36.6953 456.152V457.031H27.9414V456.152H36.6953Z" fill="black"/>
<path d="M242.066 464.004V474H241.129V461.32H242.043L242.066 464.004ZM241.914 466.688L241.445 466.148C241.508 465.477 241.664 464.836 241.914 464.227C242.172 463.617 242.512 463.078 242.934 462.609C243.363 462.141 243.867 461.77 244.445 461.496C245.031 461.223 245.684 461.086 246.402 461.086C247.035 461.086 247.602 461.172 248.102 461.344C248.609 461.508 249.039 461.77 249.391 462.129C249.742 462.48 250.012 462.941 250.199 463.512C250.387 464.082 250.48 464.766 250.48 465.562V474H249.543V465.586C249.543 464.633 249.402 463.895 249.121 463.371C248.84 462.848 248.449 462.48 247.949 462.27C247.449 462.051 246.875 461.941 246.227 461.941C245.461 461.941 244.809 462.109 244.27 462.445C243.73 462.773 243.289 463.191 242.945 463.699C242.609 464.199 242.359 464.719 242.195 465.258C242.031 465.797 241.938 466.273 241.914 466.688ZM250.469 465.645L249.836 465.422C249.898 464.852 250.059 464.309 250.316 463.793C250.582 463.27 250.93 462.809 251.359 462.41C251.789 462.004 252.293 461.684 252.871 461.449C253.457 461.207 254.105 461.086 254.816 461.086C255.465 461.086 256.043 461.176 256.551 461.355C257.066 461.527 257.496 461.805 257.84 462.188C258.191 462.562 258.461 463.047 258.648 463.641C258.836 464.227 258.93 464.938 258.93 465.773V474H257.992V465.762C257.992 464.762 257.852 463.984 257.57 463.43C257.289 462.875 256.898 462.488 256.398 462.27C255.898 462.043 255.32 461.934 254.664 461.941C253.969 461.949 253.363 462.078 252.848 462.328C252.332 462.578 251.902 462.895 251.559 463.277C251.215 463.66 250.953 464.062 250.773 464.484C250.594 464.898 250.492 465.285 250.469 465.645Z" fill="black"/>
<path d="M462.066 240.004V250H461.129V237.32H462.043L462.066 240.004ZM461.914 242.688L461.445 242.148C461.508 241.477 461.664 240.836 461.914 240.227C462.172 239.617 462.512 239.078 462.934 238.609C463.363 238.141 463.867 237.77 464.445 237.496C465.031 237.223 465.684 237.086 466.402 237.086C467.035 237.086 467.602 237.172 468.102 237.344C468.609 237.508 469.039 237.77 469.391 238.129C469.742 238.48 470.012 238.941 470.199 239.512C470.387 240.082 470.48 240.766 470.48 241.562V250H469.543V241.586C469.543 240.633 469.402 239.895 469.121 239.371C468.84 238.848 468.449 238.48 467.949 238.27C467.449 238.051 466.875 237.941 466.227 237.941C465.461 237.941 464.809 238.109 464.27 238.445C463.73 238.773 463.289 239.191 462.945 239.699C462.609 240.199 462.359 240.719 462.195 241.258C462.031 241.797 461.938 242.273 461.914 242.688ZM470.469 241.645L469.836 241.422C469.898 240.852 470.059 240.309 470.316 239.793C470.582 239.27 470.93 238.809 471.359 238.41C471.789 238.004 472.293 237.684 472.871 237.449C473.457 237.207 474.105 237.086 474.816 237.086C475.465 237.086 476.043 237.176 476.551 237.355C477.066 237.527 477.496 237.805 477.84 238.188C478.191 238.562 478.461 239.047 478.648 239.641C478.836 240.227 478.93 240.938 478.93 241.773V250H477.992V241.762C477.992 240.762 477.852 239.984 477.57 239.43C477.289 238.875 476.898 238.488 476.398 238.27C475.898 238.043 475.32 237.934 474.664 237.941C473.969 237.949 473.363 238.078 472.848 238.328C472.332 238.578 471.902 238.895 471.559 239.277C471.215 239.66 470.953 240.062 470.773 240.484C470.594 240.898 470.492 241.285 470.469 241.645Z" fill="black"/>
<path d="M202.066 234.004V244H201.129V231.32H202.043L202.066 234.004ZM201.914 236.688L201.445 236.148C201.508 235.477 201.664 234.836 201.914 234.227C202.172 233.617 202.512 233.078 202.934 232.609C203.363 232.141 203.867 231.77 204.445 231.496C205.031 231.223 205.684 231.086 206.402 231.086C207.035 231.086 207.602 231.172 208.102 231.344C208.609 231.508 209.039 231.77 209.391 232.129C209.742 232.48 210.012 232.941 210.199 233.512C210.387 234.082 210.48 234.766 210.48 235.562V244H209.543V235.586C209.543 234.633 209.402 233.895 209.121 233.371C208.84 232.848 208.449 232.48 207.949 232.27C207.449 232.051 206.875 231.941 206.227 231.941C205.461 231.941 204.809 232.109 204.27 232.445C203.73 232.773 203.289 233.191 202.945 233.699C202.609 234.199 202.359 234.719 202.195 235.258C202.031 235.797 201.938 236.273 201.914 236.688ZM210.469 235.645L209.836 235.422C209.898 234.852 210.059 234.309 210.316 233.793C210.582 233.27 210.93 232.809 211.359 232.41C211.789 232.004 212.293 231.684 212.871 231.449C213.457 231.207 214.105 231.086 214.816 231.086C215.465 231.086 216.043 231.176 216.551 231.355C217.066 231.527 217.496 231.805 217.84 232.188C218.191 232.562 218.461 233.047 218.648 233.641C218.836 234.227 218.93 234.938 218.93 235.773V244H217.992V235.762C217.992 234.762 217.852 233.984 217.57 233.43C217.289 232.875 216.898 232.488 216.398 232.27C215.898 232.043 215.32 231.934 214.664 231.941C213.969 231.949 213.363 232.078 212.848 232.328C212.332 232.578 211.902 232.895 211.559 233.277C211.215 233.66 210.953 234.062 210.773 234.484C210.594 234.898 210.492 235.285 210.469 235.645Z" fill="black"/>
<path d="M91.8438 435.621V436.477H79.8906V435.949L87.9414 423.938H88.7617L87.2266 426.516L81.168 435.621H91.8438ZM89.0078 423.938V441H88.0703V423.938H89.0078ZM95.5938 432.375L94.8672 432.141L95.6758 423.938H104.09V424.828H96.4961L95.8398 431.238C96.1289 431.012 96.582 430.781 97.1992 430.547C97.8164 430.305 98.5078 430.184 99.2734 430.184C100.023 430.184 100.703 430.309 101.312 430.559C101.93 430.801 102.465 431.156 102.918 431.625C103.371 432.086 103.719 432.648 103.961 433.312C104.203 433.969 104.324 434.719 104.324 435.562C104.324 436.383 104.23 437.137 104.043 437.824C103.855 438.512 103.562 439.113 103.164 439.629C102.773 440.137 102.266 440.531 101.641 440.812C101.016 441.094 100.27 441.234 99.4023 441.234C98.7305 441.234 98.0977 441.141 97.5039 440.953C96.918 440.758 96.3945 440.465 95.9336 440.074C95.4805 439.684 95.1094 439.191 94.8203 438.598C94.5312 438.004 94.3555 437.309 94.293 436.512H95.207C95.293 437.348 95.5078 438.055 95.8516 438.633C96.2031 439.203 96.6758 439.637 97.2695 439.934C97.8711 440.23 98.582 440.379 99.4023 440.379C100.066 440.379 100.645 440.277 101.137 440.074C101.637 439.863 102.051 439.555 102.379 439.148C102.715 438.742 102.965 438.242 103.129 437.648C103.293 437.047 103.375 436.359 103.375 435.586C103.375 434.938 103.285 434.344 103.105 433.805C102.926 433.258 102.656 432.781 102.297 432.375C101.938 431.961 101.496 431.641 100.973 431.414C100.457 431.188 99.8633 431.074 99.1914 431.074C98.3242 431.074 97.6172 431.191 97.0703 431.426C96.5234 431.66 96.0312 431.977 95.5938 432.375ZM107.207 426.562C107.207 426.039 107.332 425.562 107.582 425.133C107.84 424.695 108.18 424.348 108.602 424.09C109.031 423.832 109.504 423.703 110.02 423.703C110.527 423.703 110.988 423.832 111.402 424.09C111.824 424.348 112.16 424.695 112.41 425.133C112.66 425.562 112.785 426.039 112.785 426.562C112.785 427.086 112.66 427.562 112.41 427.992C112.16 428.414 111.824 428.754 111.402 429.012C110.988 429.262 110.527 429.387 110.02 429.387C109.504 429.387 109.031 429.262 108.602 429.012C108.18 428.754 107.84 428.414 107.582 427.992C107.332 427.562 107.207 427.086 107.207 426.562ZM108.016 426.562C108.016 427.141 108.207 427.621 108.59 428.004C108.973 428.379 109.449 428.566 110.02 428.566C110.582 428.566 111.047 428.379 111.414 428.004C111.781 427.621 111.965 427.141 111.965 426.562C111.965 425.969 111.781 425.48 111.414 425.098C111.047 424.707 110.582 424.512 110.02 424.512C109.449 424.512 108.973 424.707 108.59 425.098C108.207 425.48 108.016 425.969 108.016 426.562Z" fill="black"/>
<path d="M422.844 100.621V101.477H410.891V100.949L418.941 88.9375H419.762L418.227 91.5156L412.168 100.621H422.844ZM420.008 88.9375V106H419.07V88.9375H420.008ZM426.594 97.375L425.867 97.1406L426.676 88.9375H435.09V89.8281H427.496L426.84 96.2383C427.129 96.0117 427.582 95.7812 428.199 95.5469C428.816 95.3047 429.508 95.1836 430.273 95.1836C431.023 95.1836 431.703 95.3086 432.312 95.5586C432.93 95.8008 433.465 96.1562 433.918 96.625C434.371 97.0859 434.719 97.6484 434.961 98.3125C435.203 98.9688 435.324 99.7188 435.324 100.562C435.324 101.383 435.23 102.137 435.043 102.824C434.855 103.512 434.562 104.113 434.164 104.629C433.773 105.137 433.266 105.531 432.641 105.812C432.016 106.094 431.27 106.234 430.402 106.234C429.73 106.234 429.098 106.141 428.504 105.953C427.918 105.758 427.395 105.465 426.934 105.074C426.48 104.684 426.109 104.191 425.82 103.598C425.531 103.004 425.355 102.309 425.293 101.512H426.207C426.293 102.348 426.508 103.055 426.852 103.633C427.203 104.203 427.676 104.637 428.27 104.934C428.871 105.23 429.582 105.379 430.402 105.379C431.066 105.379 431.645 105.277 432.137 105.074C432.637 104.863 433.051 104.555 433.379 104.148C433.715 103.742 433.965 103.242 434.129 102.648C434.293 102.047 434.375 101.359 434.375 100.586C434.375 99.9375 434.285 99.3438 434.105 98.8047C433.926 98.2578 433.656 97.7812 433.297 97.375C432.938 96.9609 432.496 96.6406 431.973 96.4141C431.457 96.1875 430.863 96.0742 430.191 96.0742C429.324 96.0742 428.617 96.1914 428.07 96.4258C427.523 96.6602 427.031 96.9766 426.594 97.375ZM438.207 91.5625C438.207 91.0391 438.332 90.5625 438.582 90.1328C438.84 89.6953 439.18 89.3477 439.602 89.0898C440.031 88.832 440.504 88.7031 441.02 88.7031C441.527 88.7031 441.988 88.832 442.402 89.0898C442.824 89.3477 443.16 89.6953 443.41 90.1328C443.66 90.5625 443.785 91.0391 443.785 91.5625C443.785 92.0859 443.66 92.5625 443.41 92.9922C443.16 93.4141 442.824 93.7539 442.402 94.0117C441.988 94.2617 441.527 94.3867 441.02 94.3867C440.504 94.3867 440.031 94.2617 439.602 94.0117C439.18 93.7539 438.84 93.4141 438.582 92.9922C438.332 92.5625 438.207 92.0859 438.207 91.5625ZM439.016 91.5625C439.016 92.1406 439.207 92.6211 439.59 93.0039C439.973 93.3789 440.449 93.5664 441.02 93.5664C441.582 93.5664 442.047 93.3789 442.414 93.0039C442.781 92.6211 442.965 92.1406 442.965 91.5625C442.965 90.9688 442.781 90.4805 442.414 90.0977C442.047 89.707 441.582 89.5117 441.02 89.5117C440.449 89.5117 439.973 89.707 439.59 90.0977C439.207 90.4805 439.016 90.9688 439.016 91.5625Z" fill="black"/>
<path d="M468.039 449.656H462.93L462.906 448.801H467.184C468.137 448.801 468.941 448.672 469.598 448.414C470.254 448.156 470.75 447.77 471.086 447.254C471.422 446.73 471.59 446.078 471.59 445.297C471.59 444.516 471.418 443.867 471.074 443.352C470.73 442.836 470.215 442.449 469.527 442.191C468.848 441.934 467.996 441.805 466.973 441.805H463.223V458H462.273V440.938H466.973C467.84 440.938 468.617 441.023 469.305 441.195C469.992 441.367 470.574 441.637 471.051 442.004C471.535 442.363 471.906 442.82 472.164 443.375C472.422 443.93 472.551 444.586 472.551 445.344C472.551 446.047 472.41 446.68 472.129 447.242C471.848 447.805 471.441 448.266 470.91 448.625C470.387 448.977 469.746 449.191 468.988 449.27L468.039 449.656ZM467.922 458H462.73L463.141 457.133H467.922C468.836 457.133 469.617 456.98 470.266 456.676C470.922 456.363 471.426 455.922 471.777 455.352C472.137 454.773 472.316 454.082 472.316 453.277C472.316 452.629 472.16 452.031 471.848 451.484C471.535 450.93 471.062 450.488 470.43 450.16C469.797 449.824 469 449.656 468.039 449.656H465.18L465.203 448.801H469.316L469.445 449.105C470.188 449.191 470.844 449.43 471.414 449.82C471.992 450.211 472.445 450.707 472.773 451.309C473.102 451.902 473.266 452.551 473.266 453.254C473.266 454.277 473.039 455.141 472.586 455.844C472.133 456.547 471.504 457.082 470.699 457.449C469.902 457.816 468.977 458 467.922 458Z" fill="black"/>
<path d="M457.113 32.7383H458.062C457.945 33.9336 457.625 34.9414 457.102 35.7617C456.578 36.5742 455.875 37.1914 454.992 37.6133C454.117 38.0273 453.086 38.2344 451.898 38.2344C450.953 38.2344 450.094 38.0547 449.32 37.6953C448.555 37.3281 447.895 36.8125 447.34 36.1484C446.793 35.4766 446.371 34.6758 446.074 33.7461C445.777 32.8164 445.629 31.7891 445.629 30.6641V28.2734C445.629 27.1406 445.777 26.1133 446.074 25.1914C446.371 24.2617 446.793 23.4648 447.34 22.8008C447.895 22.1289 448.559 21.6133 449.332 21.2539C450.113 20.8867 450.984 20.7031 451.945 20.7031C453.109 20.7031 454.129 20.9102 455.004 21.3242C455.879 21.7383 456.578 22.3555 457.102 23.1758C457.625 23.9883 457.945 24.9922 458.062 26.1875H457.113C456.996 25.1953 456.727 24.3594 456.305 23.6797C455.891 22.9922 455.32 22.4688 454.594 22.1094C453.867 21.75 452.984 21.5703 451.945 21.5703C451.125 21.5703 450.387 21.7305 449.73 22.0508C449.074 22.3633 448.512 22.8164 448.043 23.4102C447.574 23.9961 447.211 24.6992 446.953 25.5195C446.703 26.332 446.578 27.2422 446.578 28.25V30.6641C446.578 31.6562 446.703 32.5664 446.953 33.3945C447.203 34.2148 447.559 34.9219 448.02 35.5156C448.48 36.1016 449.039 36.5586 449.695 36.8867C450.352 37.207 451.086 37.3672 451.898 37.3672C452.938 37.3672 453.824 37.2031 454.559 36.875C455.293 36.5391 455.871 36.0273 456.293 35.3398C456.723 34.6523 456.996 33.7852 457.113 32.7383Z" fill="black"/>
<path d="M226.692 244.121L223.522 237.114C223.396 236.826 223.306 236.826 223.252 236.826C223.234 236.826 223.143 236.826 222.945 236.97L221.234 238.267C221 238.447 221 238.501 221 238.555C221 238.645 221.054 238.753 221.18 238.753C221.288 238.753 221.594 238.501 221.793 238.357C221.901 238.267 222.171 238.069 222.369 237.925L225.917 245.724C226.043 246.012 226.134 246.012 226.296 246.012C226.566 246.012 226.62 245.904 226.746 245.652L234.924 228.72C235.05 228.468 235.05 228.396 235.05 228.36C235.05 228.18 234.906 228 234.689 228C234.545 228 234.419 228.09 234.275 228.378L226.692 244.121Z" fill="black"/>
<path d="M243.514 228H234.696V228.72H243.514V228Z" fill="black"/>
<path d="M242.621 241.474H242.225C242.171 241.78 242.027 242.771 241.846 243.059C241.72 243.221 240.694 243.221 240.153 243.221H236.821C237.307 242.807 238.406 241.654 238.874 241.222C241.612 238.7 242.621 237.763 242.621 235.98C242.621 233.909 240.982 232.522 238.892 232.522C236.803 232.522 235.578 234.305 235.578 235.854C235.578 236.773 236.371 236.773 236.425 236.773C236.803 236.773 237.271 236.503 237.271 235.926C237.271 235.422 236.929 235.08 236.425 235.08C236.263 235.08 236.227 235.08 236.173 235.098C236.515 233.873 237.487 233.044 238.658 233.044C240.189 233.044 241.126 234.323 241.126 235.98C241.126 237.511 240.243 238.844 239.217 239.997L235.578 244.068V244.5H242.153L242.621 241.474Z" fill="black"/>
</svg>
