<svg width="360" height="500" viewBox="0 0 360 500" fill="none" xmlns="http://www.w3.org/2000/svg">
<rect width="360" height="500" fill="#F5F5F5"/>
<rect width="360" height="500" fill="white"/>
<rect x="179" y="431" width="18" height="18" stroke="#BBBBBB" stroke-width="2"/>
<line x1="50" y1="449" x2="309" y2="449" stroke="black" stroke-width="2"/>
<line x1="49.0489" y1="449.691" x2="178.836" y2="50.2472" stroke="black" stroke-width="2"/>
<line x1="178.951" y1="49.691" x2="308.738" y2="449.135" stroke="black" stroke-width="2"/>
<line x1="179" y1="450" x2="179" y2="50" stroke="black" stroke-width="2"/>
<line x1="49.4122" y1="449.191" x2="259.757" y2="296.367" stroke="black" stroke-width="2"/>
<path d="M38.2109 444.387L33.1523 458H32.3125L37.6543 443.781H38.3086L38.2109 444.387ZM42.9961 458L37.9473 444.387L37.8496 443.781H38.4941L43.8457 458H42.9961ZM41.7461 453.127V453.859H34.4512V453.127H41.7461Z" fill="black"/>
<path d="M90.0234 434.383H91.1465C91.9408 434.383 92.6081 434.249 93.1484 433.982C93.6888 433.709 94.0957 433.351 94.3691 432.908C94.6426 432.459 94.7793 431.967 94.7793 431.434C94.7793 430.848 94.6621 430.317 94.4277 429.842C94.1999 429.367 93.8418 428.992 93.3535 428.719C92.8717 428.439 92.25 428.299 91.4883 428.299C90.8438 428.299 90.2611 428.429 89.7402 428.689C89.2194 428.95 88.8027 429.321 88.4902 429.803C88.1842 430.278 88.0312 430.848 88.0312 431.512H87.2598C87.2598 430.717 87.4486 430.027 87.8262 429.441C88.2038 428.849 88.7116 428.393 89.3496 428.074C89.9941 427.749 90.707 427.586 91.4883 427.586C92.3151 427.586 93.0312 427.742 93.6367 428.055C94.2487 428.361 94.7207 428.803 95.0527 429.383C95.3913 429.962 95.5605 430.659 95.5605 431.473C95.5605 431.935 95.4596 432.378 95.2578 432.801C95.0625 433.224 94.776 433.602 94.3984 433.934C94.0273 434.259 93.5749 434.52 93.041 434.715C92.5072 434.904 91.9017 434.998 91.2246 434.998H90.0234V434.383ZM90.0234 435.115V434.52H91.2246C91.9798 434.52 92.6439 434.604 93.2168 434.773C93.7897 434.943 94.2715 435.19 94.6621 435.516C95.0592 435.835 95.3555 436.222 95.5508 436.678C95.7526 437.127 95.8535 437.632 95.8535 438.191C95.8535 438.829 95.7461 439.396 95.5312 439.891C95.3229 440.385 95.0267 440.805 94.6426 441.15C94.2585 441.495 93.8027 441.756 93.2754 441.932C92.7546 442.107 92.1849 442.195 91.5664 442.195C91.013 442.195 90.4661 442.114 89.9258 441.951C89.3854 441.782 88.8939 441.528 88.4512 441.189C88.0085 440.851 87.6536 440.424 87.3867 439.91C87.1198 439.389 86.9863 438.781 86.9863 438.084H87.7676C87.7676 438.748 87.9303 439.334 88.2559 439.842C88.5879 440.35 89.0404 440.75 89.6133 441.043C90.1862 441.336 90.8372 441.482 91.5664 441.482C92.3086 441.482 92.9401 441.355 93.4609 441.102C93.9883 440.841 94.3887 440.47 94.6621 439.988C94.9355 439.5 95.0723 438.914 95.0723 438.23C95.0723 437.495 94.9062 436.899 94.5742 436.443C94.2422 435.981 93.7799 435.646 93.1875 435.438C92.5951 435.223 91.9147 435.115 91.1465 435.115H90.0234ZM105.053 427.625H105.229V428.348H105.053C104.187 428.348 103.386 428.488 102.65 428.768C101.921 429.048 101.286 429.474 100.746 430.047C100.212 430.62 99.7956 431.336 99.4961 432.195C99.2031 433.055 99.0566 434.064 99.0566 435.223V437.107C99.0566 437.778 99.151 438.383 99.3398 438.924C99.5352 439.464 99.8021 439.926 100.141 440.311C100.486 440.688 100.893 440.981 101.361 441.189C101.83 441.391 102.341 441.492 102.895 441.492C103.402 441.492 103.861 441.382 104.271 441.16C104.682 440.939 105.03 440.636 105.316 440.252C105.603 439.861 105.824 439.419 105.98 438.924C106.137 438.423 106.215 437.895 106.215 437.342C106.215 436.788 106.143 436.274 106 435.799C105.857 435.324 105.642 434.904 105.355 434.539C105.076 434.174 104.717 433.891 104.281 433.689C103.852 433.481 103.347 433.377 102.768 433.377C102.117 433.377 101.501 433.523 100.922 433.816C100.349 434.103 99.8802 434.493 99.5156 434.988C99.151 435.477 98.9655 436.017 98.959 436.609L98.4707 436.59C98.4902 436.043 98.6107 435.535 98.832 435.066C99.0534 434.591 99.3626 434.174 99.7598 433.816C100.157 433.452 100.619 433.169 101.146 432.967C101.674 432.758 102.25 432.654 102.875 432.654C103.546 432.654 104.135 432.775 104.643 433.016C105.15 433.257 105.577 433.589 105.922 434.012C106.273 434.435 106.537 434.93 106.713 435.496C106.895 436.062 106.986 436.671 106.986 437.322C106.986 438.006 106.889 438.644 106.693 439.236C106.498 439.829 106.218 440.346 105.854 440.789C105.495 441.232 105.066 441.577 104.564 441.824C104.07 442.072 103.513 442.195 102.895 442.195C102.211 442.195 101.586 442.072 101.02 441.824C100.46 441.577 99.9714 441.225 99.5547 440.77C99.1445 440.314 98.8288 439.777 98.6074 439.158C98.3861 438.54 98.2754 437.856 98.2754 437.107V435.623C98.2754 434.282 98.4382 433.113 98.7637 432.117C99.0892 431.115 99.5514 430.281 100.15 429.617C100.749 428.947 101.462 428.449 102.289 428.123C103.122 427.791 104.044 427.625 105.053 427.625ZM109.506 429.969C109.506 429.533 109.61 429.135 109.818 428.777C110.033 428.413 110.316 428.123 110.668 427.908C111.026 427.693 111.42 427.586 111.85 427.586C112.273 427.586 112.657 427.693 113.002 427.908C113.354 428.123 113.633 428.413 113.842 428.777C114.05 429.135 114.154 429.533 114.154 429.969C114.154 430.405 114.05 430.802 113.842 431.16C113.633 431.512 113.354 431.795 113.002 432.01C112.657 432.218 112.273 432.322 111.85 432.322C111.42 432.322 111.026 432.218 110.668 432.01C110.316 431.795 110.033 431.512 109.818 431.16C109.61 430.802 109.506 430.405 109.506 429.969ZM110.18 429.969C110.18 430.451 110.339 430.851 110.658 431.17C110.977 431.482 111.374 431.639 111.85 431.639C112.318 431.639 112.706 431.482 113.012 431.17C113.318 430.851 113.471 430.451 113.471 429.969C113.471 429.474 113.318 429.067 113.012 428.748C112.706 428.423 112.318 428.26 111.85 428.26C111.374 428.26 110.977 428.423 110.658 428.748C110.339 429.067 110.18 429.474 110.18 429.969Z" fill="black"/>
<path d="M154.572 147.732V162H153.791V148.738L149.797 150.232V149.451L154.426 147.732H154.572ZM169.074 158.27C169.074 159.129 168.872 159.852 168.469 160.438C168.065 161.023 167.521 161.463 166.838 161.756C166.161 162.049 165.399 162.195 164.553 162.195C163.7 162.195 162.928 162.049 162.238 161.756C161.555 161.463 161.014 161.023 160.617 160.438C160.22 159.852 160.021 159.129 160.021 158.27C160.021 157.71 160.135 157.199 160.363 156.736C160.591 156.268 160.907 155.867 161.311 155.535C161.721 155.197 162.199 154.936 162.746 154.754C163.293 154.572 163.889 154.48 164.533 154.48C165.38 154.48 166.145 154.643 166.828 154.969C167.518 155.288 168.065 155.73 168.469 156.297C168.872 156.863 169.074 157.521 169.074 158.27ZM168.293 158.299C168.293 157.648 168.124 157.081 167.785 156.6C167.453 156.118 167.004 155.743 166.438 155.477C165.871 155.21 165.236 155.076 164.533 155.076C163.824 155.076 163.186 155.21 162.619 155.477C162.053 155.743 161.607 156.118 161.281 156.6C160.956 157.081 160.793 157.648 160.793 158.299C160.793 158.982 160.956 159.562 161.281 160.037C161.607 160.512 162.053 160.874 162.619 161.121C163.192 161.362 163.837 161.482 164.553 161.482C165.262 161.482 165.897 161.362 166.457 161.121C167.023 160.874 167.469 160.512 167.795 160.037C168.127 159.562 168.293 158.982 168.293 158.299ZM168.684 151.414C168.684 152.111 168.498 152.729 168.127 153.27C167.756 153.803 167.258 154.223 166.633 154.529C166.014 154.829 165.318 154.979 164.543 154.979C163.755 154.979 163.049 154.829 162.424 154.529C161.799 154.223 161.304 153.803 160.939 153.27C160.581 152.729 160.402 152.111 160.402 151.414C160.402 150.587 160.581 149.891 160.939 149.324C161.304 148.758 161.796 148.328 162.414 148.035C163.039 147.736 163.742 147.586 164.523 147.586C165.298 147.586 165.998 147.736 166.623 148.035C167.248 148.328 167.746 148.758 168.117 149.324C168.495 149.891 168.684 150.587 168.684 151.414ZM167.902 151.375C167.902 150.776 167.753 150.245 167.453 149.783C167.154 149.321 166.747 148.96 166.232 148.699C165.725 148.432 165.155 148.299 164.523 148.299C163.885 148.299 163.312 148.423 162.805 148.67C162.303 148.917 161.906 149.272 161.613 149.734C161.327 150.19 161.184 150.737 161.184 151.375C161.184 151.993 161.327 152.527 161.613 152.977C161.906 153.419 162.307 153.761 162.814 154.002C163.322 154.243 163.898 154.363 164.543 154.363C165.174 154.363 165.741 154.243 166.242 154.002C166.75 153.761 167.154 153.419 167.453 152.977C167.753 152.527 167.902 151.993 167.902 151.375ZM171.506 149.969C171.506 149.533 171.61 149.135 171.818 148.777C172.033 148.413 172.316 148.123 172.668 147.908C173.026 147.693 173.42 147.586 173.85 147.586C174.273 147.586 174.657 147.693 175.002 147.908C175.354 148.123 175.633 148.413 175.842 148.777C176.05 149.135 176.154 149.533 176.154 149.969C176.154 150.405 176.05 150.802 175.842 151.16C175.633 151.512 175.354 151.795 175.002 152.01C174.657 152.218 174.273 152.322 173.85 152.322C173.42 152.322 173.026 152.218 172.668 152.01C172.316 151.795 172.033 151.512 171.818 151.16C171.61 150.802 171.506 150.405 171.506 149.969ZM172.18 149.969C172.18 150.451 172.339 150.851 172.658 151.17C172.977 151.482 173.374 151.639 173.85 151.639C174.318 151.639 174.706 151.482 175.012 151.17C175.318 150.851 175.471 150.451 175.471 149.969C175.471 149.474 175.318 149.067 175.012 148.748C174.706 148.423 174.318 148.26 173.85 148.26C173.374 148.26 172.977 148.423 172.658 148.748C172.339 149.067 172.18 149.474 172.18 149.969Z" fill="black"/>
<path d="M99.3145 221.67V230H98.5332V219.434H99.2949L99.3145 221.67ZM99.1875 223.906L98.7969 223.457C98.849 222.897 98.9792 222.363 99.1875 221.855C99.4023 221.348 99.6855 220.898 100.037 220.508C100.395 220.117 100.815 219.808 101.297 219.58C101.785 219.352 102.329 219.238 102.928 219.238C103.455 219.238 103.927 219.31 104.344 219.453C104.767 219.59 105.125 219.808 105.418 220.107C105.711 220.4 105.936 220.785 106.092 221.26C106.248 221.735 106.326 222.305 106.326 222.969V230H105.545V222.988C105.545 222.194 105.428 221.579 105.193 221.143C104.959 220.706 104.633 220.4 104.217 220.225C103.8 220.042 103.322 219.951 102.781 219.951C102.143 219.951 101.6 220.091 101.15 220.371C100.701 220.645 100.333 220.993 100.047 221.416C99.7669 221.833 99.5586 222.266 99.4219 222.715C99.2852 223.164 99.207 223.561 99.1875 223.906ZM106.316 223.037L105.789 222.852C105.841 222.376 105.975 221.924 106.189 221.494C106.411 221.058 106.701 220.674 107.059 220.342C107.417 220.003 107.837 219.736 108.318 219.541C108.807 219.339 109.347 219.238 109.939 219.238C110.48 219.238 110.962 219.313 111.385 219.463C111.814 219.606 112.173 219.837 112.459 220.156C112.752 220.469 112.977 220.872 113.133 221.367C113.289 221.855 113.367 222.448 113.367 223.145V230H112.586V223.135C112.586 222.301 112.469 221.654 112.234 221.191C112 220.729 111.674 220.407 111.258 220.225C110.841 220.036 110.359 219.945 109.812 219.951C109.233 219.958 108.729 220.065 108.299 220.273C107.869 220.482 107.511 220.745 107.225 221.064C106.938 221.383 106.72 221.719 106.57 222.07C106.421 222.415 106.336 222.738 106.316 223.037Z" fill="black"/>
<path d="M293.314 365.67V374H292.533V363.434H293.295L293.314 365.67ZM293.188 367.906L292.797 367.457C292.849 366.897 292.979 366.363 293.188 365.855C293.402 365.348 293.686 364.898 294.037 364.508C294.395 364.117 294.815 363.808 295.297 363.58C295.785 363.352 296.329 363.238 296.928 363.238C297.455 363.238 297.927 363.31 298.344 363.453C298.767 363.59 299.125 363.808 299.418 364.107C299.711 364.4 299.936 364.785 300.092 365.26C300.248 365.735 300.326 366.305 300.326 366.969V374H299.545V366.988C299.545 366.194 299.428 365.579 299.193 365.143C298.959 364.706 298.633 364.4 298.217 364.225C297.8 364.042 297.322 363.951 296.781 363.951C296.143 363.951 295.6 364.091 295.15 364.371C294.701 364.645 294.333 364.993 294.047 365.416C293.767 365.833 293.559 366.266 293.422 366.715C293.285 367.164 293.207 367.561 293.188 367.906ZM300.316 367.037L299.789 366.852C299.841 366.376 299.975 365.924 300.189 365.494C300.411 365.058 300.701 364.674 301.059 364.342C301.417 364.003 301.837 363.736 302.318 363.541C302.807 363.339 303.347 363.238 303.939 363.238C304.48 363.238 304.962 363.313 305.385 363.463C305.814 363.606 306.173 363.837 306.459 364.156C306.752 364.469 306.977 364.872 307.133 365.367C307.289 365.855 307.367 366.448 307.367 367.145V374H306.586V367.135C306.586 366.301 306.469 365.654 306.234 365.191C306 364.729 305.674 364.407 305.258 364.225C304.841 364.036 304.359 363.945 303.812 363.951C303.233 363.958 302.729 364.065 302.299 364.273C301.869 364.482 301.511 364.745 301.225 365.064C300.938 365.383 300.72 365.719 300.57 366.07C300.421 366.415 300.336 366.738 300.316 367.037ZM318.852 367.232V367.945H314.232V367.232H318.852ZM326.752 365.689V374H325.98V363.434H326.742L326.752 365.689ZM326.605 367.906L326.225 367.457C326.283 366.897 326.42 366.363 326.635 365.855C326.856 365.348 327.146 364.898 327.504 364.508C327.868 364.117 328.292 363.808 328.773 363.58C329.262 363.352 329.799 363.238 330.385 363.238C330.912 363.238 331.384 363.313 331.801 363.463C332.217 363.606 332.569 363.834 332.855 364.146C333.148 364.459 333.37 364.863 333.52 365.357C333.669 365.846 333.744 366.441 333.744 367.145V374H332.973V367.145C332.973 366.311 332.859 365.667 332.631 365.211C332.403 364.749 332.084 364.423 331.674 364.234C331.27 364.046 330.798 363.951 330.258 363.951C329.633 363.951 329.092 364.091 328.637 364.371C328.188 364.645 327.816 364.993 327.523 365.416C327.23 365.833 327.006 366.266 326.85 366.715C326.7 367.164 326.618 367.561 326.605 367.906Z" fill="black"/>
<path d="M227.393 171.689V180H226.621V169.434H227.383L227.393 171.689ZM227.246 173.906L226.865 173.457C226.924 172.897 227.061 172.363 227.275 171.855C227.497 171.348 227.786 170.898 228.145 170.508C228.509 170.117 228.932 169.808 229.414 169.58C229.902 169.352 230.439 169.238 231.025 169.238C231.553 169.238 232.025 169.313 232.441 169.463C232.858 169.606 233.21 169.834 233.496 170.146C233.789 170.459 234.01 170.863 234.16 171.357C234.31 171.846 234.385 172.441 234.385 173.145V180H233.613V173.145C233.613 172.311 233.499 171.667 233.271 171.211C233.044 170.749 232.725 170.423 232.314 170.234C231.911 170.046 231.439 169.951 230.898 169.951C230.273 169.951 229.733 170.091 229.277 170.371C228.828 170.645 228.457 170.993 228.164 171.416C227.871 171.833 227.646 172.266 227.49 172.715C227.34 173.164 227.259 173.561 227.246 173.906Z" fill="black"/>
<path d="M245.393 457.689V466H244.621V455.434H245.383L245.393 457.689ZM245.246 459.906L244.865 459.457C244.924 458.897 245.061 458.363 245.275 457.855C245.497 457.348 245.786 456.898 246.145 456.508C246.509 456.117 246.932 455.808 247.414 455.58C247.902 455.352 248.439 455.238 249.025 455.238C249.553 455.238 250.025 455.313 250.441 455.463C250.858 455.606 251.21 455.834 251.496 456.146C251.789 456.459 252.01 456.863 252.16 457.357C252.31 457.846 252.385 458.441 252.385 459.145V466H251.613V459.145C251.613 458.311 251.499 457.667 251.271 457.211C251.044 456.749 250.725 456.423 250.314 456.234C249.911 456.046 249.439 455.951 248.898 455.951C248.273 455.951 247.733 456.091 247.277 456.371C246.828 456.645 246.457 456.993 246.164 457.416C245.871 457.833 245.646 458.266 245.49 458.715C245.34 459.164 245.259 459.561 245.246 459.906Z" fill="black"/>
<path d="M186.572 147.732V162H185.791V148.738L181.797 150.232V149.451L186.426 147.732H186.572ZM201.074 158.27C201.074 159.129 200.872 159.852 200.469 160.438C200.065 161.023 199.521 161.463 198.838 161.756C198.161 162.049 197.399 162.195 196.553 162.195C195.7 162.195 194.928 162.049 194.238 161.756C193.555 161.463 193.014 161.023 192.617 160.438C192.22 159.852 192.021 159.129 192.021 158.27C192.021 157.71 192.135 157.199 192.363 156.736C192.591 156.268 192.907 155.867 193.311 155.535C193.721 155.197 194.199 154.936 194.746 154.754C195.293 154.572 195.889 154.48 196.533 154.48C197.38 154.48 198.145 154.643 198.828 154.969C199.518 155.288 200.065 155.73 200.469 156.297C200.872 156.863 201.074 157.521 201.074 158.27ZM200.293 158.299C200.293 157.648 200.124 157.081 199.785 156.6C199.453 156.118 199.004 155.743 198.438 155.477C197.871 155.21 197.236 155.076 196.533 155.076C195.824 155.076 195.186 155.21 194.619 155.477C194.053 155.743 193.607 156.118 193.281 156.6C192.956 157.081 192.793 157.648 192.793 158.299C192.793 158.982 192.956 159.562 193.281 160.037C193.607 160.512 194.053 160.874 194.619 161.121C195.192 161.362 195.837 161.482 196.553 161.482C197.262 161.482 197.897 161.362 198.457 161.121C199.023 160.874 199.469 160.512 199.795 160.037C200.127 159.562 200.293 158.982 200.293 158.299ZM200.684 151.414C200.684 152.111 200.498 152.729 200.127 153.27C199.756 153.803 199.258 154.223 198.633 154.529C198.014 154.829 197.318 154.979 196.543 154.979C195.755 154.979 195.049 154.829 194.424 154.529C193.799 154.223 193.304 153.803 192.939 153.27C192.581 152.729 192.402 152.111 192.402 151.414C192.402 150.587 192.581 149.891 192.939 149.324C193.304 148.758 193.796 148.328 194.414 148.035C195.039 147.736 195.742 147.586 196.523 147.586C197.298 147.586 197.998 147.736 198.623 148.035C199.248 148.328 199.746 148.758 200.117 149.324C200.495 149.891 200.684 150.587 200.684 151.414ZM199.902 151.375C199.902 150.776 199.753 150.245 199.453 149.783C199.154 149.321 198.747 148.96 198.232 148.699C197.725 148.432 197.155 148.299 196.523 148.299C195.885 148.299 195.312 148.423 194.805 148.67C194.303 148.917 193.906 149.272 193.613 149.734C193.327 150.19 193.184 150.737 193.184 151.375C193.184 151.993 193.327 152.527 193.613 152.977C193.906 153.419 194.307 153.761 194.814 154.002C195.322 154.243 195.898 154.363 196.543 154.363C197.174 154.363 197.741 154.243 198.242 154.002C198.75 153.761 199.154 153.419 199.453 152.977C199.753 152.527 199.902 151.993 199.902 151.375ZM203.506 149.969C203.506 149.533 203.61 149.135 203.818 148.777C204.033 148.413 204.316 148.123 204.668 147.908C205.026 147.693 205.42 147.586 205.85 147.586C206.273 147.586 206.657 147.693 207.002 147.908C207.354 148.123 207.633 148.413 207.842 148.777C208.05 149.135 208.154 149.533 208.154 149.969C208.154 150.405 208.05 150.802 207.842 151.16C207.633 151.512 207.354 151.795 207.002 152.01C206.657 152.218 206.273 152.322 205.85 152.322C205.42 152.322 205.026 152.218 204.668 152.01C204.316 151.795 204.033 151.512 203.818 151.16C203.61 150.802 203.506 150.405 203.506 149.969ZM204.18 149.969C204.18 150.451 204.339 150.851 204.658 151.17C204.977 151.482 205.374 151.639 205.85 151.639C206.318 151.639 206.706 151.482 207.012 151.17C207.318 150.851 207.471 150.451 207.471 149.969C207.471 149.474 207.318 149.067 207.012 148.748C206.706 148.423 206.318 148.26 205.85 148.26C205.374 148.26 204.977 148.423 204.658 148.748C204.339 149.067 204.18 149.474 204.18 149.969Z" fill="black"/>
<path d="M277.941 427.781V428.25L271.75 442H270.949L277.082 428.494H268.752V427.781H277.941ZM289.113 441.287V442H280.451V441.326L285.109 435.984C285.695 435.314 286.171 434.715 286.535 434.188C286.9 433.654 287.167 433.165 287.336 432.723C287.505 432.28 287.59 431.854 287.59 431.443C287.59 430.812 287.466 430.262 287.219 429.793C286.971 429.324 286.604 428.96 286.115 428.699C285.627 428.432 285.025 428.299 284.309 428.299C283.645 428.299 283.052 428.452 282.531 428.758C282.017 429.064 281.613 429.484 281.32 430.018C281.034 430.545 280.891 431.147 280.891 431.824H280.119C280.119 431.049 280.292 430.343 280.637 429.705C280.982 429.061 281.467 428.546 282.092 428.162C282.723 427.778 283.462 427.586 284.309 427.586C285.142 427.586 285.861 427.736 286.467 428.035C287.072 428.328 287.541 428.758 287.873 429.324C288.205 429.891 288.371 430.584 288.371 431.404C288.371 431.834 288.29 432.27 288.127 432.713C287.971 433.156 287.753 433.598 287.473 434.041C287.199 434.477 286.89 434.91 286.545 435.34C286.206 435.77 285.855 436.193 285.49 436.609L281.438 441.287H289.113ZM291.506 429.969C291.506 429.533 291.61 429.135 291.818 428.777C292.033 428.413 292.316 428.123 292.668 427.908C293.026 427.693 293.42 427.586 293.85 427.586C294.273 427.586 294.657 427.693 295.002 427.908C295.354 428.123 295.633 428.413 295.842 428.777C296.05 429.135 296.154 429.533 296.154 429.969C296.154 430.405 296.05 430.802 295.842 431.16C295.633 431.512 295.354 431.795 295.002 432.01C294.657 432.218 294.273 432.322 293.85 432.322C293.42 432.322 293.026 432.218 292.668 432.01C292.316 431.795 292.033 431.512 291.818 431.16C291.61 430.802 291.506 430.405 291.506 429.969ZM292.18 429.969C292.18 430.451 292.339 430.851 292.658 431.17C292.977 431.482 293.374 431.639 293.85 431.639C294.318 431.639 294.706 431.482 295.012 431.17C295.318 430.851 295.471 430.451 295.471 429.969C295.471 429.474 295.318 429.067 295.012 428.748C294.706 428.423 294.318 428.26 293.85 428.26C293.374 428.26 292.977 428.423 292.658 428.748C292.339 429.067 292.18 429.474 292.18 429.969Z" fill="black"/>
<path d="M243.941 319.781V320.25L237.75 334H236.949L243.082 320.494H234.752V319.781H243.941ZM255.113 333.287V334H246.451V333.326L251.109 327.984C251.695 327.314 252.171 326.715 252.535 326.188C252.9 325.654 253.167 325.165 253.336 324.723C253.505 324.28 253.59 323.854 253.59 323.443C253.59 322.812 253.466 322.262 253.219 321.793C252.971 321.324 252.604 320.96 252.115 320.699C251.627 320.432 251.025 320.299 250.309 320.299C249.645 320.299 249.052 320.452 248.531 320.758C248.017 321.064 247.613 321.484 247.32 322.018C247.034 322.545 246.891 323.147 246.891 323.824H246.119C246.119 323.049 246.292 322.343 246.637 321.705C246.982 321.061 247.467 320.546 248.092 320.162C248.723 319.778 249.462 319.586 250.309 319.586C251.142 319.586 251.861 319.736 252.467 320.035C253.072 320.328 253.541 320.758 253.873 321.324C254.205 321.891 254.371 322.584 254.371 323.404C254.371 323.834 254.29 324.27 254.127 324.713C253.971 325.156 253.753 325.598 253.473 326.041C253.199 326.477 252.89 326.91 252.545 327.34C252.206 327.77 251.855 328.193 251.49 328.609L247.438 333.287H255.113ZM257.506 321.969C257.506 321.533 257.61 321.135 257.818 320.777C258.033 320.413 258.316 320.123 258.668 319.908C259.026 319.693 259.42 319.586 259.85 319.586C260.273 319.586 260.657 319.693 261.002 319.908C261.354 320.123 261.633 320.413 261.842 320.777C262.05 321.135 262.154 321.533 262.154 321.969C262.154 322.405 262.05 322.802 261.842 323.16C261.633 323.512 261.354 323.795 261.002 324.01C260.657 324.218 260.273 324.322 259.85 324.322C259.42 324.322 259.026 324.218 258.668 324.01C258.316 323.795 258.033 323.512 257.818 323.16C257.61 322.802 257.506 322.405 257.506 321.969ZM258.18 321.969C258.18 322.451 258.339 322.851 258.658 323.17C258.977 323.482 259.374 323.639 259.85 323.639C260.318 323.639 260.706 323.482 261.012 323.17C261.318 322.851 261.471 322.451 261.471 321.969C261.471 321.474 261.318 321.067 261.012 320.748C260.706 320.423 260.318 320.26 259.85 320.26C259.374 320.26 258.977 320.423 258.658 320.748C258.339 321.067 258.18 321.474 258.18 321.969Z" fill="black"/>
<path d="M214.572 284.732V299H213.791V285.738L209.797 287.232V286.451L214.426 284.732H214.572ZM228.82 290.621V293.15C228.82 294.12 228.726 294.983 228.537 295.738C228.348 296.487 228.072 297.118 227.707 297.633C227.342 298.147 226.893 298.538 226.359 298.805C225.832 299.065 225.223 299.195 224.533 299.195C223.986 299.195 223.488 299.111 223.039 298.941C222.59 298.772 222.189 298.521 221.838 298.189C221.486 297.857 221.19 297.447 220.949 296.959C220.708 296.471 220.526 295.908 220.402 295.27C220.279 294.632 220.217 293.925 220.217 293.15V290.621C220.217 289.638 220.311 288.775 220.5 288.033C220.695 287.285 220.975 286.653 221.34 286.139C221.704 285.624 222.154 285.237 222.688 284.977C223.221 284.71 223.83 284.576 224.514 284.576C225.061 284.576 225.559 284.661 226.008 284.83C226.464 284.999 226.864 285.25 227.209 285.582C227.561 285.914 227.854 286.324 228.088 286.812C228.329 287.301 228.511 287.864 228.635 288.502C228.758 289.133 228.82 289.84 228.82 290.621ZM228.039 293.189V290.553C228.039 289.908 227.99 289.312 227.893 288.766C227.801 288.219 227.661 287.73 227.473 287.301C227.29 286.871 227.056 286.507 226.77 286.207C226.49 285.908 226.161 285.68 225.783 285.523C225.406 285.367 224.982 285.289 224.514 285.289C223.928 285.289 223.413 285.413 222.971 285.66C222.528 285.901 222.16 286.249 221.867 286.705C221.581 287.161 221.363 287.714 221.213 288.365C221.07 289.016 220.998 289.745 220.998 290.553V293.189C220.998 293.827 221.044 294.42 221.135 294.967C221.226 295.507 221.366 295.995 221.555 296.432C221.743 296.868 221.978 297.239 222.258 297.545C222.544 297.844 222.876 298.076 223.254 298.238C223.632 298.401 224.058 298.482 224.533 298.482C225.126 298.482 225.64 298.359 226.076 298.111C226.519 297.857 226.883 297.499 227.17 297.037C227.463 296.575 227.681 296.018 227.824 295.367C227.967 294.716 228.039 293.99 228.039 293.189ZM240.09 295.27C240.09 296.129 239.888 296.852 239.484 297.438C239.081 298.023 238.537 298.463 237.854 298.756C237.176 299.049 236.415 299.195 235.568 299.195C234.715 299.195 233.944 299.049 233.254 298.756C232.57 298.463 232.03 298.023 231.633 297.438C231.236 296.852 231.037 296.129 231.037 295.27C231.037 294.71 231.151 294.199 231.379 293.736C231.607 293.268 231.923 292.867 232.326 292.535C232.736 292.197 233.215 291.936 233.762 291.754C234.309 291.572 234.904 291.48 235.549 291.48C236.395 291.48 237.16 291.643 237.844 291.969C238.534 292.288 239.081 292.73 239.484 293.297C239.888 293.863 240.09 294.521 240.09 295.27ZM239.309 295.299C239.309 294.648 239.139 294.081 238.801 293.6C238.469 293.118 238.02 292.743 237.453 292.477C236.887 292.21 236.252 292.076 235.549 292.076C234.839 292.076 234.201 292.21 233.635 292.477C233.068 292.743 232.622 293.118 232.297 293.6C231.971 294.081 231.809 294.648 231.809 295.299C231.809 295.982 231.971 296.562 232.297 297.037C232.622 297.512 233.068 297.874 233.635 298.121C234.208 298.362 234.852 298.482 235.568 298.482C236.278 298.482 236.913 298.362 237.473 298.121C238.039 297.874 238.485 297.512 238.811 297.037C239.143 296.562 239.309 295.982 239.309 295.299ZM239.699 288.414C239.699 289.111 239.514 289.729 239.143 290.27C238.771 290.803 238.273 291.223 237.648 291.529C237.03 291.829 236.333 291.979 235.559 291.979C234.771 291.979 234.064 291.829 233.439 291.529C232.814 291.223 232.32 290.803 231.955 290.27C231.597 289.729 231.418 289.111 231.418 288.414C231.418 287.587 231.597 286.891 231.955 286.324C232.32 285.758 232.811 285.328 233.43 285.035C234.055 284.736 234.758 284.586 235.539 284.586C236.314 284.586 237.014 284.736 237.639 285.035C238.264 285.328 238.762 285.758 239.133 286.324C239.51 286.891 239.699 287.587 239.699 288.414ZM238.918 288.375C238.918 287.776 238.768 287.245 238.469 286.783C238.169 286.321 237.762 285.96 237.248 285.699C236.74 285.432 236.171 285.299 235.539 285.299C234.901 285.299 234.328 285.423 233.82 285.67C233.319 285.917 232.922 286.272 232.629 286.734C232.342 287.19 232.199 287.737 232.199 288.375C232.199 288.993 232.342 289.527 232.629 289.977C232.922 290.419 233.322 290.761 233.83 291.002C234.338 291.243 234.914 291.363 235.559 291.363C236.19 291.363 236.757 291.243 237.258 291.002C237.766 290.761 238.169 290.419 238.469 289.977C238.768 289.527 238.918 288.993 238.918 288.375ZM242.521 286.969C242.521 286.533 242.626 286.135 242.834 285.777C243.049 285.413 243.332 285.123 243.684 284.908C244.042 284.693 244.436 284.586 244.865 284.586C245.288 284.586 245.673 284.693 246.018 284.908C246.369 285.123 246.649 285.413 246.857 285.777C247.066 286.135 247.17 286.533 247.17 286.969C247.17 287.405 247.066 287.802 246.857 288.16C246.649 288.512 246.369 288.795 246.018 289.01C245.673 289.218 245.288 289.322 244.865 289.322C244.436 289.322 244.042 289.218 243.684 289.01C243.332 288.795 243.049 288.512 242.834 288.16C242.626 287.802 242.521 287.405 242.521 286.969ZM243.195 286.969C243.195 287.451 243.355 287.851 243.674 288.17C243.993 288.482 244.39 288.639 244.865 288.639C245.334 288.639 245.721 288.482 246.027 288.17C246.333 287.851 246.486 287.451 246.486 286.969C246.486 286.474 246.333 286.067 246.027 285.748C245.721 285.423 245.334 285.26 244.865 285.26C244.39 285.26 243.993 285.423 243.674 285.748C243.355 286.067 243.195 286.474 243.195 286.969Z" fill="black"/>
<path d="M73.9434 437.439V446H73.4746V438.043L71.0781 438.939V438.471L73.8555 437.439H73.9434Z" fill="black"/>
<path d="M256.943 306.439V315H256.475V307.043L254.078 307.939V307.471L256.855 306.439H256.943Z" fill="black"/>
<path d="M186.943 91.4395V100H186.475V92.043L184.078 92.9395V92.4707L186.855 91.4395H186.943Z" fill="black"/>
<path d="M67.0586 431.572V432H61.8613V431.596L64.6562 428.391C65.0078 427.988 65.293 427.629 65.5117 427.312C65.7305 426.992 65.8906 426.699 65.9922 426.434C66.0938 426.168 66.1445 425.912 66.1445 425.666C66.1445 425.287 66.0703 424.957 65.9219 424.676C65.7734 424.395 65.5527 424.176 65.2598 424.02C64.9668 423.859 64.6055 423.779 64.1758 423.779C63.7773 423.779 63.4219 423.871 63.1094 424.055C62.8008 424.238 62.5586 424.49 62.3828 424.811C62.2109 425.127 62.125 425.488 62.125 425.895H61.6621C61.6621 425.43 61.7656 425.006 61.9727 424.623C62.1797 424.236 62.4707 423.928 62.8457 423.697C63.2246 423.467 63.668 423.352 64.1758 423.352C64.6758 423.352 65.1074 423.441 65.4707 423.621C65.834 423.797 66.1152 424.055 66.3145 424.395C66.5137 424.734 66.6133 425.15 66.6133 425.643C66.6133 425.9 66.5645 426.162 66.4668 426.428C66.373 426.693 66.2422 426.959 66.0742 427.225C65.9102 427.486 65.7246 427.746 65.5176 428.004C65.3145 428.262 65.1035 428.516 64.8848 428.766L62.4531 431.572H67.0586Z" fill="black"/>
<path d="M175.059 99.5723V100H169.861V99.5957L172.656 96.3906C173.008 95.9883 173.293 95.6289 173.512 95.3125C173.73 94.9922 173.891 94.6992 173.992 94.4336C174.094 94.168 174.145 93.9121 174.145 93.666C174.145 93.2871 174.07 92.957 173.922 92.6758C173.773 92.3945 173.553 92.1758 173.26 92.0195C172.967 91.8594 172.605 91.7793 172.176 91.7793C171.777 91.7793 171.422 91.8711 171.109 92.0547C170.801 92.2383 170.559 92.4902 170.383 92.8105C170.211 93.127 170.125 93.4883 170.125 93.8945H169.662C169.662 93.4297 169.766 93.0059 169.973 92.623C170.18 92.2363 170.471 91.9277 170.846 91.6973C171.225 91.4668 171.668 91.3516 172.176 91.3516C172.676 91.3516 173.107 91.4414 173.471 91.6211C173.834 91.7969 174.115 92.0547 174.314 92.3945C174.514 92.7344 174.613 93.1504 174.613 93.6426C174.613 93.9004 174.564 94.1621 174.467 94.4277C174.373 94.6934 174.242 94.959 174.074 95.2246C173.91 95.4863 173.725 95.7461 173.518 96.0039C173.314 96.2617 173.104 96.5156 172.885 96.7656L170.453 99.5723H175.059Z" fill="black"/>
<path d="M253.059 297.572V298H247.861V297.596L250.656 294.391C251.008 293.988 251.293 293.629 251.512 293.312C251.73 292.992 251.891 292.699 251.992 292.434C252.094 292.168 252.145 291.912 252.145 291.666C252.145 291.287 252.07 290.957 251.922 290.676C251.773 290.395 251.553 290.176 251.26 290.02C250.967 289.859 250.605 289.779 250.176 289.779C249.777 289.779 249.422 289.871 249.109 290.055C248.801 290.238 248.559 290.49 248.383 290.811C248.211 291.127 248.125 291.488 248.125 291.895H247.662C247.662 291.43 247.766 291.006 247.973 290.623C248.18 290.236 248.471 289.928 248.846 289.697C249.225 289.467 249.668 289.352 250.176 289.352C250.676 289.352 251.107 289.441 251.471 289.621C251.834 289.797 252.115 290.055 252.314 290.395C252.514 290.734 252.613 291.15 252.613 291.643C252.613 291.9 252.564 292.162 252.467 292.428C252.373 292.693 252.242 292.959 252.074 293.225C251.91 293.486 251.725 293.746 251.518 294.004C251.314 294.262 251.104 294.516 250.885 294.766L248.453 297.572H253.059Z" fill="black"/>
<path d="M74.0234 404.383H75.1465C75.9408 404.383 76.6081 404.249 77.1484 403.982C77.6888 403.709 78.0957 403.351 78.3691 402.908C78.6426 402.459 78.7793 401.967 78.7793 401.434C78.7793 400.848 78.6621 400.317 78.4277 399.842C78.1999 399.367 77.8418 398.992 77.3535 398.719C76.8717 398.439 76.25 398.299 75.4883 398.299C74.8438 398.299 74.2611 398.429 73.7402 398.689C73.2194 398.95 72.8027 399.321 72.4902 399.803C72.1842 400.278 72.0312 400.848 72.0312 401.512H71.2598C71.2598 400.717 71.4486 400.027 71.8262 399.441C72.2038 398.849 72.7116 398.393 73.3496 398.074C73.9941 397.749 74.707 397.586 75.4883 397.586C76.3151 397.586 77.0312 397.742 77.6367 398.055C78.2487 398.361 78.7207 398.803 79.0527 399.383C79.3913 399.962 79.5605 400.659 79.5605 401.473C79.5605 401.935 79.4596 402.378 79.2578 402.801C79.0625 403.224 78.776 403.602 78.3984 403.934C78.0273 404.259 77.5749 404.52 77.041 404.715C76.5072 404.904 75.9017 404.998 75.2246 404.998H74.0234V404.383ZM74.0234 405.115V404.52H75.2246C75.9798 404.52 76.6439 404.604 77.2168 404.773C77.7897 404.943 78.2715 405.19 78.6621 405.516C79.0592 405.835 79.3555 406.222 79.5508 406.678C79.7526 407.127 79.8535 407.632 79.8535 408.191C79.8535 408.829 79.7461 409.396 79.5312 409.891C79.3229 410.385 79.0267 410.805 78.6426 411.15C78.2585 411.495 77.8027 411.756 77.2754 411.932C76.7546 412.107 76.1849 412.195 75.5664 412.195C75.013 412.195 74.4661 412.114 73.9258 411.951C73.3854 411.782 72.8939 411.528 72.4512 411.189C72.0085 410.851 71.6536 410.424 71.3867 409.91C71.1198 409.389 70.9863 408.781 70.9863 408.084H71.7676C71.7676 408.748 71.9303 409.334 72.2559 409.842C72.5879 410.35 73.0404 410.75 73.6133 411.043C74.1862 411.336 74.8372 411.482 75.5664 411.482C76.3086 411.482 76.9401 411.355 77.4609 411.102C77.9883 410.841 78.3887 410.47 78.6621 409.988C78.9355 409.5 79.0723 408.914 79.0723 408.23C79.0723 407.495 78.9062 406.899 78.5742 406.443C78.2422 405.981 77.7799 405.646 77.1875 405.438C76.5951 405.223 75.9147 405.115 75.1465 405.115H74.0234ZM89.0527 397.625H89.2285V398.348H89.0527C88.1868 398.348 87.3861 398.488 86.6504 398.768C85.9212 399.048 85.2865 399.474 84.7461 400.047C84.2122 400.62 83.7956 401.336 83.4961 402.195C83.2031 403.055 83.0566 404.064 83.0566 405.223V407.107C83.0566 407.778 83.151 408.383 83.3398 408.924C83.5352 409.464 83.8021 409.926 84.1406 410.311C84.4857 410.688 84.8926 410.981 85.3613 411.189C85.8301 411.391 86.3411 411.492 86.8945 411.492C87.4023 411.492 87.8613 411.382 88.2715 411.16C88.6816 410.939 89.0299 410.636 89.3164 410.252C89.6029 409.861 89.8242 409.419 89.9805 408.924C90.1367 408.423 90.2148 407.895 90.2148 407.342C90.2148 406.788 90.1432 406.274 90 405.799C89.8568 405.324 89.6419 404.904 89.3555 404.539C89.0755 404.174 88.7174 403.891 88.2812 403.689C87.8516 403.481 87.347 403.377 86.7676 403.377C86.1165 403.377 85.5013 403.523 84.9219 403.816C84.349 404.103 83.8802 404.493 83.5156 404.988C83.151 405.477 82.9655 406.017 82.959 406.609L82.4707 406.59C82.4902 406.043 82.6107 405.535 82.832 405.066C83.0534 404.591 83.3626 404.174 83.7598 403.816C84.1569 403.452 84.6191 403.169 85.1465 402.967C85.6738 402.758 86.25 402.654 86.875 402.654C87.5456 402.654 88.1348 402.775 88.6426 403.016C89.1504 403.257 89.5768 403.589 89.9219 404.012C90.2734 404.435 90.5371 404.93 90.7129 405.496C90.8952 406.062 90.9863 406.671 90.9863 407.322C90.9863 408.006 90.8887 408.644 90.6934 409.236C90.498 409.829 90.2181 410.346 89.8535 410.789C89.4954 411.232 89.0658 411.577 88.5645 411.824C88.0697 412.072 87.513 412.195 86.8945 412.195C86.2109 412.195 85.5859 412.072 85.0195 411.824C84.4596 411.577 83.9714 411.225 83.5547 410.77C83.1445 410.314 82.8288 409.777 82.6074 409.158C82.3861 408.54 82.2754 407.856 82.2754 407.107V405.623C82.2754 404.282 82.4382 403.113 82.7637 402.117C83.0892 401.115 83.5514 400.281 84.1504 399.617C84.7493 398.947 85.4622 398.449 86.2891 398.123C87.1224 397.791 88.0436 397.625 89.0527 397.625ZM93.5059 399.969C93.5059 399.533 93.61 399.135 93.8184 398.777C94.0332 398.413 94.3164 398.123 94.668 397.908C95.026 397.693 95.4199 397.586 95.8496 397.586C96.2728 397.586 96.6569 397.693 97.002 397.908C97.3535 398.123 97.6335 398.413 97.8418 398.777C98.0501 399.135 98.1543 399.533 98.1543 399.969C98.1543 400.405 98.0501 400.802 97.8418 401.16C97.6335 401.512 97.3535 401.795 97.002 402.01C96.6569 402.218 96.2728 402.322 95.8496 402.322C95.4199 402.322 95.026 402.218 94.668 402.01C94.3164 401.795 94.0332 401.512 93.8184 401.16C93.61 400.802 93.5059 400.405 93.5059 399.969ZM94.1797 399.969C94.1797 400.451 94.3392 400.851 94.6582 401.17C94.9772 401.482 95.3743 401.639 95.8496 401.639C96.3184 401.639 96.7057 401.482 97.0117 401.17C97.3177 400.851 97.4707 400.451 97.4707 399.969C97.4707 399.474 97.3177 399.067 97.0117 398.748C96.7057 398.423 96.3184 398.26 95.8496 398.26C95.3743 398.26 94.9772 398.423 94.6582 398.748C94.3392 399.067 94.1797 399.474 94.1797 399.969Z" fill="black"/>
<path d="M183.625 470.277V471H175.334V470.277H183.625ZM175.686 456.781V471H174.895V456.781H175.686ZM182.629 463.314V464.047H175.334V463.314H182.629ZM183.605 456.781V457.504H175.334V456.781H183.605Z" fill="black"/>
<path d="M271.811 297H268.441L268.461 296.277H271.811C272.833 296.277 273.731 296.04 274.506 295.564C275.287 295.089 275.899 294.432 276.342 293.592C276.785 292.745 277.006 291.772 277.006 290.672V289.08C277.006 288.26 276.879 287.508 276.625 286.824C276.371 286.141 276.013 285.551 275.551 285.057C275.095 284.562 274.551 284.181 273.92 283.914C273.288 283.641 272.598 283.504 271.85 283.504H268.383V282.781H271.85C272.702 282.781 273.49 282.934 274.213 283.24C274.942 283.54 275.574 283.969 276.107 284.529C276.641 285.083 277.055 285.75 277.348 286.531C277.647 287.306 277.797 288.165 277.797 289.109V290.672C277.797 291.616 277.647 292.479 277.348 293.26C277.055 294.035 276.638 294.702 276.098 295.262C275.564 295.815 274.932 296.245 274.203 296.551C273.48 296.85 272.683 297 271.811 297ZM268.686 282.781V297H267.895V282.781H268.686Z" fill="black"/>
<path d="M182.928 38.6152H183.719C183.621 39.6113 183.354 40.4512 182.918 41.1348C182.482 41.8118 181.896 42.3262 181.16 42.6777C180.431 43.0228 179.572 43.1953 178.582 43.1953C177.794 43.1953 177.078 43.0456 176.434 42.7461C175.796 42.4401 175.245 42.0104 174.783 41.457C174.327 40.8971 173.976 40.2298 173.729 39.4551C173.481 38.6803 173.357 37.8242 173.357 36.8867V34.8945C173.357 33.9505 173.481 33.0944 173.729 32.3262C173.976 31.5514 174.327 30.8874 174.783 30.334C175.245 29.7741 175.799 29.3444 176.443 29.0449C177.094 28.7389 177.82 28.5859 178.621 28.5859C179.591 28.5859 180.441 28.7585 181.17 29.1035C181.899 29.4486 182.482 29.9629 182.918 30.6465C183.354 31.3236 183.621 32.1602 183.719 33.1562H182.928C182.83 32.3294 182.605 31.6328 182.254 31.0664C181.909 30.4935 181.434 30.0573 180.828 29.7578C180.223 29.4583 179.487 29.3086 178.621 29.3086C177.938 29.3086 177.322 29.4421 176.775 29.709C176.229 29.9694 175.76 30.347 175.369 30.8418C174.979 31.3301 174.676 31.916 174.461 32.5996C174.253 33.2767 174.148 34.0352 174.148 34.875V36.8867C174.148 37.7135 174.253 38.472 174.461 39.1621C174.669 39.8457 174.965 40.4349 175.35 40.9297C175.734 41.418 176.199 41.7988 176.746 42.0723C177.293 42.3392 177.905 42.4727 178.582 42.4727C179.448 42.4727 180.187 42.3359 180.799 42.0625C181.411 41.7826 181.893 41.3561 182.244 40.7832C182.602 40.2103 182.83 39.4876 182.928 38.6152Z" fill="black"/>
<path d="M320.699 451.047H316.441L316.422 450.334H319.986C320.781 450.334 321.451 450.227 321.998 450.012C322.545 449.797 322.958 449.475 323.238 449.045C323.518 448.609 323.658 448.065 323.658 447.414C323.658 446.763 323.515 446.223 323.229 445.793C322.942 445.363 322.512 445.041 321.939 444.826C321.373 444.611 320.663 444.504 319.811 444.504H316.686V458H315.895V443.781H319.811C320.533 443.781 321.181 443.853 321.754 443.996C322.327 444.139 322.812 444.364 323.209 444.67C323.613 444.969 323.922 445.35 324.137 445.812C324.352 446.275 324.459 446.822 324.459 447.453C324.459 448.039 324.342 448.566 324.107 449.035C323.873 449.504 323.535 449.888 323.092 450.188C322.656 450.48 322.122 450.66 321.49 450.725L320.699 451.047ZM320.602 458H316.275L316.617 457.277H320.602C321.363 457.277 322.014 457.15 322.555 456.896C323.102 456.636 323.521 456.268 323.814 455.793C324.114 455.311 324.264 454.735 324.264 454.064C324.264 453.524 324.133 453.026 323.873 452.57C323.613 452.108 323.219 451.74 322.691 451.467C322.164 451.187 321.5 451.047 320.699 451.047H318.316L318.336 450.334H321.764L321.871 450.588C322.49 450.66 323.036 450.858 323.512 451.184C323.993 451.509 324.371 451.923 324.645 452.424C324.918 452.919 325.055 453.459 325.055 454.045C325.055 454.898 324.866 455.617 324.488 456.203C324.111 456.789 323.587 457.235 322.916 457.541C322.252 457.847 321.48 458 320.602 458Z" fill="black"/>
<path d="M238.841 451.237C238.841 451.01 238.841 451 238.644 451C238.407 451.266 237.914 451.631 236.898 451.631V451.917C237.125 451.917 237.618 451.917 238.16 451.661V456.8C238.16 457.155 238.131 457.274 237.263 457.274H236.957V457.56C237.223 457.54 238.18 457.54 238.506 457.54C238.831 457.54 239.778 457.54 240.044 457.56V457.274H239.739C238.871 457.274 238.841 457.155 238.841 456.8V451.237Z" fill="black"/>
<path d="M240.829 461.57H236V461.965H240.829V461.57Z" fill="black"/>
<path d="M240.34 469.343H240.123C240.094 469.51 240.015 470.053 239.916 470.211C239.847 470.3 239.285 470.3 238.989 470.3H237.164C237.43 470.073 238.032 469.441 238.289 469.205C239.788 467.824 240.34 467.311 240.34 466.334C240.34 465.2 239.443 464.44 238.298 464.44C237.154 464.44 236.483 465.417 236.483 466.265C236.483 466.768 236.917 466.768 236.947 466.768C237.154 466.768 237.411 466.62 237.411 466.304C237.411 466.028 237.223 465.841 236.947 465.841C236.858 465.841 236.838 465.841 236.809 465.851C236.996 465.18 237.529 464.726 238.17 464.726C239.009 464.726 239.522 465.427 239.522 466.334C239.522 467.173 239.038 467.903 238.476 468.534L236.483 470.763V471H240.084L240.34 469.343Z" fill="black"/>
</svg>
